<svg width="75" height="75" viewBox="0 0 75 75" fill="none" xmlns="http://www.w3.org/2000/svg">
<path d="M65.625 7.10449L61.8896 9.81445C61.8896 9.81445 57.2296 13.2751 50.5371 16.6992C43.8446 20.1233 35.1288 23.4375 27.4658 23.4375H4.6875V44.8242L4.76074 45.1904L9.44824 61.5967L9.96094 63.2812H24.1699L23.3643 60.2783L19.5557 46.875H27.4658C35.0281 46.875 43.7439 50.2533 50.4639 53.6865C57.1838 57.1198 61.8896 60.498 61.8896 60.498L65.625 63.208V41.748C68.335 40.7684 70.3125 38.1866 70.3125 35.1562C70.3125 32.1259 68.335 29.5441 65.625 28.5645V7.10449ZM60.9375 15.8203V54.4189C58.9966 53.1097 57.4585 51.9196 52.5879 49.4385C45.7031 45.9229 36.8134 42.3615 28.125 42.1875V28.125C36.8958 27.951 45.7947 24.3164 52.6611 20.8008C57.5226 18.3105 59.0149 17.1295 60.9375 15.8203ZM9.375 28.125H23.4375V42.1875H9.375V28.125ZM10.1807 46.875H14.6484L17.9443 58.5938H13.4766L10.1807 46.875Z" fill="#444444"/>
</svg>
