<svg width="99" height="99" viewBox="0 0 99 99" fill="none" xmlns="http://www.w3.org/2000/svg">
<path d="M43.3125 26.3438H42.8125V26.8438V39.2188V39.7188H43.3125H55.6875H56.1875V39.2188V26.8438V26.3438H55.6875H43.3125ZM12.375 66.2812H11.875V66.7812V79.1562V79.6562H12.375H24.75H25.25V79.1562V66.7812V66.2812H24.75H12.375ZM43.3125 66.2812H42.8125V66.7812V79.1562V79.6562H43.3125H55.6875H56.1875V79.1562V66.7812V66.2812H55.6875H43.3125ZM74.25 66.2812H73.75V66.7812V79.1562V79.6562H74.25H86.625H87.125V79.1562V66.7812V66.2812H86.625H74.25ZM61.375 44.9062H37.625V21.1562H61.375V44.9062ZM30.4375 84.8438H6.6875V61.0938H30.4375V84.8438ZM61.375 84.8438H37.625V61.0938H61.375V84.8438ZM92.3125 84.8438H68.5625V61.0938H92.3125V84.8438Z" fill="#444444" stroke="white"/>
<path d="M49.5 43.5V53.5H19.5V62.5" stroke="#444444" stroke-width="4"/>
<path d="M49 44V53.4737H79V62" stroke="#444444" stroke-width="4"/>
<path d="M49 44V63.5" stroke="#444444" stroke-width="4"/>
</svg>
