<svg width="135" height="128" viewBox="0 0 135 128" fill="none" xmlns="http://www.w3.org/2000/svg">
<g clip-path="url(#clip0)">
<path d="M100.255 50.9049L84.406 50.8427V41.7681H78.6877V44.7516H58.3009C53.4839 44.7516 49.5371 48.6984 49.5371 53.5154V60.8497L19.8892 60.7875V66.5058L49.5371 66.4436V73.7779C49.5371 78.5949 53.4839 82.5417 58.3009 82.5417H78.6877V85.5252H84.406V76.4505L100.255 76.3884V70.7945L84.406 70.7323V56.561L100.255 56.4988V50.9049ZM78.6877 50.3455V76.9478L58.3009 76.9478C56.7626 76.9478 55.131 75.3162 55.131 73.7779V53.5154C55.131 51.9771 56.7626 50.3455 58.3009 50.3455H78.6877Z" fill="#444444"/>
</g>
<line x1="132" y1="77" x2="132" y2="87" stroke="#444444" stroke-width="6"/>
<line x1="132" y1="56" x2="132" y2="73" stroke="#444444" stroke-width="6"/>
<line x1="132" y1="41" x2="132" y2="51" stroke="#444444" stroke-width="6"/>
<defs>
<clipPath id="clip0">
<rect x="63.6465" width="90.0099" height="90.0099" transform="rotate(45 63.6465 0)" fill="white"/>
</clipPath>
</defs>
</svg>
