<svg width="131" height="131" viewBox="0 0 131 131" fill="none" xmlns="http://www.w3.org/2000/svg">
<g clip-path="url(#clip0)">
<path d="M106.295 69.6996C105.414 70.0404 103.37 71.0907 100.703 72.5306C98.0292 73.974 94.7145 75.8165 91.2828 77.7491C84.521 81.5571 77.3018 85.7167 73.6289 87.8659C72.648 86.4399 70.6621 85.0855 67.6244 84.489C65.5592 83.9948 65.5458 83.9919 63.9728 83.8174C62.7824 83.5751 60.5982 83.2223 55.4377 82.3886C54.3767 82.2172 53.1899 82.0255 51.8601 81.8103C37.9126 79.4662 28.9439 86.9255 17.6615 96.3092L17.4423 96.4915L17.4403 96.4932C15.2416 98.3721 12.9022 100.363 10.4476 102.208L10.4475 102.208L10.4428 102.212C9.48351 102.98 9.33834 104.284 10.105 105.244C10.1054 105.244 10.1058 105.245 10.1062 105.245L22.3948 121.198L22.3947 121.198L22.3971 121.201C22.7714 121.669 23.3111 122.025 23.8999 122.09C24.4887 122.155 25.0933 121.926 25.5611 121.552C25.5807 121.536 25.5971 121.517 25.6094 121.496C25.6098 121.495 25.6101 121.495 25.6106 121.495C25.6215 121.482 25.6398 121.462 25.6669 121.434C25.7203 121.378 25.8002 121.298 25.9045 121.196C26.1127 120.992 26.4136 120.705 26.7847 120.356C27.5266 119.658 28.5466 118.715 29.6613 117.703C31.8905 115.681 34.4905 113.392 36.0047 112.239L36.8581 111.675L36.8583 111.675L36.8676 111.668L36.9144 111.633C38.051 110.782 38.8115 110.213 39.9601 109.931C41.1313 109.644 42.7225 109.653 45.5296 110.031L45.5305 110.031C52.463 110.933 62.3332 111.631 66.7136 111.718C67.0964 111.761 67.3818 111.792 67.8062 111.705C69.712 111.784 71.5845 111.855 73.8209 111.198C76.0665 110.538 78.6638 109.148 82.0401 106.326L82.0406 106.326C87.8906 101.406 108.118 84.1444 111.982 80.4547L111.982 80.4548L111.986 80.4508C114.892 77.5138 114.739 74.0765 113.336 71.8601L113.335 71.8589C111.81 69.4888 109.014 68.6329 106.295 69.6996ZM106.295 69.6996C106.295 69.6996 106.295 69.6995 106.295 69.6994L106.367 69.886L106.294 69.6998C106.294 69.6997 106.295 69.6997 106.295 69.6996ZM109.002 77.0744L109.002 77.0744L108.998 77.0777C105.45 80.3937 86.2535 96.8303 79.2193 102.818C76.4498 105.153 74.4572 106.27 72.7583 106.797C71.1039 107.309 69.7134 107.266 68.1112 107.216L67.9924 107.213C67.6083 107.17 67.3225 107.139 66.8965 107.227C62.5255 107.138 52.9448 106.471 46.164 105.586L46.1639 105.586C42.6912 105.135 40.4692 105.153 38.7244 105.603C36.974 106.055 35.7233 106.937 34.1908 108.164L33.4871 108.727L24.9441 96.0157C33.7574 88.9749 40.9653 84.3292 51.2255 86.1213C59.0129 87.5149 61.8921 87.9681 63.4745 88.1442C64.8939 88.4337 64.9002 88.4348 66.8455 88.7829C68.1868 89.0628 69.0445 89.4509 69.5724 89.8091C70.0741 90.1495 70.2614 90.4505 70.3064 90.5953L70.2988 90.6635C70.2184 90.8571 69.9954 91.1192 69.5685 91.3781C69.1307 91.6436 68.4955 91.895 67.6329 92.0591L67.6329 92.059L67.6284 92.06C64.7825 92.6703 61.1125 93.2232 58.1316 93.6386C57.0264 93.7926 56.017 93.9275 55.1801 94.0394C54.8888 94.0783 54.6184 94.1145 54.3721 94.1477C53.8956 94.2119 53.5085 94.2651 53.2357 94.306C53.0996 94.3264 52.9899 94.3441 52.9111 94.3587C52.8721 94.3659 52.8378 94.3729 52.8105 94.3797C52.8047 94.3811 52.7986 94.3827 52.7923 94.3845C52.7842 94.3867 52.776 94.3892 52.7679 94.392L52.767 94.3923C52.7664 94.3925 52.7657 94.3927 52.7649 94.393C51.5967 94.5659 50.7583 95.6312 50.9181 96.8129C51.0781 97.9955 52.1509 98.8486 53.3419 98.6874C53.347 98.6868 53.352 98.6859 53.357 98.6848C53.3977 98.6761 53.5691 98.6521 53.868 98.6131C54.0818 98.5852 54.3542 98.5504 54.6768 98.5091C54.7955 98.494 54.921 98.4779 55.0529 98.461C56.0329 98.3355 57.3627 98.1637 58.8624 97.9568C61.8606 97.5431 65.5424 96.9886 68.4685 96.3825L68.4685 96.3825L68.4728 96.3815C71.2025 95.7534 73.2623 94.3799 74.1712 92.5717C78.6469 89.9474 86.3331 85.5505 93.2901 81.6484C96.782 79.6898 100.09 77.8562 102.715 76.4342C105.345 75.0092 107.279 74.0043 108.031 73.6962L108.031 73.6966L108.042 73.6914C108.548 73.4478 108.945 73.4993 109.222 73.6271C109.363 73.6925 109.478 73.7797 109.561 73.8643C109.648 73.9519 109.691 74.0267 109.704 74.0605C109.709 74.0738 109.715 74.0864 109.722 74.0983C110.122 74.7291 110.253 75.9601 109.002 77.0744ZM24.3668 116.598L14.889 104.173C15.775 103.411 16.6575 102.676 17.5258 101.954L17.5788 101.91C18.5092 101.135 19.4233 100.374 20.3049 99.6086C20.4481 99.4939 20.5963 99.3624 20.7451 99.2304C20.8255 99.1591 20.9062 99.0875 20.9863 99.0184C21.1741 98.8564 21.3676 98.6995 21.5747 98.5622L30.1372 111.302C29.8632 111.551 29.5872 111.802 29.3111 112.052C27.4764 113.717 25.6389 115.383 24.3668 116.598Z" fill="#0048B3" stroke="#0048B3" stroke-width="0.4" stroke-linejoin="round"/>
<path d="M76.7426 41.6197C75.242 42.5399 73.6115 43 71.8511 43C69.9062 43 68.1291 42.4505 66.5195 41.3516C64.91 40.2438 63.6987 38.7875 62.8855 36.9828H59L60.1066 33.6056H61.9801C61.9466 33.1232 61.9298 32.7569 61.9298 32.5067V32.1851H59.0503L60.1568 28.8079H62.5711C63.2921 26.7888 64.495 25.1493 66.18 23.8896C67.865 22.6299 69.7554 22 71.8511 22C74.1313 22 76.1809 22.7594 78 24.2782L76.7426 28.1244C76.1557 27.3382 75.4348 26.7262 74.5797 26.2884C73.7247 25.8417 72.8151 25.6184 71.8511 25.6184C70.7529 25.6184 69.7302 25.9087 68.7829 26.4895C67.8357 27.0613 67.0728 27.8341 66.4944 28.8079H76.5414L75.4222 32.1851H65.4884V32.5067C65.4884 32.8819 65.5136 33.2482 65.5639 33.6056H74.9444L73.8253 36.9828H67.0351C67.6219 37.7243 68.3344 38.3095 69.1727 38.7384C70.011 39.1583 70.9038 39.3682 71.8511 39.3682C72.8151 39.3682 73.7247 39.1493 74.5797 38.7116C75.4348 38.2738 76.1557 37.6707 76.7426 36.9024V41.6197Z" fill="#0048B3"/>
<path d="M78 49V67" stroke="#0048B3" stroke-width="5" stroke-linecap="round" stroke-linejoin="round"/>
<path d="M61 49V67" stroke="#0048B3" stroke-width="5" stroke-linecap="round" stroke-linejoin="round"/>
<path d="M70 10L107.5 31V37H96V67" stroke="#0048B3" stroke-width="5" stroke-linecap="round" stroke-linejoin="round"/>
<path d="M70 10L31.5 31V37H43V67" stroke="#0048B3" stroke-width="5" stroke-linecap="round" stroke-linejoin="round"/>
<path d="M96 67H102L109.5 71" stroke="#0048B3" stroke-width="5" stroke-linecap="round" stroke-linejoin="round"/>
<path d="M43 67H37L28.5 71V76.5H97" stroke="#0048B3" stroke-width="5" stroke-linecap="round" stroke-linejoin="round"/>
</g>
<defs>
<clipPath id="clip0">
<rect width="131" height="131" fill="white"/>
</clipPath>
</defs>
</svg>
