<svg width="131" height="131" viewBox="0 0 131 131" fill="none" xmlns="http://www.w3.org/2000/svg">
<path d="M65.1934 54C58.7642 54 53.5713 59.1929 53.5713 65.6222C53.5713 72.0514 58.7642 77.2443 65.1934 77.2443C71.6227 77.2443 76.8156 72.0514 76.8156 65.6222C76.8156 59.1929 71.6227 54 65.1934 54ZM65.1934 72.0514C61.6079 72.0514 58.7642 69.2077 58.7642 65.6222C58.7642 62.0366 61.6079 59.1929 65.1934 59.1929C68.779 59.1929 71.6227 62.0366 71.6227 65.6222C71.6227 69.2077 68.779 72.0514 65.1934 72.0514Z" fill="#0048B3"/>
<path d="M37.6222 54C31.1929 54 26 59.1929 26 65.6222C26 72.0514 31.1929 77.2443 37.6222 77.2443C44.0514 77.2443 49.2443 72.0514 49.2443 65.6222C49.2443 59.1929 44.0514 54 37.6222 54ZM37.6222 72.0514C34.0366 72.0514 31.1929 69.2077 31.1929 65.6222C31.1929 62.0366 34.0366 59.1929 37.6222 59.1929C41.2077 59.1929 44.1751 62.0366 44.1751 65.6222C44.1751 69.2077 41.2077 72.0514 37.6222 72.0514Z" fill="#0048B3"/>
<path d="M92.7667 54C86.3374 54 81.1445 59.1929 81.1445 65.6222C81.1445 72.0514 86.3374 77.2443 92.7667 77.2443C99.196 77.2443 104.389 72.0514 104.389 65.6222C104.389 59.1929 99.196 54 92.7667 54ZM92.7667 72.0514C89.1811 72.0514 86.3374 69.2077 86.3374 65.6222C86.3374 62.0366 89.1811 59.1929 92.7667 59.1929C96.3522 59.1929 99.196 62.0366 99.196 65.6222C99.196 69.2077 96.3522 72.0514 92.7667 72.0514Z" fill="#0048B3"/>
</svg>
