<svg width="115" height="115" viewBox="0 0 115 115" fill="none" xmlns="http://www.w3.org/2000/svg">
<mask id="path-1-outside-1" maskUnits="userSpaceOnUse" x="0" y="0" width="115" height="115" fill="black">
<rect fill="white" width="115" height="115"/>
<path d="M56.9378 1C53.46 1 50.6054 3.85819 50.6054 7.33602C50.6054 10.2135 52.5711 12.6387 55.2159 13.3996V21.9349C46.7831 22.3515 39.1464 25.7665 33.2842 31.0993L25.3325 23.2288C25.9415 22.2568 26.3083 21.1209 26.3083 19.8982C26.3083 16.4205 23.4537 13.5622 19.9759 13.5622C16.4981 13.5622 13.64 16.4205 13.64 19.8982C13.64 23.3761 16.4981 26.2307 19.9759 26.2307C20.9223 26.2307 21.8148 26.0075 22.6242 25.6291L30.735 33.6658C25.5134 39.4909 22.171 47.03 21.7473 55.3503H13.4137C12.6709 52.675 10.2329 50.6728 7.33592 50.6728C3.85812 50.6728 1 53.5414 1 57.0192C1 60.497 3.85812 63.355 7.33592 63.355C10.1299 63.355 12.4924 61.4991 13.3253 58.9709H21.7473C22.1679 67.2963 25.5105 74.8371 30.735 80.6622L22.0478 89.2645C21.2206 88.8656 20.3096 88.6248 19.336 88.6248C15.8582 88.6248 13.0001 91.4795 13.0001 94.9572C13.0001 98.4351 15.8582 101.307 19.336 101.307C22.8138 101.307 25.6684 98.4351 25.6684 94.9572C25.6684 93.7633 25.3143 92.6543 24.7314 91.6972L33.2842 83.2294C39.1463 88.5588 46.7835 91.9702 55.2159 92.3867V101.24C52.6533 102.052 50.7645 104.432 50.7645 107.251C50.7645 110.728 53.6191 113.587 57.0969 113.587C60.5747 113.587 63.4329 110.728 63.4329 107.251C63.4329 104.379 61.4736 101.96 58.8365 101.194V92.3831C67.2549 91.9446 74.8717 88.5188 80.7152 83.1834L89.2538 91.6336C88.7053 92.5698 88.3699 93.6428 88.3699 94.7981C88.3699 98.2759 91.2245 101.145 94.7023 101.145C98.1801 101.145 101.038 98.2759 101.038 94.7981C101.038 91.3203 98.1801 88.4621 94.7023 88.4621C93.6941 88.4621 92.7514 88.7262 91.9021 89.1516L83.268 80.6023C88.4587 74.7852 91.7802 67.2681 92.1991 58.9711H101.774C102.696 61.3348 104.988 63.0337 107.664 63.0337C111.142 63.0337 114 60.1755 114 56.6977C114 53.2199 111.142 50.3652 107.664 50.3652C104.65 50.3652 102.109 52.5139 101.484 55.3505H92.1991C91.777 47.056 88.4552 39.5367 83.2644 33.7193L91.9162 25.156C92.72 25.5275 93.6052 25.7498 94.5432 25.7498C98.021 25.7498 100.876 22.8952 100.876 19.4174C100.876 15.9396 98.021 13.0816 94.5432 13.0816C91.0654 13.0816 88.2073 15.9396 88.2073 19.4174C88.2073 20.6448 88.5804 21.7842 89.1937 22.7586L80.7187 31.1488C74.8747 25.8081 67.257 22.3774 58.8365 21.9384V13.3467C61.392 12.5299 63.2737 10.1496 63.2737 7.33602C63.2737 3.85819 60.4156 1.00021 56.9378 1.00021V1ZM56.9378 4.62413C58.4589 4.62413 59.6497 5.81485 59.6497 7.33602C59.6497 8.85712 58.4589 10.0479 56.9378 10.0479C55.4167 10.0479 54.226 8.85712 54.226 7.33602C54.226 5.81485 55.4167 4.62413 56.9378 4.62413ZM94.5432 16.7019C96.0643 16.7019 97.2551 17.8963 97.2551 19.4174C97.2551 20.9385 96.0643 22.1292 94.5432 22.1292C93.0221 22.1292 91.8278 20.9385 91.8278 19.4174C91.8278 17.8963 93.0221 16.7019 94.5432 16.7019ZM19.9759 17.183C21.497 17.183 22.6878 18.3771 22.6878 19.8982C22.6878 21.4193 21.497 22.6101 19.9759 22.6101C18.4548 22.6101 17.2641 21.4193 17.2641 19.8982C17.2641 18.3771 18.4548 17.183 19.9759 17.183ZM56.9767 25.5095C74.4802 25.5095 88.621 39.6643 88.621 57.1679C88.621 74.6714 74.4802 88.8228 56.9767 88.8227C39.4732 88.8227 25.3219 74.6714 25.3219 57.1679C25.3219 39.6643 39.4732 25.5095 56.9767 25.5095ZM42.6113 36.3604C39.1335 36.3604 36.2789 39.2186 36.2789 42.6964C36.2789 46.1742 39.1335 49.0287 42.6113 49.0287C46.0891 49.0287 48.9614 46.1742 48.9614 42.6964C48.9614 39.2186 46.0891 36.3604 42.6113 36.3604V36.3604ZM72.067 36.3604C68.5892 36.3604 65.7169 39.2186 65.7169 42.6964C65.7169 46.1742 68.5892 49.0287 72.067 49.0287C75.5447 49.0287 78.3994 46.1742 78.3994 42.6964C78.3994 39.2186 75.5447 36.3604 72.067 36.3604ZM42.6113 39.981C44.1324 39.981 45.3373 41.1752 45.3373 42.6964C45.3373 44.2175 44.1324 45.4083 42.6113 45.4083C41.0902 45.4083 39.8994 44.2175 39.8994 42.6964C39.8994 41.1752 41.0902 39.981 42.6113 39.981V39.981ZM72.067 39.981C73.5881 39.981 74.7788 41.1752 74.7788 42.6964C74.7788 44.2175 73.5881 45.4083 72.067 45.4083C70.5458 45.4083 69.341 44.2175 69.341 42.6964C69.341 41.1752 70.5458 39.981 72.067 39.981ZM56.9767 48.106C51.9967 48.106 47.9183 52.1878 47.9183 57.1679C47.9183 62.148 51.9967 66.212 56.9767 66.212C61.9568 66.212 66.0245 62.148 66.0245 57.1679C66.0245 52.1878 61.9568 48.106 56.9767 48.106ZM56.9767 51.7264C60.0001 51.7264 62.404 54.1445 62.404 57.1679C62.404 60.1913 60.0001 62.6056 56.9767 62.6056C53.9533 62.6056 51.5389 60.1913 51.5389 57.1679C51.5389 54.1445 53.9533 51.7264 56.9767 51.7264ZM107.664 53.9716C109.185 53.9716 110.376 55.1764 110.376 56.6975C110.376 58.2186 109.185 59.4129 107.664 59.4129C106.143 59.4129 104.952 58.2186 104.952 56.6975C104.952 55.1764 106.143 53.9716 107.664 53.9716ZM7.33592 54.2931C8.85703 54.2931 10.0478 55.4981 10.0478 57.0192C10.0478 58.5403 8.85703 59.7311 7.33592 59.7311C5.81479 59.7311 4.62053 58.5403 4.62053 57.0192C4.62053 55.4981 5.81479 54.2931 7.33592 54.2931ZM42.7739 63.7158C39.2961 63.7158 36.438 66.5703 36.438 70.0481C36.438 73.5258 39.2961 76.3948 42.7739 76.3948C46.2517 76.3948 49.1205 73.5258 49.1205 70.0481C49.1205 66.5703 46.2517 63.7158 42.7739 63.7158ZM72.2791 66.279C68.8013 66.279 65.9467 69.1372 65.9467 72.6151C65.9467 76.0928 68.8013 78.9473 72.2791 78.9473C75.7569 78.9473 78.615 76.0928 78.615 72.6151C78.615 69.1372 75.7569 66.279 72.2791 66.279ZM42.7739 67.3362C44.295 67.3362 45.4999 68.5269 45.4999 70.0481C45.4999 71.5692 44.295 72.7742 42.7739 72.7742C41.2528 72.7742 40.0621 71.5692 40.0621 70.0481C40.0621 68.5269 41.2528 67.3362 42.7739 67.3362ZM72.2791 69.9032C73.8002 69.9032 74.9909 71.0939 74.9909 72.6151C74.9909 74.1362 73.8002 75.327 72.2791 75.327C70.758 75.327 69.5672 74.1362 69.5672 72.6151C69.5672 71.0939 70.758 69.9032 72.2791 69.9032ZM94.7023 92.086C96.2234 92.086 97.4142 93.2767 97.4142 94.7979C97.4142 96.319 96.2234 97.5238 94.7023 97.5238C93.1812 97.5238 91.9905 96.319 91.9905 94.7979C91.9905 93.2767 93.1812 92.086 94.7023 92.086ZM19.336 92.2447C20.8571 92.2447 22.0478 93.4355 22.0478 94.9566C22.0478 96.4777 20.8571 97.6827 19.336 97.6827C17.8149 97.6827 16.6206 96.4777 16.6206 94.9566C16.6206 93.4355 17.8149 92.2447 19.336 92.2447ZM57.0969 104.538C58.618 104.538 59.8123 105.729 59.8123 107.25C59.8123 108.771 58.618 109.976 57.0969 109.976C55.5758 109.976 54.3851 108.771 54.3851 107.25C54.3851 105.729 55.5758 104.538 57.0969 104.538Z"/>
</mask>
<path d="M56.9378 1C53.46 1 50.6054 3.85819 50.6054 7.33602C50.6054 10.2135 52.5711 12.6387 55.2159 13.3996V21.9349C46.7831 22.3515 39.1464 25.7665 33.2842 31.0993L25.3325 23.2288C25.9415 22.2568 26.3083 21.1209 26.3083 19.8982C26.3083 16.4205 23.4537 13.5622 19.9759 13.5622C16.4981 13.5622 13.64 16.4205 13.64 19.8982C13.64 23.3761 16.4981 26.2307 19.9759 26.2307C20.9223 26.2307 21.8148 26.0075 22.6242 25.6291L30.735 33.6658C25.5134 39.4909 22.171 47.03 21.7473 55.3503H13.4137C12.6709 52.675 10.2329 50.6728 7.33592 50.6728C3.85812 50.6728 1 53.5414 1 57.0192C1 60.497 3.85812 63.355 7.33592 63.355C10.1299 63.355 12.4924 61.4991 13.3253 58.9709H21.7473C22.1679 67.2963 25.5105 74.8371 30.735 80.6622L22.0478 89.2645C21.2206 88.8656 20.3096 88.6248 19.336 88.6248C15.8582 88.6248 13.0001 91.4795 13.0001 94.9572C13.0001 98.4351 15.8582 101.307 19.336 101.307C22.8138 101.307 25.6684 98.4351 25.6684 94.9572C25.6684 93.7633 25.3143 92.6543 24.7314 91.6972L33.2842 83.2294C39.1463 88.5588 46.7835 91.9702 55.2159 92.3867V101.24C52.6533 102.052 50.7645 104.432 50.7645 107.251C50.7645 110.728 53.6191 113.587 57.0969 113.587C60.5747 113.587 63.4329 110.728 63.4329 107.251C63.4329 104.379 61.4736 101.96 58.8365 101.194V92.3831C67.2549 91.9446 74.8717 88.5188 80.7152 83.1834L89.2538 91.6336C88.7053 92.5698 88.3699 93.6428 88.3699 94.7981C88.3699 98.2759 91.2245 101.145 94.7023 101.145C98.1801 101.145 101.038 98.2759 101.038 94.7981C101.038 91.3203 98.1801 88.4621 94.7023 88.4621C93.6941 88.4621 92.7514 88.7262 91.9021 89.1516L83.268 80.6023C88.4587 74.7852 91.7802 67.2681 92.1991 58.9711H101.774C102.696 61.3348 104.988 63.0337 107.664 63.0337C111.142 63.0337 114 60.1755 114 56.6977C114 53.2199 111.142 50.3652 107.664 50.3652C104.65 50.3652 102.109 52.5139 101.484 55.3505H92.1991C91.777 47.056 88.4552 39.5367 83.2644 33.7193L91.9162 25.156C92.72 25.5275 93.6052 25.7498 94.5432 25.7498C98.021 25.7498 100.876 22.8952 100.876 19.4174C100.876 15.9396 98.021 13.0816 94.5432 13.0816C91.0654 13.0816 88.2073 15.9396 88.2073 19.4174C88.2073 20.6448 88.5804 21.7842 89.1937 22.7586L80.7187 31.1488C74.8747 25.8081 67.257 22.3774 58.8365 21.9384V13.3467C61.392 12.5299 63.2737 10.1496 63.2737 7.33602C63.2737 3.85819 60.4156 1.00021 56.9378 1.00021V1ZM56.9378 4.62413C58.4589 4.62413 59.6497 5.81485 59.6497 7.33602C59.6497 8.85712 58.4589 10.0479 56.9378 10.0479C55.4167 10.0479 54.226 8.85712 54.226 7.33602C54.226 5.81485 55.4167 4.62413 56.9378 4.62413ZM94.5432 16.7019C96.0643 16.7019 97.2551 17.8963 97.2551 19.4174C97.2551 20.9385 96.0643 22.1292 94.5432 22.1292C93.0221 22.1292 91.8278 20.9385 91.8278 19.4174C91.8278 17.8963 93.0221 16.7019 94.5432 16.7019ZM19.9759 17.183C21.497 17.183 22.6878 18.3771 22.6878 19.8982C22.6878 21.4193 21.497 22.6101 19.9759 22.6101C18.4548 22.6101 17.2641 21.4193 17.2641 19.8982C17.2641 18.3771 18.4548 17.183 19.9759 17.183ZM56.9767 25.5095C74.4802 25.5095 88.621 39.6643 88.621 57.1679C88.621 74.6714 74.4802 88.8228 56.9767 88.8227C39.4732 88.8227 25.3219 74.6714 25.3219 57.1679C25.3219 39.6643 39.4732 25.5095 56.9767 25.5095ZM42.6113 36.3604C39.1335 36.3604 36.2789 39.2186 36.2789 42.6964C36.2789 46.1742 39.1335 49.0287 42.6113 49.0287C46.0891 49.0287 48.9614 46.1742 48.9614 42.6964C48.9614 39.2186 46.0891 36.3604 42.6113 36.3604V36.3604ZM72.067 36.3604C68.5892 36.3604 65.7169 39.2186 65.7169 42.6964C65.7169 46.1742 68.5892 49.0287 72.067 49.0287C75.5447 49.0287 78.3994 46.1742 78.3994 42.6964C78.3994 39.2186 75.5447 36.3604 72.067 36.3604ZM42.6113 39.981C44.1324 39.981 45.3373 41.1752 45.3373 42.6964C45.3373 44.2175 44.1324 45.4083 42.6113 45.4083C41.0902 45.4083 39.8994 44.2175 39.8994 42.6964C39.8994 41.1752 41.0902 39.981 42.6113 39.981V39.981ZM72.067 39.981C73.5881 39.981 74.7788 41.1752 74.7788 42.6964C74.7788 44.2175 73.5881 45.4083 72.067 45.4083C70.5458 45.4083 69.341 44.2175 69.341 42.6964C69.341 41.1752 70.5458 39.981 72.067 39.981ZM56.9767 48.106C51.9967 48.106 47.9183 52.1878 47.9183 57.1679C47.9183 62.148 51.9967 66.212 56.9767 66.212C61.9568 66.212 66.0245 62.148 66.0245 57.1679C66.0245 52.1878 61.9568 48.106 56.9767 48.106ZM56.9767 51.7264C60.0001 51.7264 62.404 54.1445 62.404 57.1679C62.404 60.1913 60.0001 62.6056 56.9767 62.6056C53.9533 62.6056 51.5389 60.1913 51.5389 57.1679C51.5389 54.1445 53.9533 51.7264 56.9767 51.7264ZM107.664 53.9716C109.185 53.9716 110.376 55.1764 110.376 56.6975C110.376 58.2186 109.185 59.4129 107.664 59.4129C106.143 59.4129 104.952 58.2186 104.952 56.6975C104.952 55.1764 106.143 53.9716 107.664 53.9716ZM7.33592 54.2931C8.85703 54.2931 10.0478 55.4981 10.0478 57.0192C10.0478 58.5403 8.85703 59.7311 7.33592 59.7311C5.81479 59.7311 4.62053 58.5403 4.62053 57.0192C4.62053 55.4981 5.81479 54.2931 7.33592 54.2931ZM42.7739 63.7158C39.2961 63.7158 36.438 66.5703 36.438 70.0481C36.438 73.5258 39.2961 76.3948 42.7739 76.3948C46.2517 76.3948 49.1205 73.5258 49.1205 70.0481C49.1205 66.5703 46.2517 63.7158 42.7739 63.7158ZM72.2791 66.279C68.8013 66.279 65.9467 69.1372 65.9467 72.6151C65.9467 76.0928 68.8013 78.9473 72.2791 78.9473C75.7569 78.9473 78.615 76.0928 78.615 72.6151C78.615 69.1372 75.7569 66.279 72.2791 66.279ZM42.7739 67.3362C44.295 67.3362 45.4999 68.5269 45.4999 70.0481C45.4999 71.5692 44.295 72.7742 42.7739 72.7742C41.2528 72.7742 40.0621 71.5692 40.0621 70.0481C40.0621 68.5269 41.2528 67.3362 42.7739 67.3362ZM72.2791 69.9032C73.8002 69.9032 74.9909 71.0939 74.9909 72.6151C74.9909 74.1362 73.8002 75.327 72.2791 75.327C70.758 75.327 69.5672 74.1362 69.5672 72.6151C69.5672 71.0939 70.758 69.9032 72.2791 69.9032ZM94.7023 92.086C96.2234 92.086 97.4142 93.2767 97.4142 94.7979C97.4142 96.319 96.2234 97.5238 94.7023 97.5238C93.1812 97.5238 91.9905 96.319 91.9905 94.7979C91.9905 93.2767 93.1812 92.086 94.7023 92.086ZM19.336 92.2447C20.8571 92.2447 22.0478 93.4355 22.0478 94.9566C22.0478 96.4777 20.8571 97.6827 19.336 97.6827C17.8149 97.6827 16.6206 96.4777 16.6206 94.9566C16.6206 93.4355 17.8149 92.2447 19.336 92.2447ZM57.0969 104.538C58.618 104.538 59.8123 105.729 59.8123 107.25C59.8123 108.771 58.618 109.976 57.0969 109.976C55.5758 109.976 54.3851 108.771 54.3851 107.25C54.3851 105.729 55.5758 104.538 57.0969 104.538Z" fill="#DC3545"/>
<path d="M56.9378 1C53.46 1 50.6054 3.85819 50.6054 7.33602C50.6054 10.2135 52.5711 12.6387 55.2159 13.3996V21.9349C46.7831 22.3515 39.1464 25.7665 33.2842 31.0993L25.3325 23.2288C25.9415 22.2568 26.3083 21.1209 26.3083 19.8982C26.3083 16.4205 23.4537 13.5622 19.9759 13.5622C16.4981 13.5622 13.64 16.4205 13.64 19.8982C13.64 23.3761 16.4981 26.2307 19.9759 26.2307C20.9223 26.2307 21.8148 26.0075 22.6242 25.6291L30.735 33.6658C25.5134 39.4909 22.171 47.03 21.7473 55.3503H13.4137C12.6709 52.675 10.2329 50.6728 7.33592 50.6728C3.85812 50.6728 1 53.5414 1 57.0192C1 60.497 3.85812 63.355 7.33592 63.355C10.1299 63.355 12.4924 61.4991 13.3253 58.9709H21.7473C22.1679 67.2963 25.5105 74.8371 30.735 80.6622L22.0478 89.2645C21.2206 88.8656 20.3096 88.6248 19.336 88.6248C15.8582 88.6248 13.0001 91.4795 13.0001 94.9572C13.0001 98.4351 15.8582 101.307 19.336 101.307C22.8138 101.307 25.6684 98.4351 25.6684 94.9572C25.6684 93.7633 25.3143 92.6543 24.7314 91.6972L33.2842 83.2294C39.1463 88.5588 46.7835 91.9702 55.2159 92.3867V101.24C52.6533 102.052 50.7645 104.432 50.7645 107.251C50.7645 110.728 53.6191 113.587 57.0969 113.587C60.5747 113.587 63.4329 110.728 63.4329 107.251C63.4329 104.379 61.4736 101.96 58.8365 101.194V92.3831C67.2549 91.9446 74.8717 88.5188 80.7152 83.1834L89.2538 91.6336C88.7053 92.5698 88.3699 93.6428 88.3699 94.7981C88.3699 98.2759 91.2245 101.145 94.7023 101.145C98.1801 101.145 101.038 98.2759 101.038 94.7981C101.038 91.3203 98.1801 88.4621 94.7023 88.4621C93.6941 88.4621 92.7514 88.7262 91.9021 89.1516L83.268 80.6023C88.4587 74.7852 91.7802 67.2681 92.1991 58.9711H101.774C102.696 61.3348 104.988 63.0337 107.664 63.0337C111.142 63.0337 114 60.1755 114 56.6977C114 53.2199 111.142 50.3652 107.664 50.3652C104.65 50.3652 102.109 52.5139 101.484 55.3505H92.1991C91.777 47.056 88.4552 39.5367 83.2644 33.7193L91.9162 25.156C92.72 25.5275 93.6052 25.7498 94.5432 25.7498C98.021 25.7498 100.876 22.8952 100.876 19.4174C100.876 15.9396 98.021 13.0816 94.5432 13.0816C91.0654 13.0816 88.2073 15.9396 88.2073 19.4174C88.2073 20.6448 88.5804 21.7842 89.1937 22.7586L80.7187 31.1488C74.8747 25.8081 67.257 22.3774 58.8365 21.9384V13.3467C61.392 12.5299 63.2737 10.1496 63.2737 7.33602C63.2737 3.85819 60.4156 1.00021 56.9378 1.00021V1ZM56.9378 4.62413C58.4589 4.62413 59.6497 5.81485 59.6497 7.33602C59.6497 8.85712 58.4589 10.0479 56.9378 10.0479C55.4167 10.0479 54.226 8.85712 54.226 7.33602C54.226 5.81485 55.4167 4.62413 56.9378 4.62413ZM94.5432 16.7019C96.0643 16.7019 97.2551 17.8963 97.2551 19.4174C97.2551 20.9385 96.0643 22.1292 94.5432 22.1292C93.0221 22.1292 91.8278 20.9385 91.8278 19.4174C91.8278 17.8963 93.0221 16.7019 94.5432 16.7019ZM19.9759 17.183C21.497 17.183 22.6878 18.3771 22.6878 19.8982C22.6878 21.4193 21.497 22.6101 19.9759 22.6101C18.4548 22.6101 17.2641 21.4193 17.2641 19.8982C17.2641 18.3771 18.4548 17.183 19.9759 17.183ZM56.9767 25.5095C74.4802 25.5095 88.621 39.6643 88.621 57.1679C88.621 74.6714 74.4802 88.8228 56.9767 88.8227C39.4732 88.8227 25.3219 74.6714 25.3219 57.1679C25.3219 39.6643 39.4732 25.5095 56.9767 25.5095ZM42.6113 36.3604C39.1335 36.3604 36.2789 39.2186 36.2789 42.6964C36.2789 46.1742 39.1335 49.0287 42.6113 49.0287C46.0891 49.0287 48.9614 46.1742 48.9614 42.6964C48.9614 39.2186 46.0891 36.3604 42.6113 36.3604V36.3604ZM72.067 36.3604C68.5892 36.3604 65.7169 39.2186 65.7169 42.6964C65.7169 46.1742 68.5892 49.0287 72.067 49.0287C75.5447 49.0287 78.3994 46.1742 78.3994 42.6964C78.3994 39.2186 75.5447 36.3604 72.067 36.3604ZM42.6113 39.981C44.1324 39.981 45.3373 41.1752 45.3373 42.6964C45.3373 44.2175 44.1324 45.4083 42.6113 45.4083C41.0902 45.4083 39.8994 44.2175 39.8994 42.6964C39.8994 41.1752 41.0902 39.981 42.6113 39.981V39.981ZM72.067 39.981C73.5881 39.981 74.7788 41.1752 74.7788 42.6964C74.7788 44.2175 73.5881 45.4083 72.067 45.4083C70.5458 45.4083 69.341 44.2175 69.341 42.6964C69.341 41.1752 70.5458 39.981 72.067 39.981ZM56.9767 48.106C51.9967 48.106 47.9183 52.1878 47.9183 57.1679C47.9183 62.148 51.9967 66.212 56.9767 66.212C61.9568 66.212 66.0245 62.148 66.0245 57.1679C66.0245 52.1878 61.9568 48.106 56.9767 48.106ZM56.9767 51.7264C60.0001 51.7264 62.404 54.1445 62.404 57.1679C62.404 60.1913 60.0001 62.6056 56.9767 62.6056C53.9533 62.6056 51.5389 60.1913 51.5389 57.1679C51.5389 54.1445 53.9533 51.7264 56.9767 51.7264ZM107.664 53.9716C109.185 53.9716 110.376 55.1764 110.376 56.6975C110.376 58.2186 109.185 59.4129 107.664 59.4129C106.143 59.4129 104.952 58.2186 104.952 56.6975C104.952 55.1764 106.143 53.9716 107.664 53.9716ZM7.33592 54.2931C8.85703 54.2931 10.0478 55.4981 10.0478 57.0192C10.0478 58.5403 8.85703 59.7311 7.33592 59.7311C5.81479 59.7311 4.62053 58.5403 4.62053 57.0192C4.62053 55.4981 5.81479 54.2931 7.33592 54.2931ZM42.7739 63.7158C39.2961 63.7158 36.438 66.5703 36.438 70.0481C36.438 73.5258 39.2961 76.3948 42.7739 76.3948C46.2517 76.3948 49.1205 73.5258 49.1205 70.0481C49.1205 66.5703 46.2517 63.7158 42.7739 63.7158ZM72.2791 66.279C68.8013 66.279 65.9467 69.1372 65.9467 72.6151C65.9467 76.0928 68.8013 78.9473 72.2791 78.9473C75.7569 78.9473 78.615 76.0928 78.615 72.6151C78.615 69.1372 75.7569 66.279 72.2791 66.279ZM42.7739 67.3362C44.295 67.3362 45.4999 68.5269 45.4999 70.0481C45.4999 71.5692 44.295 72.7742 42.7739 72.7742C41.2528 72.7742 40.0621 71.5692 40.0621 70.0481C40.0621 68.5269 41.2528 67.3362 42.7739 67.3362ZM72.2791 69.9032C73.8002 69.9032 74.9909 71.0939 74.9909 72.6151C74.9909 74.1362 73.8002 75.327 72.2791 75.327C70.758 75.327 69.5672 74.1362 69.5672 72.6151C69.5672 71.0939 70.758 69.9032 72.2791 69.9032ZM94.7023 92.086C96.2234 92.086 97.4142 93.2767 97.4142 94.7979C97.4142 96.319 96.2234 97.5238 94.7023 97.5238C93.1812 97.5238 91.9905 96.319 91.9905 94.7979C91.9905 93.2767 93.1812 92.086 94.7023 92.086ZM19.336 92.2447C20.8571 92.2447 22.0478 93.4355 22.0478 94.9566C22.0478 96.4777 20.8571 97.6827 19.336 97.6827C17.8149 97.6827 16.6206 96.4777 16.6206 94.9566C16.6206 93.4355 17.8149 92.2447 19.336 92.2447ZM57.0969 104.538C58.618 104.538 59.8123 105.729 59.8123 107.25C59.8123 108.771 58.618 109.976 57.0969 109.976C55.5758 109.976 54.3851 108.771 54.3851 107.25C54.3851 105.729 55.5758 104.538 57.0969 104.538Z" stroke="#DC3545" mask="url(#path-1-outside-1)"/>
</svg>
