<svg width="131" height="131" viewBox="0 0 131 131" fill="none" xmlns="http://www.w3.org/2000/svg">
<ellipse cx="61" cy="35.5" rx="15" ry="14.5" stroke="#0048B3" stroke-width="5" stroke-linecap="round" stroke-linejoin="round"/>
<path d="M81 29C79.5 20 70 13 60.5 13C51 13 41.5 20.5 40 29" stroke="#0048B3" stroke-width="4" stroke-linecap="round" stroke-linejoin="round"/>
<rect x="36" y="29" width="8" height="12" stroke="#0048B3" stroke-width="4" stroke-linecap="round" stroke-linejoin="round"/>
<rect x="78" y="29" width="8" height="12" stroke="#0048B3" stroke-width="4" stroke-linecap="round" stroke-linejoin="round"/>
<line x1="40.6399" y1="43.0153" x2="43.0153" y2="48.3601" stroke="#0048B3" stroke-width="4" stroke-linecap="round" stroke-linejoin="round"/>
<path d="M82 60.4468C77.1401 54.6796 69.7615 51 61.5 51C46.8645 51 35 62.5478 35 76.7927V98H60.5" stroke="#0048B3" stroke-width="6" stroke-linecap="round" stroke-linejoin="round"/>
<path d="M113.062 83.25H107.942C107.531 81.9775 107.019 80.74 106.411 79.5494L110.03 75.9301C110.394 75.5668 110.598 75.0741 110.598 74.5603C110.598 74.0466 110.394 73.5538 110.03 73.1905L101.81 64.9697C101.446 64.6065 100.953 64.4024 100.44 64.4024C99.9259 64.4024 99.4332 64.6065 99.0699 64.9697L95.4506 68.5889C94.2604 67.9798 93.0228 67.4679 91.75 67.0583V61.9375C91.75 61.4236 91.5459 60.9308 91.1825 60.5675C90.8192 60.2041 90.3264 60 89.8125 60H78.1875C77.6736 60 77.1808 60.2041 76.8175 60.5675C76.4541 60.9308 76.25 61.4236 76.25 61.9375V67.0583C74.9775 67.4687 73.74 67.9806 72.5494 68.5889L68.9301 64.9697C68.5668 64.6065 68.0741 64.4024 67.5603 64.4024C67.0466 64.4024 66.5538 64.6065 66.1905 64.9697L57.9697 73.1905C57.6065 73.5538 57.4024 74.0466 57.4024 74.5603C57.4024 75.0741 57.6065 75.5668 57.9697 75.9301L61.5909 79.5494C60.9803 80.7392 60.4678 81.9769 60.0583 83.25H54.9375C54.4236 83.25 53.9308 83.4541 53.5675 83.8175C53.2041 84.1808 53 84.6736 53 85.1875V96.8125C53 97.3264 53.2041 97.8192 53.5675 98.1825C53.9308 98.5459 54.4236 98.75 54.9375 98.75H60.0583C60.4687 100.022 60.9806 101.26 61.5889 102.451L57.9697 106.07C57.6065 106.433 57.4024 106.926 57.4024 107.44C57.4024 107.953 57.6065 108.446 57.9697 108.81L66.1905 117.03C66.5538 117.394 67.0466 117.598 67.5603 117.598C68.0741 117.598 68.5668 117.394 68.9301 117.03L72.5494 113.411C73.7396 114.02 74.9772 114.532 76.25 114.942V120.062C76.25 120.576 76.4541 121.069 76.8175 121.433C77.1808 121.796 77.6736 122 78.1875 122H89.8125C90.3264 122 90.8192 121.796 91.1825 121.433C91.5459 121.069 91.75 120.576 91.75 120.062V114.942C93.0225 114.531 94.26 114.019 95.4506 113.411L99.0699 117.03C99.4332 117.394 99.9259 117.598 100.44 117.598C100.953 117.598 101.446 117.394 101.81 117.03L110.03 108.81C110.394 108.446 110.598 107.953 110.598 107.44C110.598 106.926 110.394 106.433 110.03 106.07L106.409 102.451C107.02 101.261 107.532 100.023 107.942 98.75H113.062C113.576 98.75 114.069 98.5459 114.433 98.1825C114.796 97.8192 115 97.3264 115 96.8125V85.1875C115 84.6736 114.796 84.1808 114.433 83.8175C114.069 83.4541 113.576 83.25 113.062 83.25ZM111.125 94.875H106.487C106.057 94.8751 105.64 95.0179 105.3 95.2809C104.961 95.5439 104.718 95.9123 104.611 96.3281C104.115 98.2521 103.352 100.097 102.344 101.809C102.126 102.179 102.037 102.611 102.091 103.037C102.145 103.463 102.339 103.86 102.643 104.163L105.919 107.44L100.44 112.919L97.1614 109.643C96.8565 109.34 96.4602 109.147 96.0341 109.093C95.6081 109.039 95.1762 109.127 94.8054 109.344C93.0951 110.353 91.2512 111.116 89.3281 111.611C88.9123 111.718 88.5439 111.961 88.2809 112.3C88.0179 112.64 87.8751 113.057 87.875 113.487V118.125H80.125V113.487C80.1249 113.057 79.9821 112.64 79.7191 112.3C79.4561 111.961 79.0877 111.718 78.6719 111.611C76.7488 111.116 74.9049 110.353 73.1946 109.344C72.8244 109.126 72.392 109.036 71.9655 109.09C71.539 109.144 71.1425 109.339 70.8386 109.643L67.5603 112.919L62.0811 107.44L65.3574 104.161C65.6615 103.857 65.8558 103.461 65.9098 103.035C65.9639 102.608 65.8745 102.176 65.6558 101.805C64.6468 100.095 63.8837 98.2512 63.3889 96.3281C63.2815 95.9123 63.039 95.5439 62.6996 95.2809C62.3601 95.0179 61.9428 94.8751 61.5134 94.875H56.875V87.125H61.5134C61.9428 87.1249 62.3601 86.9821 62.6996 86.7191C63.039 86.4561 63.2815 86.0877 63.3889 85.6719C63.8847 83.7479 64.6477 81.9029 65.6558 80.1907C65.874 79.8207 65.9631 79.3888 65.9091 78.9626C65.8551 78.5365 65.661 78.1404 65.3574 77.8366L62.0811 74.5603L67.5603 69.0811L70.8386 72.3574C71.1425 72.6615 71.539 72.8558 71.9655 72.9098C72.392 72.9639 72.8244 72.8745 73.1946 72.6558C74.9049 71.6468 76.7488 70.8837 78.6719 70.3889C79.0877 70.2815 79.4561 70.039 79.7191 69.6996C79.9821 69.3601 80.1249 68.9428 80.125 68.5134V63.875H87.875V68.5134C87.8751 68.9428 88.0179 69.3601 88.2809 69.6996C88.5439 70.039 88.9123 70.2815 89.3281 70.3889C91.2512 70.8837 93.0951 71.6468 94.8054 72.6558C95.1756 72.8745 95.608 72.9639 96.0345 72.9098C96.461 72.8558 96.8575 72.6615 97.1614 72.3574L100.44 69.0811L105.919 74.5603L102.643 77.8386C102.339 78.1425 102.144 78.539 102.09 78.9655C102.036 79.392 102.126 79.8244 102.344 80.1946C103.353 81.9049 104.116 83.7488 104.611 85.6719C104.718 86.0877 104.961 86.4561 105.3 86.7191C105.64 86.9821 106.057 87.1249 106.487 87.125H111.125V94.875Z" fill="#0048B3"/>
<path d="M84.0006 72.5H84C80.3411 72.5 76.7643 73.585 73.722 75.6178C70.6796 77.6506 68.3085 80.5399 66.9082 83.9204C65.508 87.3008 65.1417 91.0205 65.8555 94.6092C66.5693 98.1978 68.3313 101.494 70.9185 104.081C73.5058 106.669 76.8022 108.431 80.3908 109.145C83.9795 109.858 87.6992 109.492 91.0796 108.092C94.4601 106.692 97.3494 104.32 99.3822 101.278C101.415 98.2357 102.5 94.6589 102.5 91V90.9994C102.495 86.0948 100.544 81.3925 97.0756 77.9244C93.6075 74.4562 88.9052 72.5054 84.0006 72.5ZM83.9994 104.5C81.3295 104.5 78.7197 103.708 76.4998 102.225C74.2797 100.741 72.5494 98.633 71.5276 96.1662C70.5059 93.6994 70.2385 90.985 70.7594 88.3663C71.2803 85.7475 72.5661 83.3421 74.4541 81.4541C76.3421 79.566 78.7475 78.2803 81.3663 77.7594C83.985 77.2385 86.6994 77.5058 89.1662 78.5276C91.633 79.5494 93.7414 81.2797 95.2248 83.4998C96.7081 85.7197 97.4999 88.3295 97.5 90.9994C97.4954 94.5785 96.0715 98.0098 93.5407 100.541C91.0098 103.072 87.5785 104.495 83.9994 104.5Z" fill="#0048B3" stroke="#0048B3"/>
<path d="M84 81C82.0222 81 80.0888 81.5865 78.4443 82.6853C76.7998 83.7841 75.5181 85.3459 74.7612 87.1732C74.0043 89.0004 73.8063 91.0111 74.1922 92.9509C74.578 94.8907 75.5304 96.6725 76.9289 98.0711C78.3275 99.4696 80.1093 100.422 82.0491 100.808C83.9889 101.194 85.9996 100.996 87.8268 100.239C89.6541 99.4819 91.2159 98.2002 92.3147 96.5557C93.4135 94.9112 94 92.9778 94 91C93.9968 88.3488 92.9422 85.8071 91.0676 83.9324C89.1929 82.0578 86.6512 81.0032 84 81V81ZM84 97C82.8133 97 81.6533 96.6481 80.6666 95.9888C79.6799 95.3295 78.9109 94.3925 78.4567 93.2961C78.0026 92.1997 77.8838 90.9933 78.1153 89.8295C78.3468 88.6656 78.9183 87.5965 79.7574 86.7574C80.5965 85.9182 81.6656 85.3468 82.8295 85.1153C83.9933 84.8838 85.1997 85.0026 86.2961 85.4567C87.3925 85.9109 88.3295 86.6799 88.9888 87.6666C89.6481 88.6533 90 89.8133 90 91C90 92.5913 89.3679 94.1174 88.2426 95.2426C87.1174 96.3679 85.5913 97 84 97Z" fill="#0048B3"/>
</svg>
