<svg width="131" height="131" viewBox="0 0 131 131" fill="none" xmlns="http://www.w3.org/2000/svg">
<path d="M97.5 84H117C119.209 84 121 82.2091 121 80V39C121 36.7909 119.209 35 117 35H48.3468H8C5.79086 35 4 36.7909 4 39V80C4 82.2091 5.79086 84 8 84H80.5" stroke="#0048B3" stroke-width="5" stroke-linecap="round" stroke-linejoin="round"/>
<path d="M73.8761 110.796L84.9101 72.335L113.696 100.126L99.0257 104.057L103 119L92.521 121.808L88.5467 106.865L73.8761 110.796Z" stroke="#0048B3" stroke-width="6" stroke-linejoin="round"/>
<mask id="path-3-outside-1" maskUnits="userSpaceOnUse" x="11.0168" y="44.0039" width="102" height="33" fill="black">
<rect fill="white" x="11.0168" y="44.0039" width="102" height="33"/>
<path d="M12.0168 54.4999C12.0168 54.776 12.2407 54.9999 12.5168 54.9999H14.3688C17.1408 54.9999 18.6528 53.2919 18.6528 50.3659C18.6528 47.4539 17.1408 45.8159 14.3128 45.8159H12.5168C12.2407 45.8159 12.0168 46.0398 12.0168 46.3159V54.4999ZM13.6928 54.0479C13.4167 54.0479 13.1928 53.824 13.1928 53.5479V47.2679C13.1928 46.9918 13.4167 46.7679 13.6928 46.7679H14.2288C16.3848 46.7679 17.4488 48.0559 17.4488 50.3659C17.4488 52.6899 16.3848 54.0479 14.2288 54.0479H13.6928Z"/>
<path d="M20.0151 51.6119C20.0151 53.8379 21.4571 55.1679 23.2771 55.1679C24.0305 55.1679 24.6535 54.9539 25.1766 54.6699C25.3731 54.5633 25.4355 54.316 25.3297 54.119V54.119C25.2118 53.8993 24.933 53.8296 24.7087 53.9385C24.3167 54.1289 23.8938 54.2439 23.4171 54.2439C22.2777 54.2439 21.46 53.5363 21.2172 52.3744C21.1584 52.0932 21.3911 51.8499 21.6785 51.8499H25.3175C25.562 51.8499 25.7703 51.6726 25.7794 51.4284C25.7819 51.3609 25.7831 51.291 25.7831 51.2199C25.7831 49.2739 24.8031 48.0279 23.0671 48.0279C21.5131 48.0279 20.0151 49.3859 20.0151 51.6119ZM21.6887 51.0939C21.3925 51.0939 21.1569 50.8353 21.2358 50.5498C21.5212 49.5167 22.2772 48.9379 23.0951 48.9379C24.0237 48.9379 24.6111 49.5244 24.7455 50.595C24.7799 50.869 24.5513 51.0939 24.2751 51.0939H21.6887Z"/>
<path d="M27.4644 54.4999C27.4644 54.776 27.6883 54.9999 27.9644 54.9999H28.1124C28.3886 54.9999 28.6124 54.776 28.6124 54.4999V50.2638C28.6124 50.1403 28.6576 50.0204 28.7429 49.9311C29.3219 49.325 29.8514 49.0219 30.3204 49.0219C31.1884 49.0219 31.5944 49.5679 31.5944 50.8419V54.4999C31.5944 54.776 31.8183 54.9999 32.0944 54.9999H32.2424C32.5186 54.9999 32.7424 54.776 32.7424 54.4999V50.2638C32.7424 50.1403 32.7877 50.0204 32.8727 49.9309C33.4483 49.3249 33.9554 49.0219 34.4504 49.0219C35.3044 49.0219 35.7104 49.5679 35.7104 50.8419V54.4999C35.7104 54.776 35.9343 54.9999 36.2104 54.9999H36.3584C36.6346 54.9999 36.8584 54.776 36.8584 54.4999V50.6879C36.8584 48.9519 36.1864 48.0279 34.7864 48.0279C34.1908 48.0279 33.6606 48.3046 33.1435 48.7477C32.8567 48.9934 32.3928 48.8889 32.1433 48.6053C31.8183 48.2359 31.3453 48.0279 30.6704 48.0279C29.8627 48.0279 29.1519 48.5266 28.5657 49.1657C28.5598 49.1722 28.5514 49.1759 28.5427 49.1759V49.1759C28.5266 49.1759 28.5132 49.1638 28.5116 49.1478L28.4614 48.6459C28.4359 48.3905 28.2209 48.1959 27.9642 48.1959V48.1959C27.6882 48.1959 27.4644 48.4196 27.4644 48.6956V54.4999Z"/>
<path d="M38.7358 53.2359C38.7358 54.4539 39.5898 55.1679 40.7378 55.1679C41.5752 55.1679 42.3291 54.7227 42.9856 54.1929C42.9897 54.1897 42.9947 54.1879 42.9998 54.1879V54.1879C43.0113 54.1879 43.0209 54.1964 43.0222 54.2078L43.0688 54.5939C43.0968 54.8256 43.2934 54.9999 43.5268 54.9999H43.5698C43.846 54.9999 44.0698 54.776 44.0698 54.4999V50.8279C44.0698 49.1339 43.3698 48.0279 41.7038 48.0279C40.8085 48.0279 40.0073 48.3479 39.4005 48.6869C39.189 48.8051 39.1253 49.0747 39.2467 49.2844V49.2844C39.379 49.513 39.6765 49.5782 39.9067 49.4487C40.3685 49.189 40.917 48.9799 41.5218 48.9799C42.4354 48.9799 42.7949 49.553 42.8924 50.2416C42.9281 50.4939 42.7292 50.7084 42.4767 50.7424C39.8916 51.0902 38.7358 51.8302 38.7358 53.2359ZM39.8698 53.1519C39.8698 52.3592 40.5121 51.8234 42.3616 51.5231C42.6581 51.475 42.9218 51.7087 42.9218 52.009V53.1102C42.9218 53.2525 42.8617 53.389 42.753 53.4809C42.1683 53.9753 41.6608 54.2439 41.0598 54.2439C40.3878 54.2439 39.8698 53.9219 39.8698 53.1519Z"/>
<path d="M46.2359 54.4999C46.2359 54.776 46.4598 54.9999 46.7359 54.9999H46.8839C47.16 54.9999 47.3839 54.776 47.3839 54.4999V50.279C47.3839 50.1464 47.4364 50.0187 47.5315 49.9263C48.1409 49.3345 48.5972 49.0219 49.2459 49.0219C50.1419 49.0219 50.5339 49.5679 50.5339 50.8419V54.4999C50.5339 54.776 50.7578 54.9999 51.0339 54.9999H51.1819C51.4581 54.9999 51.6819 54.776 51.6819 54.4999V50.6879C51.6819 48.9519 51.0379 48.0279 49.6099 48.0279C48.6764 48.0279 47.9787 48.527 47.3373 49.1666C47.3313 49.1725 47.3232 49.1759 47.3147 49.1759V49.1759C47.2984 49.1759 47.2847 49.1635 47.283 49.1472L47.2329 48.6459C47.2074 48.3905 46.9924 48.1959 46.7356 48.1959V48.1959C46.4596 48.1959 46.2359 48.4196 46.2359 48.6956V54.4999Z"/>
<path d="M53.4022 51.6119C53.4022 53.8799 54.5082 55.1679 56.2162 55.1679C57.0094 55.1679 57.7335 54.7252 58.2647 54.2111C58.2708 54.2052 58.2789 54.2019 58.2874 54.2019V54.2019C58.3038 54.2019 58.3177 54.2142 58.3197 54.2305L58.3652 54.6009C58.3931 54.8287 58.5866 54.9999 58.8162 54.9999H58.8662C59.1423 54.9999 59.3662 54.776 59.3662 54.4999V45.5319C59.3662 45.2558 59.1423 45.0319 58.8662 45.0319H58.7042C58.428 45.0319 58.2042 45.2558 58.2042 45.5319V47.6499L58.2062 47.6927C58.227 48.1248 57.7184 48.3773 57.3189 48.2114C57.0324 48.0924 56.7235 48.0279 56.3562 48.0279C54.8022 48.0279 53.4022 49.3999 53.4022 51.6119ZM54.5922 51.5979C54.5922 50.0439 55.4602 48.9939 56.5522 48.9939C57.0567 48.9939 57.5272 49.153 58.0352 49.5634C58.1453 49.6523 58.2042 49.7887 58.2042 49.9302V53.0738C58.2042 53.1963 58.1599 53.3154 58.0751 53.4037C57.5596 53.9395 57.0497 54.2019 56.4682 54.2019C55.2782 54.2019 54.5922 53.2219 54.5922 51.5979Z"/>
<path d="M61.1538 51.6119C61.1538 53.8379 62.5958 55.1679 64.4158 55.1679C65.1691 55.1679 65.7922 54.9539 66.3153 54.6699C66.5118 54.5633 66.5742 54.316 66.4684 54.119V54.119C66.3504 53.8993 66.0717 53.8296 65.8474 53.9385C65.4554 54.1289 65.0324 54.2439 64.5558 54.2439C63.4164 54.2439 62.5987 53.5363 62.3559 52.3744C62.2971 52.0932 62.5298 51.8499 62.8172 51.8499H66.4562C66.7006 51.8499 66.909 51.6726 66.918 51.4284C66.9205 51.3609 66.9218 51.291 66.9218 51.2199C66.9218 49.2739 65.9418 48.0279 64.2058 48.0279C62.6518 48.0279 61.1538 49.3859 61.1538 51.6119ZM62.8274 51.0939C62.5312 51.0939 62.2955 50.8353 62.3744 50.5498C62.6599 49.5167 63.4158 48.9379 64.2338 48.9379C65.1624 48.9379 65.7497 49.5244 65.8842 50.595C65.9186 50.869 65.6899 51.0939 65.4138 51.0939H62.8274Z"/>
<path d="M70.9432 51.6119C70.9432 53.8799 72.0492 55.1679 73.7572 55.1679C74.5505 55.1679 75.2746 54.7252 75.8057 54.2111C75.8118 54.2052 75.8199 54.2019 75.8284 54.2019V54.2019C75.8448 54.2019 75.8587 54.2142 75.8607 54.2305L75.9062 54.6009C75.9342 54.8287 76.1276 54.9999 76.3572 54.9999H76.4072C76.6833 54.9999 76.9072 54.776 76.9072 54.4999V45.5319C76.9072 45.2558 76.6833 45.0319 76.4072 45.0319H76.2452C75.969 45.0319 75.7452 45.2558 75.7452 45.5319V47.6499L75.7472 47.6927C75.7681 48.1248 75.2594 48.3773 74.8599 48.2114C74.5734 48.0924 74.2645 48.0279 73.8972 48.0279C72.3432 48.0279 70.9432 49.3999 70.9432 51.6119ZM72.1332 51.5979C72.1332 50.0439 73.0012 48.9939 74.0932 48.9939C74.5977 48.9939 75.0682 49.153 75.5762 49.5634C75.6863 49.6523 75.7452 49.7887 75.7452 49.9302V53.0738C75.7452 53.1963 75.701 53.3154 75.6161 53.4037C75.1006 53.9395 74.5907 54.2019 74.0092 54.2019C72.8192 54.2019 72.1332 53.2219 72.1332 51.5979Z"/>
<path d="M79.0922 48.6972C79.1825 48.8464 79.3767 48.8971 79.5204 48.7983C80.3178 48.2501 80.7528 47.5006 80.7528 46.4879C80.7528 45.6759 80.4168 45.2139 79.8708 45.2139C79.4368 45.2139 79.1288 45.5079 79.1288 45.9979C79.1288 46.4459 79.4788 46.6979 79.8708 46.6979V46.6979C79.9266 46.6979 79.9828 46.7418 79.9804 46.7976C79.9529 47.4415 79.6874 47.8673 79.1837 48.2557C79.0476 48.3606 79.0032 48.5502 79.0922 48.6972V48.6972Z"/>
<path d="M81.8706 53.2359C81.8706 54.4539 82.7246 55.1679 83.8726 55.1679C84.71 55.1679 85.4639 54.7227 86.1204 54.1929C86.1244 54.1897 86.1294 54.1879 86.1346 54.1879V54.1879C86.146 54.1879 86.1556 54.1964 86.157 54.2078L86.2036 54.5939C86.2316 54.8256 86.4282 54.9999 86.6616 54.9999H86.7046C86.9808 54.9999 87.2046 54.776 87.2046 54.4999V50.8279C87.2046 49.1339 86.5046 48.0279 84.8386 48.0279C83.9433 48.0279 83.142 48.3479 82.5352 48.6869C82.3238 48.8051 82.26 49.0747 82.3814 49.2844V49.2844C82.5137 49.513 82.8113 49.5782 83.0415 49.4487C83.5032 49.189 84.0518 48.9799 84.6566 48.9799C85.5702 48.9799 85.9297 49.553 86.0272 50.2416C86.0629 50.4939 85.864 50.7084 85.6115 50.7424C83.0263 51.0902 81.8706 51.8302 81.8706 53.2359ZM83.0046 53.1519C83.0046 52.3592 83.6468 51.8234 85.4964 51.5231C85.7928 51.475 86.0566 51.7087 86.0566 52.009V53.1102C86.0566 53.2525 85.9965 53.389 85.8878 53.4809C85.303 53.9753 84.7955 54.2439 84.1946 54.2439C83.5226 54.2439 83.0046 53.9219 83.0046 53.1519Z"/>
<path d="M88.8667 51.6119C88.8667 53.8659 90.2527 55.1679 92.0587 55.1679C92.7388 55.1679 93.3992 54.9322 93.9578 54.5348C94.144 54.4024 94.1737 54.1444 94.0446 53.9559V53.9559C93.8899 53.7302 93.5735 53.6958 93.3431 53.8435C93.0043 54.0604 92.6041 54.2159 92.1567 54.2159C90.9107 54.2159 90.0567 53.1659 90.0567 51.6119C90.0567 50.0439 90.9527 48.9799 92.1847 48.9799C92.5542 48.9799 92.866 49.0953 93.1549 49.2785C93.3862 49.4251 93.6974 49.4 93.865 49.1833V49.1833C94.0157 48.9886 93.9962 48.7073 93.797 48.5626C93.3758 48.2567 92.8397 48.0279 92.1427 48.0279C90.3927 48.0279 88.8667 49.3299 88.8667 51.6119Z"/>
<path d="M94.9507 51.6119C94.9507 53.8659 96.3367 55.1679 98.1427 55.1679C98.8228 55.1679 99.4832 54.9322 100.042 54.5348C100.228 54.4024 100.258 54.1444 100.129 53.9559V53.9559C99.9739 53.7302 99.6575 53.6958 99.427 53.8435C99.0883 54.0604 98.6881 54.2159 98.2407 54.2159C96.9947 54.2159 96.1407 53.1659 96.1407 51.6119C96.1407 50.0439 97.0367 48.9799 98.2687 48.9799C98.6382 48.9799 98.95 49.0953 99.2389 49.2785C99.4702 49.4251 99.7814 49.4 99.949 49.1833V49.1833C100.1 48.9886 100.08 48.7073 99.881 48.5626C99.4597 48.2567 98.9237 48.0279 98.2267 48.0279C96.4767 48.0279 94.9507 49.3299 94.9507 51.6119Z"/>
<path d="M101.035 51.6119C101.035 53.8379 102.477 55.1679 104.297 55.1679C105.05 55.1679 105.673 54.9539 106.196 54.6699C106.393 54.5633 106.455 54.316 106.349 54.119V54.119C106.231 53.8993 105.953 53.8296 105.728 53.9385C105.336 54.1289 104.913 54.2439 104.437 54.2439C103.297 54.2439 102.48 53.5363 102.237 52.3744C102.178 52.0932 102.411 51.8499 102.698 51.8499H106.337C106.581 51.8499 106.79 51.6726 106.799 51.4284C106.801 51.3609 106.803 51.291 106.803 51.2199C106.803 49.2739 105.823 48.0279 104.087 48.0279C102.533 48.0279 101.035 49.3859 101.035 51.6119ZM102.708 51.0939C102.412 51.0939 102.176 50.8353 102.255 50.5498C102.541 49.5167 103.297 48.9379 104.115 48.9379C105.043 48.9379 105.631 49.5244 105.765 50.595C105.799 50.869 105.571 51.0939 105.295 51.0939H102.708ZM103.999 46.8318C104.072 46.9241 104.183 46.9779 104.301 46.9779V46.9779C104.607 46.9779 104.792 46.639 104.626 46.3818L103.871 45.2121C103.787 45.0823 103.643 45.0039 103.489 45.0039V45.0039C103.108 45.0039 102.896 45.4436 103.133 45.7417L103.999 46.8318Z"/>
<path d="M108.002 53.8622C107.849 54.0682 107.882 54.3609 108.098 54.5008C108.703 54.8937 109.468 55.1679 110.262 55.1679C111.872 55.1679 112.754 54.2439 112.754 53.1379C112.754 51.8499 111.662 51.4439 110.682 51.0799C109.912 50.7859 109.17 50.5339 109.17 49.9039C109.17 49.3859 109.562 48.9239 110.416 48.9239C110.854 48.9239 111.233 49.0576 111.585 49.2654C111.806 49.3957 112.095 49.3592 112.249 49.1541V49.1541C112.398 48.9553 112.364 48.6712 112.153 48.5403C111.675 48.244 111.073 48.0279 110.402 48.0279C108.932 48.0279 108.064 48.8679 108.064 49.9599C108.064 51.1079 109.128 51.5699 110.094 51.9199C110.836 52.1999 111.648 52.5079 111.648 53.2079C111.648 53.7959 111.2 54.2719 110.304 54.2719C109.675 54.2719 109.173 54.0706 108.705 53.7588C108.477 53.6069 108.166 53.6427 108.002 53.8622V53.8622Z"/>
<path d="M31.9998 73.4372C31.9899 73.0157 32.4842 72.7646 32.8687 72.9372C33.2008 73.0862 33.5329 73.1679 33.865 73.1679C35.419 73.1679 36.805 71.8099 36.805 69.4999C36.805 67.3859 35.867 66.0279 34.117 66.0279C33.3231 66.0279 32.5707 66.4575 31.9564 66.972C31.9504 66.9771 31.9427 66.9799 31.9348 66.9799V66.9799C31.9178 66.9799 31.9035 66.9673 31.9014 66.9504L31.856 66.5879C31.8281 66.364 31.6377 66.1959 31.412 66.1959H31.355C31.0789 66.1959 30.855 66.4198 30.855 66.6959V75.3699C30.855 75.6461 31.0789 75.8699 31.355 75.8699H31.503C31.7792 75.8699 32.003 75.646 32.003 75.3699V73.5739L31.9998 73.4372ZM32.1856 71.6325C32.0672 71.5444 32.003 71.4027 32.003 71.2551V68.1413C32.003 67.9991 32.063 67.8628 32.1716 67.7711C32.7722 67.2637 33.2976 66.9939 33.823 66.9939C35.111 66.9939 35.615 68.0019 35.615 69.4999C35.615 71.1799 34.789 72.2019 33.669 72.2019C33.2654 72.2019 32.7368 72.0428 32.1856 71.6325Z"/>
<path d="M38.0933 71.2359C38.0933 72.4539 38.9473 73.1679 40.0953 73.1679C40.9326 73.1679 41.6865 72.7227 42.3431 72.1929C42.3471 72.1897 42.3521 72.1879 42.3573 72.1879V72.1879C42.3687 72.1879 42.3783 72.1964 42.3797 72.2078L42.4263 72.5939C42.4542 72.8256 42.6508 72.9999 42.8842 72.9999H42.9273C43.2034 72.9999 43.4273 72.776 43.4273 72.4999V68.8279C43.4273 67.1339 42.7273 66.0279 41.0613 66.0279C40.1659 66.0279 39.3647 66.3479 38.7579 66.6869C38.5464 66.8051 38.4827 67.0747 38.6041 67.2844V67.2844C38.7364 67.513 39.0339 67.5782 39.2641 67.4487C39.7259 67.189 40.2744 66.9799 40.8793 66.9799C41.7928 66.9799 42.1524 67.553 42.2498 68.2416C42.2855 68.4939 42.0866 68.7084 41.8341 68.7424C39.249 69.0902 38.0933 69.8302 38.0933 71.2359ZM39.2273 71.1519C39.2273 70.3592 39.8695 69.8234 41.7191 69.5231C42.0155 69.475 42.2793 69.7087 42.2793 70.009V71.1102C42.2793 71.2525 42.2191 71.389 42.1104 71.4809C41.5257 71.9753 41.0182 72.2439 40.4173 72.2439C39.7453 72.2439 39.2273 71.9219 39.2273 71.1519Z"/>
<path d="M45.5933 72.4999C45.5933 72.776 45.8172 72.9999 46.0933 72.9999H46.2413C46.5175 72.9999 46.7413 72.776 46.7413 72.4999V68.7287C46.7413 68.6648 46.7534 68.6011 46.7785 68.5422C47.2396 67.462 47.9045 67.0639 48.4633 67.0639C48.5086 67.0639 48.5506 67.065 48.5901 67.0671C48.8824 67.083 49.1758 66.9306 49.2393 66.6449L49.2561 66.5695C49.3079 66.3362 49.1881 66.0886 48.952 66.0514C48.8505 66.0354 48.7414 66.0279 48.6173 66.0279C47.8517 66.0279 47.1553 66.5677 46.6932 67.4134C46.6884 67.4223 46.679 67.4279 46.6689 67.4279V67.4279C46.6544 67.4279 46.6424 67.4168 46.6413 67.4025L46.5816 66.6516C46.5611 66.3943 46.3463 66.1959 46.0882 66.1959V66.1959C45.8149 66.1959 45.5933 66.4175 45.5933 66.6908V72.4999Z"/>
<path d="M52.7729 69.6119C52.7729 71.8379 54.2149 73.1679 56.0349 73.1679C56.7883 73.1679 57.4113 72.9539 57.9344 72.6699C58.1309 72.5633 58.1933 72.316 58.0876 72.119V72.119C57.9696 71.8993 57.6908 71.8296 57.4665 71.9385C57.0745 72.1289 56.6516 72.2439 56.1749 72.2439C55.0355 72.2439 54.2178 71.5363 53.975 70.3744C53.9162 70.0932 54.149 69.8499 54.4363 69.8499H58.0754C58.3198 69.8499 58.5281 69.6726 58.5372 69.4284C58.5397 69.3609 58.5409 69.291 58.5409 69.2199C58.5409 67.2739 57.5609 66.0279 55.8249 66.0279C54.2709 66.0279 52.7729 67.3859 52.7729 69.6119ZM54.4465 69.0939C54.1503 69.0939 53.9147 68.8353 53.9936 68.5498C54.279 67.5167 55.035 66.9379 55.8529 66.9379C56.7815 66.9379 57.3689 67.5244 57.5033 68.595C57.5378 68.869 57.3091 69.0939 57.0329 69.0939H54.4465ZM56.789 63.74C57.0266 63.4435 56.8156 63.0039 56.4356 63.0039V63.0039C56.2818 63.0039 56.1385 63.082 56.0551 63.2112L55.294 64.3905C55.1305 64.6439 55.3124 64.9779 55.6141 64.9779V64.9779C55.7297 64.9779 55.839 64.9254 55.9113 64.8352L56.789 63.74Z"/>
<path d="M59.7322 69.6119C59.7322 71.8799 60.8382 73.1679 62.5462 73.1679C63.3395 73.1679 64.0636 72.7252 64.5948 72.2111C64.6009 72.2052 64.609 72.2019 64.6175 72.2019V72.2019C64.6339 72.2019 64.6477 72.2142 64.6497 72.2305L64.6952 72.6009C64.7232 72.8287 64.9167 72.9999 65.1462 72.9999H65.1962C65.4724 72.9999 65.6962 72.776 65.6962 72.4999V63.5319C65.6962 63.2558 65.4724 63.0319 65.1962 63.0319H65.0342C64.7581 63.0319 64.5342 63.2558 64.5342 63.5319V65.6499L64.5363 65.6927C64.5571 66.1248 64.0485 66.3773 63.649 66.2114C63.3625 66.0924 63.0535 66.0279 62.6862 66.0279C61.1322 66.0279 59.7322 67.3999 59.7322 69.6119ZM60.9222 69.5979C60.9222 68.0439 61.7902 66.9939 62.8822 66.9939C63.3868 66.9939 63.8572 67.153 64.3653 67.5634C64.4754 67.6523 64.5342 67.7887 64.5342 67.9302V71.0738C64.5342 71.1963 64.49 71.3154 64.4051 71.4037C63.8897 71.9395 63.3797 72.2019 62.7982 72.2019C61.6082 72.2019 60.9222 71.2219 60.9222 69.5979Z"/>
<path d="M68.5759 64.7959C69.0239 64.7959 69.3739 64.4879 69.3739 64.0539C69.3739 63.6059 69.0239 63.3119 68.5759 63.3119C68.1279 63.3119 67.7779 63.6059 67.7779 64.0539C67.7779 64.4879 68.1279 64.7959 68.5759 64.7959ZM67.9879 72.4999C67.9879 72.776 68.2117 72.9999 68.4879 72.9999H68.6359C68.912 72.9999 69.1359 72.776 69.1359 72.4999V66.6959C69.1359 66.4198 68.912 66.1959 68.6359 66.1959H68.4879C68.2117 66.1959 67.9879 66.4198 67.9879 66.6959V72.4999Z"/>
<path d="M71.6292 70.8999C71.6292 72.2439 72.1192 73.1679 73.5752 73.1679C73.8585 73.1679 74.161 73.1106 74.4439 73.0345C74.6663 72.9748 74.7905 72.7429 74.733 72.5199V72.5199C74.6679 72.2678 74.3998 72.1346 74.1456 72.1911C74.0395 72.2147 73.9349 72.2299 73.8412 72.2299C73.0572 72.2299 72.7912 71.7539 72.7912 70.9139V67.6339C72.7912 67.3578 73.015 67.1339 73.2912 67.1339H74.1562C74.4152 67.1339 74.6252 66.9239 74.6252 66.6649V66.6649C74.6252 66.4059 74.4152 66.1959 74.1562 66.1959H73.2912C73.015 66.1959 72.7912 65.972 72.7912 65.6959V64.7919C72.7912 64.5158 72.5666 64.2919 72.2904 64.2919V64.2919C72.0285 64.2919 71.8103 64.494 71.7911 64.7552L71.7171 65.7622C71.6988 66.0109 71.5001 66.2081 71.2512 66.2245L71.04 66.2384C70.8044 66.2539 70.6212 66.4495 70.6212 66.6856V66.6856C70.6212 66.9332 70.8219 67.1339 71.0694 67.1339H71.1292C71.4053 67.1339 71.6292 67.3578 71.6292 67.6339V70.8999Z"/>
<path d="M75.5229 69.6119C75.5229 71.8379 76.9649 73.1679 78.7849 73.1679C79.5383 73.1679 80.1613 72.9539 80.6844 72.6699C80.8809 72.5633 80.9433 72.316 80.8376 72.119V72.119C80.7196 71.8993 80.4408 71.8296 80.2165 71.9385C79.8245 72.1289 79.4016 72.2439 78.9249 72.2439C77.7856 72.2439 76.9678 71.5363 76.725 70.3744C76.6662 70.0932 76.899 69.8499 77.1863 69.8499H80.8254C81.0698 69.8499 81.2781 69.6726 81.2872 69.4284C81.2897 69.3609 81.2909 69.291 81.2909 69.2199C81.2909 67.2739 80.3109 66.0279 78.5749 66.0279C77.0209 66.0279 75.5229 67.3859 75.5229 69.6119ZM77.1965 69.0939C76.9003 69.0939 76.6647 68.8353 76.7436 68.5498C77.029 67.5167 77.785 66.9379 78.6029 66.9379C79.5315 66.9379 80.1189 67.5244 80.2533 68.595C80.2877 68.869 80.0591 69.0939 79.7829 69.0939H77.1965Z"/>
<path d="M82.8742 70.5079C82.8742 72.2439 83.5182 73.1679 84.9602 73.1679C85.8937 73.1679 86.5637 72.6827 87.191 71.9467C87.1968 71.9399 87.2054 71.9359 87.2144 71.9359V71.9359C87.2302 71.9359 87.2433 71.9479 87.2448 71.9637L87.2986 72.5477C87.3222 72.8039 87.5371 72.9999 87.7944 72.9999V72.9999C88.0693 72.9999 88.2922 72.777 88.2922 72.502V66.6959C88.2922 66.4198 88.0684 66.1959 87.7922 66.1959H87.6442C87.3681 66.1959 87.1442 66.4198 87.1442 66.6959V70.8493C87.1442 70.9636 87.1055 71.0749 87.0319 71.1623C86.4418 71.8639 85.969 72.1739 85.3102 72.1739C84.4142 72.1739 84.0362 71.6279 84.0362 70.3539V66.6959C84.0362 66.4198 83.8124 66.1959 83.5362 66.1959H83.3742C83.0981 66.1959 82.8742 66.4198 82.8742 66.6959V70.5079Z"/>
<path d="M90.5875 72.4999C90.5875 72.776 90.8113 72.9999 91.0875 72.9999H91.2355C91.5116 72.9999 91.7355 72.776 91.7355 72.4999V68.7287C91.7355 68.6648 91.7475 68.6011 91.7726 68.5422C92.2337 67.462 92.8987 67.0639 93.4575 67.0639C93.5027 67.0639 93.5447 67.065 93.5842 67.0671C93.8765 67.0829 94.17 66.9306 94.2335 66.6449L94.2502 66.5695C94.3021 66.3362 94.1822 66.0886 93.9461 66.0514C93.8446 66.0354 93.7355 66.0279 93.6115 66.0279C92.8458 66.0279 92.1494 66.5677 91.6874 67.4134C91.6825 67.4223 91.6732 67.4279 91.663 67.4279V67.4279C91.6486 67.4279 91.6366 67.4168 91.6354 67.4025L91.5757 66.6516C91.5553 66.3943 91.3405 66.1959 91.0824 66.1959V66.1959C90.809 66.1959 90.5875 66.4175 90.5875 66.6908V72.4999Z"/>
</mask>
<path d="M12.0168 54.4999C12.0168 54.776 12.2407 54.9999 12.5168 54.9999H14.3688C17.1408 54.9999 18.6528 53.2919 18.6528 50.3659C18.6528 47.4539 17.1408 45.8159 14.3128 45.8159H12.5168C12.2407 45.8159 12.0168 46.0398 12.0168 46.3159V54.4999ZM13.6928 54.0479C13.4167 54.0479 13.1928 53.824 13.1928 53.5479V47.2679C13.1928 46.9918 13.4167 46.7679 13.6928 46.7679H14.2288C16.3848 46.7679 17.4488 48.0559 17.4488 50.3659C17.4488 52.6899 16.3848 54.0479 14.2288 54.0479H13.6928Z" fill="#0048B3"/>
<path d="M20.0151 51.6119C20.0151 53.8379 21.4571 55.1679 23.2771 55.1679C24.0305 55.1679 24.6535 54.9539 25.1766 54.6699C25.3731 54.5633 25.4355 54.316 25.3297 54.119V54.119C25.2118 53.8993 24.933 53.8296 24.7087 53.9385C24.3167 54.1289 23.8938 54.2439 23.4171 54.2439C22.2777 54.2439 21.46 53.5363 21.2172 52.3744C21.1584 52.0932 21.3911 51.8499 21.6785 51.8499H25.3175C25.562 51.8499 25.7703 51.6726 25.7794 51.4284C25.7819 51.3609 25.7831 51.291 25.7831 51.2199C25.7831 49.2739 24.8031 48.0279 23.0671 48.0279C21.5131 48.0279 20.0151 49.3859 20.0151 51.6119ZM21.6887 51.0939C21.3925 51.0939 21.1569 50.8353 21.2358 50.5498C21.5212 49.5167 22.2772 48.9379 23.0951 48.9379C24.0237 48.9379 24.6111 49.5244 24.7455 50.595C24.7799 50.869 24.5513 51.0939 24.2751 51.0939H21.6887Z" fill="#0048B3"/>
<path d="M27.4644 54.4999C27.4644 54.776 27.6883 54.9999 27.9644 54.9999H28.1124C28.3886 54.9999 28.6124 54.776 28.6124 54.4999V50.2638C28.6124 50.1403 28.6576 50.0204 28.7429 49.9311C29.3219 49.325 29.8514 49.0219 30.3204 49.0219C31.1884 49.0219 31.5944 49.5679 31.5944 50.8419V54.4999C31.5944 54.776 31.8183 54.9999 32.0944 54.9999H32.2424C32.5186 54.9999 32.7424 54.776 32.7424 54.4999V50.2638C32.7424 50.1403 32.7877 50.0204 32.8727 49.9309C33.4483 49.3249 33.9554 49.0219 34.4504 49.0219C35.3044 49.0219 35.7104 49.5679 35.7104 50.8419V54.4999C35.7104 54.776 35.9343 54.9999 36.2104 54.9999H36.3584C36.6346 54.9999 36.8584 54.776 36.8584 54.4999V50.6879C36.8584 48.9519 36.1864 48.0279 34.7864 48.0279C34.1908 48.0279 33.6606 48.3046 33.1435 48.7477C32.8567 48.9934 32.3928 48.8889 32.1433 48.6053C31.8183 48.2359 31.3453 48.0279 30.6704 48.0279C29.8627 48.0279 29.1519 48.5266 28.5657 49.1657C28.5598 49.1722 28.5514 49.1759 28.5427 49.1759V49.1759C28.5266 49.1759 28.5132 49.1638 28.5116 49.1478L28.4614 48.6459C28.4359 48.3905 28.2209 48.1959 27.9642 48.1959V48.1959C27.6882 48.1959 27.4644 48.4196 27.4644 48.6956V54.4999Z" fill="#0048B3"/>
<path d="M38.7358 53.2359C38.7358 54.4539 39.5898 55.1679 40.7378 55.1679C41.5752 55.1679 42.3291 54.7227 42.9856 54.1929C42.9897 54.1897 42.9947 54.1879 42.9998 54.1879V54.1879C43.0113 54.1879 43.0209 54.1964 43.0222 54.2078L43.0688 54.5939C43.0968 54.8256 43.2934 54.9999 43.5268 54.9999H43.5698C43.846 54.9999 44.0698 54.776 44.0698 54.4999V50.8279C44.0698 49.1339 43.3698 48.0279 41.7038 48.0279C40.8085 48.0279 40.0073 48.3479 39.4005 48.6869C39.189 48.8051 39.1253 49.0747 39.2467 49.2844V49.2844C39.379 49.513 39.6765 49.5782 39.9067 49.4487C40.3685 49.189 40.917 48.9799 41.5218 48.9799C42.4354 48.9799 42.7949 49.553 42.8924 50.2416C42.9281 50.4939 42.7292 50.7084 42.4767 50.7424C39.8916 51.0902 38.7358 51.8302 38.7358 53.2359ZM39.8698 53.1519C39.8698 52.3592 40.5121 51.8234 42.3616 51.5231C42.6581 51.475 42.9218 51.7087 42.9218 52.009V53.1102C42.9218 53.2525 42.8617 53.389 42.753 53.4809C42.1683 53.9753 41.6608 54.2439 41.0598 54.2439C40.3878 54.2439 39.8698 53.9219 39.8698 53.1519Z" fill="#0048B3"/>
<path d="M46.2359 54.4999C46.2359 54.776 46.4598 54.9999 46.7359 54.9999H46.8839C47.16 54.9999 47.3839 54.776 47.3839 54.4999V50.279C47.3839 50.1464 47.4364 50.0187 47.5315 49.9263C48.1409 49.3345 48.5972 49.0219 49.2459 49.0219C50.1419 49.0219 50.5339 49.5679 50.5339 50.8419V54.4999C50.5339 54.776 50.7578 54.9999 51.0339 54.9999H51.1819C51.4581 54.9999 51.6819 54.776 51.6819 54.4999V50.6879C51.6819 48.9519 51.0379 48.0279 49.6099 48.0279C48.6764 48.0279 47.9787 48.527 47.3373 49.1666C47.3313 49.1725 47.3232 49.1759 47.3147 49.1759V49.1759C47.2984 49.1759 47.2847 49.1635 47.283 49.1472L47.2329 48.6459C47.2074 48.3905 46.9924 48.1959 46.7356 48.1959V48.1959C46.4596 48.1959 46.2359 48.4196 46.2359 48.6956V54.4999Z" fill="#0048B3"/>
<path d="M53.4022 51.6119C53.4022 53.8799 54.5082 55.1679 56.2162 55.1679C57.0094 55.1679 57.7335 54.7252 58.2647 54.2111C58.2708 54.2052 58.2789 54.2019 58.2874 54.2019V54.2019C58.3038 54.2019 58.3177 54.2142 58.3197 54.2305L58.3652 54.6009C58.3931 54.8287 58.5866 54.9999 58.8162 54.9999H58.8662C59.1423 54.9999 59.3662 54.776 59.3662 54.4999V45.5319C59.3662 45.2558 59.1423 45.0319 58.8662 45.0319H58.7042C58.428 45.0319 58.2042 45.2558 58.2042 45.5319V47.6499L58.2062 47.6927C58.227 48.1248 57.7184 48.3773 57.3189 48.2114C57.0324 48.0924 56.7235 48.0279 56.3562 48.0279C54.8022 48.0279 53.4022 49.3999 53.4022 51.6119ZM54.5922 51.5979C54.5922 50.0439 55.4602 48.9939 56.5522 48.9939C57.0567 48.9939 57.5272 49.153 58.0352 49.5634C58.1453 49.6523 58.2042 49.7887 58.2042 49.9302V53.0738C58.2042 53.1963 58.1599 53.3154 58.0751 53.4037C57.5596 53.9395 57.0497 54.2019 56.4682 54.2019C55.2782 54.2019 54.5922 53.2219 54.5922 51.5979Z" fill="#0048B3"/>
<path d="M61.1538 51.6119C61.1538 53.8379 62.5958 55.1679 64.4158 55.1679C65.1691 55.1679 65.7922 54.9539 66.3153 54.6699C66.5118 54.5633 66.5742 54.316 66.4684 54.119V54.119C66.3504 53.8993 66.0717 53.8296 65.8474 53.9385C65.4554 54.1289 65.0324 54.2439 64.5558 54.2439C63.4164 54.2439 62.5987 53.5363 62.3559 52.3744C62.2971 52.0932 62.5298 51.8499 62.8172 51.8499H66.4562C66.7006 51.8499 66.909 51.6726 66.918 51.4284C66.9205 51.3609 66.9218 51.291 66.9218 51.2199C66.9218 49.2739 65.9418 48.0279 64.2058 48.0279C62.6518 48.0279 61.1538 49.3859 61.1538 51.6119ZM62.8274 51.0939C62.5312 51.0939 62.2955 50.8353 62.3744 50.5498C62.6599 49.5167 63.4158 48.9379 64.2338 48.9379C65.1624 48.9379 65.7497 49.5244 65.8842 50.595C65.9186 50.869 65.6899 51.0939 65.4138 51.0939H62.8274Z" fill="#0048B3"/>
<path d="M70.9432 51.6119C70.9432 53.8799 72.0492 55.1679 73.7572 55.1679C74.5505 55.1679 75.2746 54.7252 75.8057 54.2111C75.8118 54.2052 75.8199 54.2019 75.8284 54.2019V54.2019C75.8448 54.2019 75.8587 54.2142 75.8607 54.2305L75.9062 54.6009C75.9342 54.8287 76.1276 54.9999 76.3572 54.9999H76.4072C76.6833 54.9999 76.9072 54.776 76.9072 54.4999V45.5319C76.9072 45.2558 76.6833 45.0319 76.4072 45.0319H76.2452C75.969 45.0319 75.7452 45.2558 75.7452 45.5319V47.6499L75.7472 47.6927C75.7681 48.1248 75.2594 48.3773 74.8599 48.2114C74.5734 48.0924 74.2645 48.0279 73.8972 48.0279C72.3432 48.0279 70.9432 49.3999 70.9432 51.6119ZM72.1332 51.5979C72.1332 50.0439 73.0012 48.9939 74.0932 48.9939C74.5977 48.9939 75.0682 49.153 75.5762 49.5634C75.6863 49.6523 75.7452 49.7887 75.7452 49.9302V53.0738C75.7452 53.1963 75.701 53.3154 75.6161 53.4037C75.1006 53.9395 74.5907 54.2019 74.0092 54.2019C72.8192 54.2019 72.1332 53.2219 72.1332 51.5979Z" fill="#0048B3"/>
<path d="M79.0922 48.6972C79.1825 48.8464 79.3767 48.8971 79.5204 48.7983C80.3178 48.2501 80.7528 47.5006 80.7528 46.4879C80.7528 45.6759 80.4168 45.2139 79.8708 45.2139C79.4368 45.2139 79.1288 45.5079 79.1288 45.9979C79.1288 46.4459 79.4788 46.6979 79.8708 46.6979V46.6979C79.9266 46.6979 79.9828 46.7418 79.9804 46.7976C79.9529 47.4415 79.6874 47.8673 79.1837 48.2557C79.0476 48.3606 79.0032 48.5502 79.0922 48.6972V48.6972Z" fill="#0048B3"/>
<path d="M81.8706 53.2359C81.8706 54.4539 82.7246 55.1679 83.8726 55.1679C84.71 55.1679 85.4639 54.7227 86.1204 54.1929C86.1244 54.1897 86.1294 54.1879 86.1346 54.1879V54.1879C86.146 54.1879 86.1556 54.1964 86.157 54.2078L86.2036 54.5939C86.2316 54.8256 86.4282 54.9999 86.6616 54.9999H86.7046C86.9808 54.9999 87.2046 54.776 87.2046 54.4999V50.8279C87.2046 49.1339 86.5046 48.0279 84.8386 48.0279C83.9433 48.0279 83.142 48.3479 82.5352 48.6869C82.3238 48.8051 82.26 49.0747 82.3814 49.2844V49.2844C82.5137 49.513 82.8113 49.5782 83.0415 49.4487C83.5032 49.189 84.0518 48.9799 84.6566 48.9799C85.5702 48.9799 85.9297 49.553 86.0272 50.2416C86.0629 50.4939 85.864 50.7084 85.6115 50.7424C83.0263 51.0902 81.8706 51.8302 81.8706 53.2359ZM83.0046 53.1519C83.0046 52.3592 83.6468 51.8234 85.4964 51.5231C85.7928 51.475 86.0566 51.7087 86.0566 52.009V53.1102C86.0566 53.2525 85.9965 53.389 85.8878 53.4809C85.303 53.9753 84.7955 54.2439 84.1946 54.2439C83.5226 54.2439 83.0046 53.9219 83.0046 53.1519Z" fill="#0048B3"/>
<path d="M88.8667 51.6119C88.8667 53.8659 90.2527 55.1679 92.0587 55.1679C92.7388 55.1679 93.3992 54.9322 93.9578 54.5348C94.144 54.4024 94.1737 54.1444 94.0446 53.9559V53.9559C93.8899 53.7302 93.5735 53.6958 93.3431 53.8435C93.0043 54.0604 92.6041 54.2159 92.1567 54.2159C90.9107 54.2159 90.0567 53.1659 90.0567 51.6119C90.0567 50.0439 90.9527 48.9799 92.1847 48.9799C92.5542 48.9799 92.866 49.0953 93.1549 49.2785C93.3862 49.4251 93.6974 49.4 93.865 49.1833V49.1833C94.0157 48.9886 93.9962 48.7073 93.797 48.5626C93.3758 48.2567 92.8397 48.0279 92.1427 48.0279C90.3927 48.0279 88.8667 49.3299 88.8667 51.6119Z" fill="#0048B3"/>
<path d="M94.9507 51.6119C94.9507 53.8659 96.3367 55.1679 98.1427 55.1679C98.8228 55.1679 99.4832 54.9322 100.042 54.5348C100.228 54.4024 100.258 54.1444 100.129 53.9559V53.9559C99.9739 53.7302 99.6575 53.6958 99.427 53.8435C99.0883 54.0604 98.6881 54.2159 98.2407 54.2159C96.9947 54.2159 96.1407 53.1659 96.1407 51.6119C96.1407 50.0439 97.0367 48.9799 98.2687 48.9799C98.6382 48.9799 98.95 49.0953 99.2389 49.2785C99.4702 49.4251 99.7814 49.4 99.949 49.1833V49.1833C100.1 48.9886 100.08 48.7073 99.881 48.5626C99.4597 48.2567 98.9237 48.0279 98.2267 48.0279C96.4767 48.0279 94.9507 49.3299 94.9507 51.6119Z" fill="#0048B3"/>
<path d="M101.035 51.6119C101.035 53.8379 102.477 55.1679 104.297 55.1679C105.05 55.1679 105.673 54.9539 106.196 54.6699C106.393 54.5633 106.455 54.316 106.349 54.119V54.119C106.231 53.8993 105.953 53.8296 105.728 53.9385C105.336 54.1289 104.913 54.2439 104.437 54.2439C103.297 54.2439 102.48 53.5363 102.237 52.3744C102.178 52.0932 102.411 51.8499 102.698 51.8499H106.337C106.581 51.8499 106.79 51.6726 106.799 51.4284C106.801 51.3609 106.803 51.291 106.803 51.2199C106.803 49.2739 105.823 48.0279 104.087 48.0279C102.533 48.0279 101.035 49.3859 101.035 51.6119ZM102.708 51.0939C102.412 51.0939 102.176 50.8353 102.255 50.5498C102.541 49.5167 103.297 48.9379 104.115 48.9379C105.043 48.9379 105.631 49.5244 105.765 50.595C105.799 50.869 105.571 51.0939 105.295 51.0939H102.708ZM103.999 46.8318C104.072 46.9241 104.183 46.9779 104.301 46.9779V46.9779C104.607 46.9779 104.792 46.639 104.626 46.3818L103.871 45.2121C103.787 45.0823 103.643 45.0039 103.489 45.0039V45.0039C103.108 45.0039 102.896 45.4436 103.133 45.7417L103.999 46.8318Z" fill="#0048B3"/>
<path d="M108.002 53.8622C107.849 54.0682 107.882 54.3609 108.098 54.5008C108.703 54.8937 109.468 55.1679 110.262 55.1679C111.872 55.1679 112.754 54.2439 112.754 53.1379C112.754 51.8499 111.662 51.4439 110.682 51.0799C109.912 50.7859 109.17 50.5339 109.17 49.9039C109.17 49.3859 109.562 48.9239 110.416 48.9239C110.854 48.9239 111.233 49.0576 111.585 49.2654C111.806 49.3957 112.095 49.3592 112.249 49.1541V49.1541C112.398 48.9553 112.364 48.6712 112.153 48.5403C111.675 48.244 111.073 48.0279 110.402 48.0279C108.932 48.0279 108.064 48.8679 108.064 49.9599C108.064 51.1079 109.128 51.5699 110.094 51.9199C110.836 52.1999 111.648 52.5079 111.648 53.2079C111.648 53.7959 111.2 54.2719 110.304 54.2719C109.675 54.2719 109.173 54.0706 108.705 53.7588C108.477 53.6069 108.166 53.6427 108.002 53.8622V53.8622Z" fill="#0048B3"/>
<path d="M31.9998 73.4372C31.9899 73.0157 32.4842 72.7646 32.8687 72.9372C33.2008 73.0862 33.5329 73.1679 33.865 73.1679C35.419 73.1679 36.805 71.8099 36.805 69.4999C36.805 67.3859 35.867 66.0279 34.117 66.0279C33.3231 66.0279 32.5707 66.4575 31.9564 66.972C31.9504 66.9771 31.9427 66.9799 31.9348 66.9799V66.9799C31.9178 66.9799 31.9035 66.9673 31.9014 66.9504L31.856 66.5879C31.8281 66.364 31.6377 66.1959 31.412 66.1959H31.355C31.0789 66.1959 30.855 66.4198 30.855 66.6959V75.3699C30.855 75.6461 31.0789 75.8699 31.355 75.8699H31.503C31.7792 75.8699 32.003 75.646 32.003 75.3699V73.5739L31.9998 73.4372ZM32.1856 71.6325C32.0672 71.5444 32.003 71.4027 32.003 71.2551V68.1413C32.003 67.9991 32.063 67.8628 32.1716 67.7711C32.7722 67.2637 33.2976 66.9939 33.823 66.9939C35.111 66.9939 35.615 68.0019 35.615 69.4999C35.615 71.1799 34.789 72.2019 33.669 72.2019C33.2654 72.2019 32.7368 72.0428 32.1856 71.6325Z" fill="#0048B3"/>
<path d="M38.0933 71.2359C38.0933 72.4539 38.9473 73.1679 40.0953 73.1679C40.9326 73.1679 41.6865 72.7227 42.3431 72.1929C42.3471 72.1897 42.3521 72.1879 42.3573 72.1879V72.1879C42.3687 72.1879 42.3783 72.1964 42.3797 72.2078L42.4263 72.5939C42.4542 72.8256 42.6508 72.9999 42.8842 72.9999H42.9273C43.2034 72.9999 43.4273 72.776 43.4273 72.4999V68.8279C43.4273 67.1339 42.7273 66.0279 41.0613 66.0279C40.1659 66.0279 39.3647 66.3479 38.7579 66.6869C38.5464 66.8051 38.4827 67.0747 38.6041 67.2844V67.2844C38.7364 67.513 39.0339 67.5782 39.2641 67.4487C39.7259 67.189 40.2744 66.9799 40.8793 66.9799C41.7928 66.9799 42.1524 67.553 42.2498 68.2416C42.2855 68.4939 42.0866 68.7084 41.8341 68.7424C39.249 69.0902 38.0933 69.8302 38.0933 71.2359ZM39.2273 71.1519C39.2273 70.3592 39.8695 69.8234 41.7191 69.5231C42.0155 69.475 42.2793 69.7087 42.2793 70.009V71.1102C42.2793 71.2525 42.2191 71.389 42.1104 71.4809C41.5257 71.9753 41.0182 72.2439 40.4173 72.2439C39.7453 72.2439 39.2273 71.9219 39.2273 71.1519Z" fill="#0048B3"/>
<path d="M45.5933 72.4999C45.5933 72.776 45.8172 72.9999 46.0933 72.9999H46.2413C46.5175 72.9999 46.7413 72.776 46.7413 72.4999V68.7287C46.7413 68.6648 46.7534 68.6011 46.7785 68.5422C47.2396 67.462 47.9045 67.0639 48.4633 67.0639C48.5086 67.0639 48.5506 67.065 48.5901 67.0671C48.8824 67.083 49.1758 66.9306 49.2393 66.6449L49.2561 66.5695C49.3079 66.3362 49.1881 66.0886 48.952 66.0514C48.8505 66.0354 48.7414 66.0279 48.6173 66.0279C47.8517 66.0279 47.1553 66.5677 46.6932 67.4134C46.6884 67.4223 46.679 67.4279 46.6689 67.4279V67.4279C46.6544 67.4279 46.6424 67.4168 46.6413 67.4025L46.5816 66.6516C46.5611 66.3943 46.3463 66.1959 46.0882 66.1959V66.1959C45.8149 66.1959 45.5933 66.4175 45.5933 66.6908V72.4999Z" fill="#0048B3"/>
<path d="M52.7729 69.6119C52.7729 71.8379 54.2149 73.1679 56.0349 73.1679C56.7883 73.1679 57.4113 72.9539 57.9344 72.6699C58.1309 72.5633 58.1933 72.316 58.0876 72.119V72.119C57.9696 71.8993 57.6908 71.8296 57.4665 71.9385C57.0745 72.1289 56.6516 72.2439 56.1749 72.2439C55.0355 72.2439 54.2178 71.5363 53.975 70.3744C53.9162 70.0932 54.149 69.8499 54.4363 69.8499H58.0754C58.3198 69.8499 58.5281 69.6726 58.5372 69.4284C58.5397 69.3609 58.5409 69.291 58.5409 69.2199C58.5409 67.2739 57.5609 66.0279 55.8249 66.0279C54.2709 66.0279 52.7729 67.3859 52.7729 69.6119ZM54.4465 69.0939C54.1503 69.0939 53.9147 68.8353 53.9936 68.5498C54.279 67.5167 55.035 66.9379 55.8529 66.9379C56.7815 66.9379 57.3689 67.5244 57.5033 68.595C57.5378 68.869 57.3091 69.0939 57.0329 69.0939H54.4465ZM56.789 63.74C57.0266 63.4435 56.8156 63.0039 56.4356 63.0039V63.0039C56.2818 63.0039 56.1385 63.082 56.0551 63.2112L55.294 64.3905C55.1305 64.6439 55.3124 64.9779 55.6141 64.9779V64.9779C55.7297 64.9779 55.839 64.9254 55.9113 64.8352L56.789 63.74Z" fill="#0048B3"/>
<path d="M59.7322 69.6119C59.7322 71.8799 60.8382 73.1679 62.5462 73.1679C63.3395 73.1679 64.0636 72.7252 64.5948 72.2111C64.6009 72.2052 64.609 72.2019 64.6175 72.2019V72.2019C64.6339 72.2019 64.6477 72.2142 64.6497 72.2305L64.6952 72.6009C64.7232 72.8287 64.9167 72.9999 65.1462 72.9999H65.1962C65.4724 72.9999 65.6962 72.776 65.6962 72.4999V63.5319C65.6962 63.2558 65.4724 63.0319 65.1962 63.0319H65.0342C64.7581 63.0319 64.5342 63.2558 64.5342 63.5319V65.6499L64.5363 65.6927C64.5571 66.1248 64.0485 66.3773 63.649 66.2114C63.3625 66.0924 63.0535 66.0279 62.6862 66.0279C61.1322 66.0279 59.7322 67.3999 59.7322 69.6119ZM60.9222 69.5979C60.9222 68.0439 61.7902 66.9939 62.8822 66.9939C63.3868 66.9939 63.8572 67.153 64.3653 67.5634C64.4754 67.6523 64.5342 67.7887 64.5342 67.9302V71.0738C64.5342 71.1963 64.49 71.3154 64.4051 71.4037C63.8897 71.9395 63.3797 72.2019 62.7982 72.2019C61.6082 72.2019 60.9222 71.2219 60.9222 69.5979Z" fill="#0048B3"/>
<path d="M68.5759 64.7959C69.0239 64.7959 69.3739 64.4879 69.3739 64.0539C69.3739 63.6059 69.0239 63.3119 68.5759 63.3119C68.1279 63.3119 67.7779 63.6059 67.7779 64.0539C67.7779 64.4879 68.1279 64.7959 68.5759 64.7959ZM67.9879 72.4999C67.9879 72.776 68.2117 72.9999 68.4879 72.9999H68.6359C68.912 72.9999 69.1359 72.776 69.1359 72.4999V66.6959C69.1359 66.4198 68.912 66.1959 68.6359 66.1959H68.4879C68.2117 66.1959 67.9879 66.4198 67.9879 66.6959V72.4999Z" fill="#0048B3"/>
<path d="M71.6292 70.8999C71.6292 72.2439 72.1192 73.1679 73.5752 73.1679C73.8585 73.1679 74.161 73.1106 74.4439 73.0345C74.6663 72.9748 74.7905 72.7429 74.733 72.5199V72.5199C74.6679 72.2678 74.3998 72.1346 74.1456 72.1911C74.0395 72.2147 73.9349 72.2299 73.8412 72.2299C73.0572 72.2299 72.7912 71.7539 72.7912 70.9139V67.6339C72.7912 67.3578 73.015 67.1339 73.2912 67.1339H74.1562C74.4152 67.1339 74.6252 66.9239 74.6252 66.6649V66.6649C74.6252 66.4059 74.4152 66.1959 74.1562 66.1959H73.2912C73.015 66.1959 72.7912 65.972 72.7912 65.6959V64.7919C72.7912 64.5158 72.5666 64.2919 72.2904 64.2919V64.2919C72.0285 64.2919 71.8103 64.494 71.7911 64.7552L71.7171 65.7622C71.6988 66.0109 71.5001 66.2081 71.2512 66.2245L71.04 66.2384C70.8044 66.2539 70.6212 66.4495 70.6212 66.6856V66.6856C70.6212 66.9332 70.8219 67.1339 71.0694 67.1339H71.1292C71.4053 67.1339 71.6292 67.3578 71.6292 67.6339V70.8999Z" fill="#0048B3"/>
<path d="M75.5229 69.6119C75.5229 71.8379 76.9649 73.1679 78.7849 73.1679C79.5383 73.1679 80.1613 72.9539 80.6844 72.6699C80.8809 72.5633 80.9433 72.316 80.8376 72.119V72.119C80.7196 71.8993 80.4408 71.8296 80.2165 71.9385C79.8245 72.1289 79.4016 72.2439 78.9249 72.2439C77.7856 72.2439 76.9678 71.5363 76.725 70.3744C76.6662 70.0932 76.899 69.8499 77.1863 69.8499H80.8254C81.0698 69.8499 81.2781 69.6726 81.2872 69.4284C81.2897 69.3609 81.2909 69.291 81.2909 69.2199C81.2909 67.2739 80.3109 66.0279 78.5749 66.0279C77.0209 66.0279 75.5229 67.3859 75.5229 69.6119ZM77.1965 69.0939C76.9003 69.0939 76.6647 68.8353 76.7436 68.5498C77.029 67.5167 77.785 66.9379 78.6029 66.9379C79.5315 66.9379 80.1189 67.5244 80.2533 68.595C80.2877 68.869 80.0591 69.0939 79.7829 69.0939H77.1965Z" fill="#0048B3"/>
<path d="M82.8742 70.5079C82.8742 72.2439 83.5182 73.1679 84.9602 73.1679C85.8937 73.1679 86.5637 72.6827 87.191 71.9467C87.1968 71.9399 87.2054 71.9359 87.2144 71.9359V71.9359C87.2302 71.9359 87.2433 71.9479 87.2448 71.9637L87.2986 72.5477C87.3222 72.8039 87.5371 72.9999 87.7944 72.9999V72.9999C88.0693 72.9999 88.2922 72.777 88.2922 72.502V66.6959C88.2922 66.4198 88.0684 66.1959 87.7922 66.1959H87.6442C87.3681 66.1959 87.1442 66.4198 87.1442 66.6959V70.8493C87.1442 70.9636 87.1055 71.0749 87.0319 71.1623C86.4418 71.8639 85.969 72.1739 85.3102 72.1739C84.4142 72.1739 84.0362 71.6279 84.0362 70.3539V66.6959C84.0362 66.4198 83.8124 66.1959 83.5362 66.1959H83.3742C83.0981 66.1959 82.8742 66.4198 82.8742 66.6959V70.5079Z" fill="#0048B3"/>
<path d="M90.5875 72.4999C90.5875 72.776 90.8113 72.9999 91.0875 72.9999H91.2355C91.5116 72.9999 91.7355 72.776 91.7355 72.4999V68.7287C91.7355 68.6648 91.7475 68.6011 91.7726 68.5422C92.2337 67.462 92.8987 67.0639 93.4575 67.0639C93.5027 67.0639 93.5447 67.065 93.5842 67.0671C93.8765 67.0829 94.17 66.9306 94.2335 66.6449L94.2502 66.5695C94.3021 66.3362 94.1822 66.0886 93.9461 66.0514C93.8446 66.0354 93.7355 66.0279 93.6115 66.0279C92.8458 66.0279 92.1494 66.5677 91.6874 67.4134C91.6825 67.4223 91.6732 67.4279 91.663 67.4279V67.4279C91.6486 67.4279 91.6366 67.4168 91.6354 67.4025L91.5757 66.6516C91.5553 66.3943 91.3405 66.1959 91.0824 66.1959V66.1959C90.809 66.1959 90.5875 66.4175 90.5875 66.6908V72.4999Z" fill="#0048B3"/>
<path d="M12.0168 54.4999C12.0168 54.776 12.2407 54.9999 12.5168 54.9999H14.3688C17.1408 54.9999 18.6528 53.2919 18.6528 50.3659C18.6528 47.4539 17.1408 45.8159 14.3128 45.8159H12.5168C12.2407 45.8159 12.0168 46.0398 12.0168 46.3159V54.4999ZM13.6928 54.0479C13.4167 54.0479 13.1928 53.824 13.1928 53.5479V47.2679C13.1928 46.9918 13.4167 46.7679 13.6928 46.7679H14.2288C16.3848 46.7679 17.4488 48.0559 17.4488 50.3659C17.4488 52.6899 16.3848 54.0479 14.2288 54.0479H13.6928Z" stroke="#0048B3" stroke-width="0.4" mask="url(#path-3-outside-1)"/>
<path d="M20.0151 51.6119C20.0151 53.8379 21.4571 55.1679 23.2771 55.1679C24.0305 55.1679 24.6535 54.9539 25.1766 54.6699C25.3731 54.5633 25.4355 54.316 25.3297 54.119V54.119C25.2118 53.8993 24.933 53.8296 24.7087 53.9385C24.3167 54.1289 23.8938 54.2439 23.4171 54.2439C22.2777 54.2439 21.46 53.5363 21.2172 52.3744C21.1584 52.0932 21.3911 51.8499 21.6785 51.8499H25.3175C25.562 51.8499 25.7703 51.6726 25.7794 51.4284C25.7819 51.3609 25.7831 51.291 25.7831 51.2199C25.7831 49.2739 24.8031 48.0279 23.0671 48.0279C21.5131 48.0279 20.0151 49.3859 20.0151 51.6119ZM21.6887 51.0939C21.3925 51.0939 21.1569 50.8353 21.2358 50.5498C21.5212 49.5167 22.2772 48.9379 23.0951 48.9379C24.0237 48.9379 24.6111 49.5244 24.7455 50.595C24.7799 50.869 24.5513 51.0939 24.2751 51.0939H21.6887Z" stroke="#0048B3" stroke-width="0.4" mask="url(#path-3-outside-1)"/>
<path d="M27.4644 54.4999C27.4644 54.776 27.6883 54.9999 27.9644 54.9999H28.1124C28.3886 54.9999 28.6124 54.776 28.6124 54.4999V50.2638C28.6124 50.1403 28.6576 50.0204 28.7429 49.9311C29.3219 49.325 29.8514 49.0219 30.3204 49.0219C31.1884 49.0219 31.5944 49.5679 31.5944 50.8419V54.4999C31.5944 54.776 31.8183 54.9999 32.0944 54.9999H32.2424C32.5186 54.9999 32.7424 54.776 32.7424 54.4999V50.2638C32.7424 50.1403 32.7877 50.0204 32.8727 49.9309C33.4483 49.3249 33.9554 49.0219 34.4504 49.0219C35.3044 49.0219 35.7104 49.5679 35.7104 50.8419V54.4999C35.7104 54.776 35.9343 54.9999 36.2104 54.9999H36.3584C36.6346 54.9999 36.8584 54.776 36.8584 54.4999V50.6879C36.8584 48.9519 36.1864 48.0279 34.7864 48.0279C34.1908 48.0279 33.6606 48.3046 33.1435 48.7477C32.8567 48.9934 32.3928 48.8889 32.1433 48.6053C31.8183 48.2359 31.3453 48.0279 30.6704 48.0279C29.8627 48.0279 29.1519 48.5266 28.5657 49.1657C28.5598 49.1722 28.5514 49.1759 28.5427 49.1759V49.1759C28.5266 49.1759 28.5132 49.1638 28.5116 49.1478L28.4614 48.6459C28.4359 48.3905 28.2209 48.1959 27.9642 48.1959V48.1959C27.6882 48.1959 27.4644 48.4196 27.4644 48.6956V54.4999Z" stroke="#0048B3" stroke-width="0.4" mask="url(#path-3-outside-1)"/>
<path d="M38.7358 53.2359C38.7358 54.4539 39.5898 55.1679 40.7378 55.1679C41.5752 55.1679 42.3291 54.7227 42.9856 54.1929C42.9897 54.1897 42.9947 54.1879 42.9998 54.1879V54.1879C43.0113 54.1879 43.0209 54.1964 43.0222 54.2078L43.0688 54.5939C43.0968 54.8256 43.2934 54.9999 43.5268 54.9999H43.5698C43.846 54.9999 44.0698 54.776 44.0698 54.4999V50.8279C44.0698 49.1339 43.3698 48.0279 41.7038 48.0279C40.8085 48.0279 40.0073 48.3479 39.4005 48.6869C39.189 48.8051 39.1253 49.0747 39.2467 49.2844V49.2844C39.379 49.513 39.6765 49.5782 39.9067 49.4487C40.3685 49.189 40.917 48.9799 41.5218 48.9799C42.4354 48.9799 42.7949 49.553 42.8924 50.2416C42.9281 50.4939 42.7292 50.7084 42.4767 50.7424C39.8916 51.0902 38.7358 51.8302 38.7358 53.2359ZM39.8698 53.1519C39.8698 52.3592 40.5121 51.8234 42.3616 51.5231C42.6581 51.475 42.9218 51.7087 42.9218 52.009V53.1102C42.9218 53.2525 42.8617 53.389 42.753 53.4809C42.1683 53.9753 41.6608 54.2439 41.0598 54.2439C40.3878 54.2439 39.8698 53.9219 39.8698 53.1519Z" stroke="#0048B3" stroke-width="0.4" mask="url(#path-3-outside-1)"/>
<path d="M46.2359 54.4999C46.2359 54.776 46.4598 54.9999 46.7359 54.9999H46.8839C47.16 54.9999 47.3839 54.776 47.3839 54.4999V50.279C47.3839 50.1464 47.4364 50.0187 47.5315 49.9263C48.1409 49.3345 48.5972 49.0219 49.2459 49.0219C50.1419 49.0219 50.5339 49.5679 50.5339 50.8419V54.4999C50.5339 54.776 50.7578 54.9999 51.0339 54.9999H51.1819C51.4581 54.9999 51.6819 54.776 51.6819 54.4999V50.6879C51.6819 48.9519 51.0379 48.0279 49.6099 48.0279C48.6764 48.0279 47.9787 48.527 47.3373 49.1666C47.3313 49.1725 47.3232 49.1759 47.3147 49.1759V49.1759C47.2984 49.1759 47.2847 49.1635 47.283 49.1472L47.2329 48.6459C47.2074 48.3905 46.9924 48.1959 46.7356 48.1959V48.1959C46.4596 48.1959 46.2359 48.4196 46.2359 48.6956V54.4999Z" stroke="#0048B3" stroke-width="0.4" mask="url(#path-3-outside-1)"/>
<path d="M53.4022 51.6119C53.4022 53.8799 54.5082 55.1679 56.2162 55.1679C57.0094 55.1679 57.7335 54.7252 58.2647 54.2111C58.2708 54.2052 58.2789 54.2019 58.2874 54.2019V54.2019C58.3038 54.2019 58.3177 54.2142 58.3197 54.2305L58.3652 54.6009C58.3931 54.8287 58.5866 54.9999 58.8162 54.9999H58.8662C59.1423 54.9999 59.3662 54.776 59.3662 54.4999V45.5319C59.3662 45.2558 59.1423 45.0319 58.8662 45.0319H58.7042C58.428 45.0319 58.2042 45.2558 58.2042 45.5319V47.6499L58.2062 47.6927C58.227 48.1248 57.7184 48.3773 57.3189 48.2114C57.0324 48.0924 56.7235 48.0279 56.3562 48.0279C54.8022 48.0279 53.4022 49.3999 53.4022 51.6119ZM54.5922 51.5979C54.5922 50.0439 55.4602 48.9939 56.5522 48.9939C57.0567 48.9939 57.5272 49.153 58.0352 49.5634C58.1453 49.6523 58.2042 49.7887 58.2042 49.9302V53.0738C58.2042 53.1963 58.1599 53.3154 58.0751 53.4037C57.5596 53.9395 57.0497 54.2019 56.4682 54.2019C55.2782 54.2019 54.5922 53.2219 54.5922 51.5979Z" stroke="#0048B3" stroke-width="0.4" mask="url(#path-3-outside-1)"/>
<path d="M61.1538 51.6119C61.1538 53.8379 62.5958 55.1679 64.4158 55.1679C65.1691 55.1679 65.7922 54.9539 66.3153 54.6699C66.5118 54.5633 66.5742 54.316 66.4684 54.119V54.119C66.3504 53.8993 66.0717 53.8296 65.8474 53.9385C65.4554 54.1289 65.0324 54.2439 64.5558 54.2439C63.4164 54.2439 62.5987 53.5363 62.3559 52.3744C62.2971 52.0932 62.5298 51.8499 62.8172 51.8499H66.4562C66.7006 51.8499 66.909 51.6726 66.918 51.4284C66.9205 51.3609 66.9218 51.291 66.9218 51.2199C66.9218 49.2739 65.9418 48.0279 64.2058 48.0279C62.6518 48.0279 61.1538 49.3859 61.1538 51.6119ZM62.8274 51.0939C62.5312 51.0939 62.2955 50.8353 62.3744 50.5498C62.6599 49.5167 63.4158 48.9379 64.2338 48.9379C65.1624 48.9379 65.7497 49.5244 65.8842 50.595C65.9186 50.869 65.6899 51.0939 65.4138 51.0939H62.8274Z" stroke="#0048B3" stroke-width="0.4" mask="url(#path-3-outside-1)"/>
<path d="M70.9432 51.6119C70.9432 53.8799 72.0492 55.1679 73.7572 55.1679C74.5505 55.1679 75.2746 54.7252 75.8057 54.2111C75.8118 54.2052 75.8199 54.2019 75.8284 54.2019V54.2019C75.8448 54.2019 75.8587 54.2142 75.8607 54.2305L75.9062 54.6009C75.9342 54.8287 76.1276 54.9999 76.3572 54.9999H76.4072C76.6833 54.9999 76.9072 54.776 76.9072 54.4999V45.5319C76.9072 45.2558 76.6833 45.0319 76.4072 45.0319H76.2452C75.969 45.0319 75.7452 45.2558 75.7452 45.5319V47.6499L75.7472 47.6927C75.7681 48.1248 75.2594 48.3773 74.8599 48.2114C74.5734 48.0924 74.2645 48.0279 73.8972 48.0279C72.3432 48.0279 70.9432 49.3999 70.9432 51.6119ZM72.1332 51.5979C72.1332 50.0439 73.0012 48.9939 74.0932 48.9939C74.5977 48.9939 75.0682 49.153 75.5762 49.5634C75.6863 49.6523 75.7452 49.7887 75.7452 49.9302V53.0738C75.7452 53.1963 75.701 53.3154 75.6161 53.4037C75.1006 53.9395 74.5907 54.2019 74.0092 54.2019C72.8192 54.2019 72.1332 53.2219 72.1332 51.5979Z" stroke="#0048B3" stroke-width="0.4" mask="url(#path-3-outside-1)"/>
<path d="M79.0922 48.6972C79.1825 48.8464 79.3767 48.8971 79.5204 48.7983C80.3178 48.2501 80.7528 47.5006 80.7528 46.4879C80.7528 45.6759 80.4168 45.2139 79.8708 45.2139C79.4368 45.2139 79.1288 45.5079 79.1288 45.9979C79.1288 46.4459 79.4788 46.6979 79.8708 46.6979V46.6979C79.9266 46.6979 79.9828 46.7418 79.9804 46.7976C79.9529 47.4415 79.6874 47.8673 79.1837 48.2557C79.0476 48.3606 79.0032 48.5502 79.0922 48.6972V48.6972Z" stroke="#0048B3" stroke-width="0.4" mask="url(#path-3-outside-1)"/>
<path d="M81.8706 53.2359C81.8706 54.4539 82.7246 55.1679 83.8726 55.1679C84.71 55.1679 85.4639 54.7227 86.1204 54.1929C86.1244 54.1897 86.1294 54.1879 86.1346 54.1879V54.1879C86.146 54.1879 86.1556 54.1964 86.157 54.2078L86.2036 54.5939C86.2316 54.8256 86.4282 54.9999 86.6616 54.9999H86.7046C86.9808 54.9999 87.2046 54.776 87.2046 54.4999V50.8279C87.2046 49.1339 86.5046 48.0279 84.8386 48.0279C83.9433 48.0279 83.142 48.3479 82.5352 48.6869C82.3238 48.8051 82.26 49.0747 82.3814 49.2844V49.2844C82.5137 49.513 82.8113 49.5782 83.0415 49.4487C83.5032 49.189 84.0518 48.9799 84.6566 48.9799C85.5702 48.9799 85.9297 49.553 86.0272 50.2416C86.0629 50.4939 85.864 50.7084 85.6115 50.7424C83.0263 51.0902 81.8706 51.8302 81.8706 53.2359ZM83.0046 53.1519C83.0046 52.3592 83.6468 51.8234 85.4964 51.5231C85.7928 51.475 86.0566 51.7087 86.0566 52.009V53.1102C86.0566 53.2525 85.9965 53.389 85.8878 53.4809C85.303 53.9753 84.7955 54.2439 84.1946 54.2439C83.5226 54.2439 83.0046 53.9219 83.0046 53.1519Z" stroke="#0048B3" stroke-width="0.4" mask="url(#path-3-outside-1)"/>
<path d="M88.8667 51.6119C88.8667 53.8659 90.2527 55.1679 92.0587 55.1679C92.7388 55.1679 93.3992 54.9322 93.9578 54.5348C94.144 54.4024 94.1737 54.1444 94.0446 53.9559V53.9559C93.8899 53.7302 93.5735 53.6958 93.3431 53.8435C93.0043 54.0604 92.6041 54.2159 92.1567 54.2159C90.9107 54.2159 90.0567 53.1659 90.0567 51.6119C90.0567 50.0439 90.9527 48.9799 92.1847 48.9799C92.5542 48.9799 92.866 49.0953 93.1549 49.2785C93.3862 49.4251 93.6974 49.4 93.865 49.1833V49.1833C94.0157 48.9886 93.9962 48.7073 93.797 48.5626C93.3758 48.2567 92.8397 48.0279 92.1427 48.0279C90.3927 48.0279 88.8667 49.3299 88.8667 51.6119Z" stroke="#0048B3" stroke-width="0.4" mask="url(#path-3-outside-1)"/>
<path d="M94.9507 51.6119C94.9507 53.8659 96.3367 55.1679 98.1427 55.1679C98.8228 55.1679 99.4832 54.9322 100.042 54.5348C100.228 54.4024 100.258 54.1444 100.129 53.9559V53.9559C99.9739 53.7302 99.6575 53.6958 99.427 53.8435C99.0883 54.0604 98.6881 54.2159 98.2407 54.2159C96.9947 54.2159 96.1407 53.1659 96.1407 51.6119C96.1407 50.0439 97.0367 48.9799 98.2687 48.9799C98.6382 48.9799 98.95 49.0953 99.2389 49.2785C99.4702 49.4251 99.7814 49.4 99.949 49.1833V49.1833C100.1 48.9886 100.08 48.7073 99.881 48.5626C99.4597 48.2567 98.9237 48.0279 98.2267 48.0279C96.4767 48.0279 94.9507 49.3299 94.9507 51.6119Z" stroke="#0048B3" stroke-width="0.4" mask="url(#path-3-outside-1)"/>
<path d="M101.035 51.6119C101.035 53.8379 102.477 55.1679 104.297 55.1679C105.05 55.1679 105.673 54.9539 106.196 54.6699C106.393 54.5633 106.455 54.316 106.349 54.119V54.119C106.231 53.8993 105.953 53.8296 105.728 53.9385C105.336 54.1289 104.913 54.2439 104.437 54.2439C103.297 54.2439 102.48 53.5363 102.237 52.3744C102.178 52.0932 102.411 51.8499 102.698 51.8499H106.337C106.581 51.8499 106.79 51.6726 106.799 51.4284C106.801 51.3609 106.803 51.291 106.803 51.2199C106.803 49.2739 105.823 48.0279 104.087 48.0279C102.533 48.0279 101.035 49.3859 101.035 51.6119ZM102.708 51.0939C102.412 51.0939 102.176 50.8353 102.255 50.5498C102.541 49.5167 103.297 48.9379 104.115 48.9379C105.043 48.9379 105.631 49.5244 105.765 50.595C105.799 50.869 105.571 51.0939 105.295 51.0939H102.708ZM103.999 46.8318C104.072 46.9241 104.183 46.9779 104.301 46.9779V46.9779C104.607 46.9779 104.792 46.639 104.626 46.3818L103.871 45.2121C103.787 45.0823 103.643 45.0039 103.489 45.0039V45.0039C103.108 45.0039 102.896 45.4436 103.133 45.7417L103.999 46.8318Z" stroke="#0048B3" stroke-width="0.4" mask="url(#path-3-outside-1)"/>
<path d="M108.002 53.8622C107.849 54.0682 107.882 54.3609 108.098 54.5008C108.703 54.8937 109.468 55.1679 110.262 55.1679C111.872 55.1679 112.754 54.2439 112.754 53.1379C112.754 51.8499 111.662 51.4439 110.682 51.0799C109.912 50.7859 109.17 50.5339 109.17 49.9039C109.17 49.3859 109.562 48.9239 110.416 48.9239C110.854 48.9239 111.233 49.0576 111.585 49.2654C111.806 49.3957 112.095 49.3592 112.249 49.1541V49.1541C112.398 48.9553 112.364 48.6712 112.153 48.5403C111.675 48.244 111.073 48.0279 110.402 48.0279C108.932 48.0279 108.064 48.8679 108.064 49.9599C108.064 51.1079 109.128 51.5699 110.094 51.9199C110.836 52.1999 111.648 52.5079 111.648 53.2079C111.648 53.7959 111.2 54.2719 110.304 54.2719C109.675 54.2719 109.173 54.0706 108.705 53.7588C108.477 53.6069 108.166 53.6427 108.002 53.8622V53.8622Z" stroke="#0048B3" stroke-width="0.4" mask="url(#path-3-outside-1)"/>
<path d="M31.9998 73.4372C31.9899 73.0157 32.4842 72.7646 32.8687 72.9372C33.2008 73.0862 33.5329 73.1679 33.865 73.1679C35.419 73.1679 36.805 71.8099 36.805 69.4999C36.805 67.3859 35.867 66.0279 34.117 66.0279C33.3231 66.0279 32.5707 66.4575 31.9564 66.972C31.9504 66.9771 31.9427 66.9799 31.9348 66.9799V66.9799C31.9178 66.9799 31.9035 66.9673 31.9014 66.9504L31.856 66.5879C31.8281 66.364 31.6377 66.1959 31.412 66.1959H31.355C31.0789 66.1959 30.855 66.4198 30.855 66.6959V75.3699C30.855 75.6461 31.0789 75.8699 31.355 75.8699H31.503C31.7792 75.8699 32.003 75.646 32.003 75.3699V73.5739L31.9998 73.4372ZM32.1856 71.6325C32.0672 71.5444 32.003 71.4027 32.003 71.2551V68.1413C32.003 67.9991 32.063 67.8628 32.1716 67.7711C32.7722 67.2637 33.2976 66.9939 33.823 66.9939C35.111 66.9939 35.615 68.0019 35.615 69.4999C35.615 71.1799 34.789 72.2019 33.669 72.2019C33.2654 72.2019 32.7368 72.0428 32.1856 71.6325Z" stroke="#0048B3" stroke-width="0.4" mask="url(#path-3-outside-1)"/>
<path d="M38.0933 71.2359C38.0933 72.4539 38.9473 73.1679 40.0953 73.1679C40.9326 73.1679 41.6865 72.7227 42.3431 72.1929C42.3471 72.1897 42.3521 72.1879 42.3573 72.1879V72.1879C42.3687 72.1879 42.3783 72.1964 42.3797 72.2078L42.4263 72.5939C42.4542 72.8256 42.6508 72.9999 42.8842 72.9999H42.9273C43.2034 72.9999 43.4273 72.776 43.4273 72.4999V68.8279C43.4273 67.1339 42.7273 66.0279 41.0613 66.0279C40.1659 66.0279 39.3647 66.3479 38.7579 66.6869C38.5464 66.8051 38.4827 67.0747 38.6041 67.2844V67.2844C38.7364 67.513 39.0339 67.5782 39.2641 67.4487C39.7259 67.189 40.2744 66.9799 40.8793 66.9799C41.7928 66.9799 42.1524 67.553 42.2498 68.2416C42.2855 68.4939 42.0866 68.7084 41.8341 68.7424C39.249 69.0902 38.0933 69.8302 38.0933 71.2359ZM39.2273 71.1519C39.2273 70.3592 39.8695 69.8234 41.7191 69.5231C42.0155 69.475 42.2793 69.7087 42.2793 70.009V71.1102C42.2793 71.2525 42.2191 71.389 42.1104 71.4809C41.5257 71.9753 41.0182 72.2439 40.4173 72.2439C39.7453 72.2439 39.2273 71.9219 39.2273 71.1519Z" stroke="#0048B3" stroke-width="0.4" mask="url(#path-3-outside-1)"/>
<path d="M45.5933 72.4999C45.5933 72.776 45.8172 72.9999 46.0933 72.9999H46.2413C46.5175 72.9999 46.7413 72.776 46.7413 72.4999V68.7287C46.7413 68.6648 46.7534 68.6011 46.7785 68.5422C47.2396 67.462 47.9045 67.0639 48.4633 67.0639C48.5086 67.0639 48.5506 67.065 48.5901 67.0671C48.8824 67.083 49.1758 66.9306 49.2393 66.6449L49.2561 66.5695C49.3079 66.3362 49.1881 66.0886 48.952 66.0514C48.8505 66.0354 48.7414 66.0279 48.6173 66.0279C47.8517 66.0279 47.1553 66.5677 46.6932 67.4134C46.6884 67.4223 46.679 67.4279 46.6689 67.4279V67.4279C46.6544 67.4279 46.6424 67.4168 46.6413 67.4025L46.5816 66.6516C46.5611 66.3943 46.3463 66.1959 46.0882 66.1959V66.1959C45.8149 66.1959 45.5933 66.4175 45.5933 66.6908V72.4999Z" stroke="#0048B3" stroke-width="0.4" mask="url(#path-3-outside-1)"/>
<path d="M52.7729 69.6119C52.7729 71.8379 54.2149 73.1679 56.0349 73.1679C56.7883 73.1679 57.4113 72.9539 57.9344 72.6699C58.1309 72.5633 58.1933 72.316 58.0876 72.119V72.119C57.9696 71.8993 57.6908 71.8296 57.4665 71.9385C57.0745 72.1289 56.6516 72.2439 56.1749 72.2439C55.0355 72.2439 54.2178 71.5363 53.975 70.3744C53.9162 70.0932 54.149 69.8499 54.4363 69.8499H58.0754C58.3198 69.8499 58.5281 69.6726 58.5372 69.4284C58.5397 69.3609 58.5409 69.291 58.5409 69.2199C58.5409 67.2739 57.5609 66.0279 55.8249 66.0279C54.2709 66.0279 52.7729 67.3859 52.7729 69.6119ZM54.4465 69.0939C54.1503 69.0939 53.9147 68.8353 53.9936 68.5498C54.279 67.5167 55.035 66.9379 55.8529 66.9379C56.7815 66.9379 57.3689 67.5244 57.5033 68.595C57.5378 68.869 57.3091 69.0939 57.0329 69.0939H54.4465ZM56.789 63.74C57.0266 63.4435 56.8156 63.0039 56.4356 63.0039V63.0039C56.2818 63.0039 56.1385 63.082 56.0551 63.2112L55.294 64.3905C55.1305 64.6439 55.3124 64.9779 55.6141 64.9779V64.9779C55.7297 64.9779 55.839 64.9254 55.9113 64.8352L56.789 63.74Z" stroke="#0048B3" stroke-width="0.4" mask="url(#path-3-outside-1)"/>
<path d="M59.7322 69.6119C59.7322 71.8799 60.8382 73.1679 62.5462 73.1679C63.3395 73.1679 64.0636 72.7252 64.5948 72.2111C64.6009 72.2052 64.609 72.2019 64.6175 72.2019V72.2019C64.6339 72.2019 64.6477 72.2142 64.6497 72.2305L64.6952 72.6009C64.7232 72.8287 64.9167 72.9999 65.1462 72.9999H65.1962C65.4724 72.9999 65.6962 72.776 65.6962 72.4999V63.5319C65.6962 63.2558 65.4724 63.0319 65.1962 63.0319H65.0342C64.7581 63.0319 64.5342 63.2558 64.5342 63.5319V65.6499L64.5363 65.6927C64.5571 66.1248 64.0485 66.3773 63.649 66.2114C63.3625 66.0924 63.0535 66.0279 62.6862 66.0279C61.1322 66.0279 59.7322 67.3999 59.7322 69.6119ZM60.9222 69.5979C60.9222 68.0439 61.7902 66.9939 62.8822 66.9939C63.3868 66.9939 63.8572 67.153 64.3653 67.5634C64.4754 67.6523 64.5342 67.7887 64.5342 67.9302V71.0738C64.5342 71.1963 64.49 71.3154 64.4051 71.4037C63.8897 71.9395 63.3797 72.2019 62.7982 72.2019C61.6082 72.2019 60.9222 71.2219 60.9222 69.5979Z" stroke="#0048B3" stroke-width="0.4" mask="url(#path-3-outside-1)"/>
<path d="M68.5759 64.7959C69.0239 64.7959 69.3739 64.4879 69.3739 64.0539C69.3739 63.6059 69.0239 63.3119 68.5759 63.3119C68.1279 63.3119 67.7779 63.6059 67.7779 64.0539C67.7779 64.4879 68.1279 64.7959 68.5759 64.7959ZM67.9879 72.4999C67.9879 72.776 68.2117 72.9999 68.4879 72.9999H68.6359C68.912 72.9999 69.1359 72.776 69.1359 72.4999V66.6959C69.1359 66.4198 68.912 66.1959 68.6359 66.1959H68.4879C68.2117 66.1959 67.9879 66.4198 67.9879 66.6959V72.4999Z" stroke="#0048B3" stroke-width="0.4" mask="url(#path-3-outside-1)"/>
<path d="M71.6292 70.8999C71.6292 72.2439 72.1192 73.1679 73.5752 73.1679C73.8585 73.1679 74.161 73.1106 74.4439 73.0345C74.6663 72.9748 74.7905 72.7429 74.733 72.5199V72.5199C74.6679 72.2678 74.3998 72.1346 74.1456 72.1911C74.0395 72.2147 73.9349 72.2299 73.8412 72.2299C73.0572 72.2299 72.7912 71.7539 72.7912 70.9139V67.6339C72.7912 67.3578 73.015 67.1339 73.2912 67.1339H74.1562C74.4152 67.1339 74.6252 66.9239 74.6252 66.6649V66.6649C74.6252 66.4059 74.4152 66.1959 74.1562 66.1959H73.2912C73.015 66.1959 72.7912 65.972 72.7912 65.6959V64.7919C72.7912 64.5158 72.5666 64.2919 72.2904 64.2919V64.2919C72.0285 64.2919 71.8103 64.494 71.7911 64.7552L71.7171 65.7622C71.6988 66.0109 71.5001 66.2081 71.2512 66.2245L71.04 66.2384C70.8044 66.2539 70.6212 66.4495 70.6212 66.6856V66.6856C70.6212 66.9332 70.8219 67.1339 71.0694 67.1339H71.1292C71.4053 67.1339 71.6292 67.3578 71.6292 67.6339V70.8999Z" stroke="#0048B3" stroke-width="0.4" mask="url(#path-3-outside-1)"/>
<path d="M75.5229 69.6119C75.5229 71.8379 76.9649 73.1679 78.7849 73.1679C79.5383 73.1679 80.1613 72.9539 80.6844 72.6699C80.8809 72.5633 80.9433 72.316 80.8376 72.119V72.119C80.7196 71.8993 80.4408 71.8296 80.2165 71.9385C79.8245 72.1289 79.4016 72.2439 78.9249 72.2439C77.7856 72.2439 76.9678 71.5363 76.725 70.3744C76.6662 70.0932 76.899 69.8499 77.1863 69.8499H80.8254C81.0698 69.8499 81.2781 69.6726 81.2872 69.4284C81.2897 69.3609 81.2909 69.291 81.2909 69.2199C81.2909 67.2739 80.3109 66.0279 78.5749 66.0279C77.0209 66.0279 75.5229 67.3859 75.5229 69.6119ZM77.1965 69.0939C76.9003 69.0939 76.6647 68.8353 76.7436 68.5498C77.029 67.5167 77.785 66.9379 78.6029 66.9379C79.5315 66.9379 80.1189 67.5244 80.2533 68.595C80.2877 68.869 80.0591 69.0939 79.7829 69.0939H77.1965Z" stroke="#0048B3" stroke-width="0.4" mask="url(#path-3-outside-1)"/>
<path d="M82.8742 70.5079C82.8742 72.2439 83.5182 73.1679 84.9602 73.1679C85.8937 73.1679 86.5637 72.6827 87.191 71.9467C87.1968 71.9399 87.2054 71.9359 87.2144 71.9359V71.9359C87.2302 71.9359 87.2433 71.9479 87.2448 71.9637L87.2986 72.5477C87.3222 72.8039 87.5371 72.9999 87.7944 72.9999V72.9999C88.0693 72.9999 88.2922 72.777 88.2922 72.502V66.6959C88.2922 66.4198 88.0684 66.1959 87.7922 66.1959H87.6442C87.3681 66.1959 87.1442 66.4198 87.1442 66.6959V70.8493C87.1442 70.9636 87.1055 71.0749 87.0319 71.1623C86.4418 71.8639 85.969 72.1739 85.3102 72.1739C84.4142 72.1739 84.0362 71.6279 84.0362 70.3539V66.6959C84.0362 66.4198 83.8124 66.1959 83.5362 66.1959H83.3742C83.0981 66.1959 82.8742 66.4198 82.8742 66.6959V70.5079Z" stroke="#0048B3" stroke-width="0.4" mask="url(#path-3-outside-1)"/>
<path d="M90.5875 72.4999C90.5875 72.776 90.8113 72.9999 91.0875 72.9999H91.2355C91.5116 72.9999 91.7355 72.776 91.7355 72.4999V68.7287C91.7355 68.6648 91.7475 68.6011 91.7726 68.5422C92.2337 67.462 92.8987 67.0639 93.4575 67.0639C93.5027 67.0639 93.5447 67.065 93.5842 67.0671C93.8765 67.0829 94.17 66.9306 94.2335 66.6449L94.2502 66.5695C94.3021 66.3362 94.1822 66.0886 93.9461 66.0514C93.8446 66.0354 93.7355 66.0279 93.6115 66.0279C92.8458 66.0279 92.1494 66.5677 91.6874 67.4134C91.6825 67.4223 91.6732 67.4279 91.663 67.4279V67.4279C91.6486 67.4279 91.6366 67.4168 91.6354 67.4025L91.5757 66.6516C91.5553 66.3943 91.3405 66.1959 91.0824 66.1959V66.1959C90.809 66.1959 90.5875 66.4175 90.5875 66.6908V72.4999Z" stroke="#0048B3" stroke-width="0.4" mask="url(#path-3-outside-1)"/>
<path d="M7 84L16.6851 91.0437C17.5397 91.6652 18.5692 92 19.6259 92H78.5M104 92H123C125.761 92 128 89.7614 128 87V52.7192C128 51.9181 127.808 51.1288 127.439 50.4176L121 38" stroke="#0048B3" stroke-width="5" stroke-linecap="round" stroke-linejoin="round"/>
</svg>
