<svg width="131" height="131" viewBox="0 0 131 131" fill="none" xmlns="http://www.w3.org/2000/svg">
<path d="M30.1656 111.949C31.2256 115.999 34.9058 119 39.2828 119H44.0468C46.5634 119 48.9312 118.021 50.7082 116.243C51.9135 115.04 52.74 113.562 53.1557 111.95H56.1713C57.1468 111.95 57.984 111.362 58.3521 110.521H108.731C110.046 110.521 111.113 109.454 111.113 108.139V15.382C111.113 14.0671 110.046 13 108.731 13H37.27C35.9551 13 34.888 14.0671 34.888 15.382V48.7375C26.5747 51.5078 20.5696 59.1588 20.0408 67.9544C19.7419 72.9376 21.0901 77.7005 23.9366 81.7237C27.0118 86.0935 28.8174 90.8969 29.2164 95.7288H27.1464C25.8315 95.7288 24.7644 96.796 24.7644 98.1108V109.568C24.7644 110.883 25.8315 111.95 27.1464 111.95H30.1656V111.949ZM29.5284 100.492H31.6841H51.6336H53.7905V107.185H51.0857H32.232H29.5284V100.492ZM47.3412 112.872C46.4622 113.751 45.2914 114.236 44.0468 114.236H39.2828C37.5773 114.236 36.0825 113.318 35.2679 111.949H48.0582C47.8616 112.282 47.6211 112.592 47.3412 112.872ZM39.652 17.764H106.349V105.756H58.5533V98.1097C58.5533 96.7948 57.4862 95.7276 56.1713 95.7276H54.1216C54.1716 95.1381 54.2371 94.5497 54.3241 93.9661C54.3467 93.8113 54.3765 93.6577 54.4015 93.5028C54.4825 93.0074 54.5778 92.5155 54.6861 92.026C54.7242 91.8521 54.7612 91.6782 54.804 91.5043C54.9541 90.8826 55.1185 90.2633 55.3114 89.6523C56.1654 86.9368 57.454 84.388 59.1417 82.0798C61.8739 78.3436 63.3174 73.9238 63.3174 69.2991C63.3174 63.3178 60.933 57.7487 56.6037 53.6194C52.2791 49.4938 46.5992 47.3702 40.6012 47.662C40.2844 47.6787 39.9676 47.7013 39.6508 47.7323V17.764H39.652ZM27.8288 78.9761C25.6124 75.8425 24.5631 72.1289 24.7953 68.2391C25.2372 60.8894 30.5932 54.5603 37.8119 52.8477C38.8076 52.6154 39.8271 52.4713 40.8371 52.4201C45.5118 52.1807 49.9435 53.8493 53.3165 57.0662C56.6942 60.2867 58.5533 64.6327 58.5533 69.2991C58.5533 72.9067 57.4278 76.3546 55.2971 79.2679C53.301 81.9989 51.7765 85.0121 50.7677 88.2219C50.5402 88.9424 50.3461 89.6737 50.1686 90.4074C50.1162 90.6253 50.0722 90.8433 50.0245 91.0624C49.9054 91.602 49.8006 92.1451 49.7101 92.6906C49.672 92.9204 49.6327 93.1503 49.5993 93.3802C49.5052 94.0293 49.429 94.6807 49.3754 95.3358C49.3671 95.4394 49.3516 95.5406 49.3444 95.6443C49.3433 95.6717 49.3385 95.7014 49.3361 95.7288H33.9947C33.5909 89.9167 31.4817 84.1665 27.8288 78.9761Z" fill="#0048B3"/>
<path d="M75.9849 51.5492L70.6718 56.8623L68.5971 54.7876C67.6669 53.8574 66.1591 53.8574 65.2289 54.7876C64.2987 55.7177 64.2987 57.2256 65.2289 58.1557L68.9877 61.9146C69.4534 62.3803 70.062 62.6125 70.6718 62.6125C71.2816 62.6125 71.8902 62.3803 72.3559 61.9146L79.3531 54.9174C80.2833 53.9872 80.2833 52.4794 79.3531 51.5492C78.4229 50.619 76.9151 50.619 75.9849 51.5492Z" fill="#0048B3"/>
<path d="M85.8019 54.9834C84.4871 54.9834 83.4199 56.0505 83.4199 57.3654C83.4199 58.6803 84.4871 59.7474 85.8019 59.7474H97.7871C99.102 59.7474 100.169 58.6803 100.169 57.3654C100.169 56.0505 99.102 54.9834 97.7871 54.9834H85.8019Z" fill="#0048B3"/>
<path d="M75.9849 68.4505L70.6718 73.7636L68.5971 71.6889C67.6669 70.7587 66.1591 70.7587 65.2289 71.6889C64.2987 72.6191 64.2987 74.1269 65.2289 75.0571L68.9877 78.8159C69.4534 79.2816 70.062 79.5138 70.6718 79.5138C71.2816 79.5138 71.8902 79.2816 72.3559 78.8159L79.3531 71.8187C80.2833 70.8885 80.2833 69.3807 79.3531 68.4505C78.4229 67.5203 76.9151 67.5192 75.9849 68.4505Z" fill="#0048B3"/>
<path d="M97.7871 71.8838H85.8019C84.4871 71.8838 83.4199 72.9509 83.4199 74.2658C83.4199 75.5807 84.4871 76.6478 85.8019 76.6478H97.7871C99.102 76.6478 100.169 75.5807 100.169 74.2658C100.169 72.9509 99.102 71.8838 97.7871 71.8838Z" fill="#0048B3"/>
<path d="M75.9849 85.3505L70.6718 90.6636L68.5971 88.5888C67.6669 87.6586 66.1591 87.6586 65.2289 88.5888C64.2987 89.519 64.2987 91.0268 65.2289 91.957L68.9877 95.7158C69.4534 96.1815 70.062 96.4138 70.6718 96.4138C71.2816 96.4138 71.8902 96.1815 72.3559 95.7158L79.3531 88.7186C80.2833 87.7885 80.2833 86.2806 79.3531 85.3505C78.4229 84.4203 76.9151 84.4203 75.9849 85.3505Z" fill="#0048B3"/>
<path d="M97.7871 88.7842H85.8019C84.4871 88.7842 83.4199 89.8513 83.4199 91.1662C83.4199 92.4811 84.4871 93.5482 85.8019 93.5482H97.7871C99.102 93.5482 100.169 92.4811 100.169 91.1662C100.169 89.8513 99.102 88.7842 97.7871 88.7842Z" fill="#0048B3"/>
<path d="M49.4758 40.1431H96.5207C97.8356 40.1431 98.9027 39.076 98.9027 37.7611V25.6545C98.9027 24.3396 97.8356 23.2725 96.5207 23.2725H49.4758C48.1609 23.2725 47.0938 24.3396 47.0938 25.6545V37.7611C47.0938 39.0772 48.1609 40.1431 49.4758 40.1431ZM51.8578 28.0365H94.1387V35.3791H51.8578V28.0365Z" fill="#0048B3"/>
</svg>
