<svg width="131" height="131" viewBox="0 0 131 131" fill="none" xmlns="http://www.w3.org/2000/svg">
<path d="M49 110H109V15H36V47" stroke="#0048B3" stroke-width="5" stroke-linecap="round" stroke-linejoin="round"/>
<path d="M25.6181 96C25.1181 92.3333 22.9181 83.5 18.1181 77.5C12.1181 70 13.1181 48 36.1181 48" stroke="#0048B3" stroke-width="5" stroke-linecap="round"/>
<path d="M46.6182 96C47.1182 92.3333 49.3182 83.5 54.1182 77.5C60.1182 70 59.1182 48 36.1182 48" stroke="#0048B3" stroke-width="5" stroke-linecap="round"/>
<path d="M83 30.7826L89.0938 37L98 26" stroke="#0048B3" stroke-width="4" stroke-linecap="round" stroke-linejoin="round"/>
<path d="M83 49.7826L89.0938 56L98 45" stroke="#0048B3" stroke-width="4" stroke-linecap="round" stroke-linejoin="round"/>
<path d="M83 68.7826L89.0938 75L98 64" stroke="#0048B3" stroke-width="4" stroke-linecap="round" stroke-linejoin="round"/>
<path d="M83 87.7826L89.0938 94L98 83" stroke="#0048B3" stroke-width="4" stroke-linecap="round" stroke-linejoin="round"/>
<line x1="51" y1="32" x2="72" y2="32" stroke="#0048B3" stroke-width="4" stroke-linecap="round" stroke-linejoin="round"/>
<line x1="51" y1="52" x2="72" y2="52" stroke="#0048B3" stroke-width="4" stroke-linecap="round" stroke-linejoin="round"/>
<line x1="51" y1="89" x2="72" y2="89" stroke="#0048B3" stroke-width="4" stroke-linecap="round" stroke-linejoin="round"/>
<path d="M58.5 69.5H71.5" stroke="#0048B3" stroke-width="4" stroke-linecap="round" stroke-linejoin="round"/>
<rect x="22" y="98" width="28" height="12" stroke="#0048B3" stroke-width="5" stroke-linecap="round" stroke-linejoin="round"/>
<path d="M45 112C45 116.418 40.9706 120 36 120C31.0294 120 27 116.418 27 112" stroke="#0048B3" stroke-width="5"/>
</svg>
