<svg width="131" height="131" viewBox="0 0 131 131" fill="none" xmlns="http://www.w3.org/2000/svg">
<path d="M50.2271 21.0028C49.1048 21.1168 48.1607 22.1379 48.1667 23.2312V28.431H31.3C31.2202 28.4272 31.1402 28.4272 31.0604 28.431C29.9382 28.5449 28.994 29.5661 29 30.6594V41.0589C29.0044 42.0187 29.7234 42.9344 30.6771 43.1945L32.8334 43.798V70.7715C32.8335 71.9384 33.9291 72.9998 35.1334 73H91.8667C93.0709 72.9998 94.1665 71.9384 94.1667 70.7715V43.798L96.3229 43.1945C97.2766 42.9344 97.9957 42.0187 98 41.0589V30.6594C97.9999 29.4926 96.9042 28.4311 95.7 28.431H78.8333V23.2312C78.8332 22.0645 77.7376 21.0029 76.5333 21.0028H50.4667C50.3869 20.9991 50.3069 20.9991 50.2271 21.0028ZM52.7667 25.4597H74.2333V28.431H52.7667V25.4597ZM33.6 32.8879H93.4V39.3643L71.1667 45.5158V44.7729C71.1666 43.6062 70.0709 42.5446 68.8667 42.5445H58.1334C56.9291 42.5446 55.8335 43.6062 55.8334 44.7729V45.5158L33.6 39.3643V32.8879ZM37.4334 45.0747L55.8334 50.1584V52.2011C55.8335 53.3679 56.9291 54.4294 58.1334 54.4296H68.8667C70.0023 54.4343 71.0601 53.5055 71.1667 52.41C71.1701 52.3404 71.1701 52.2709 71.1667 52.2011V50.1584L89.5667 45.0747V68.5431H37.4334V45.0747ZM60.4333 47.0014H66.5667V49.9727H60.4333V47.0014Z" fill="#0048B3"/>
<path d="M93.5 98.5V83H35V98.5" stroke="#0048B3" stroke-width="5" stroke-linecap="round" stroke-linejoin="round"/>
<path d="M115 115V99H72V115" stroke="#0048B3" stroke-width="5" stroke-linecap="round" stroke-linejoin="round"/>
<path d="M56 115V99H13V115" stroke="#0048B3" stroke-width="5" stroke-linecap="round" stroke-linejoin="round"/>
</svg>
