<svg width="131" height="131" viewBox="0 0 131 131" fill="none" xmlns="http://www.w3.org/2000/svg">
<path d="M65.7276 54.0518C59.2983 54.0518 54.1055 59.2446 54.1055 65.6739C54.1055 72.1032 59.2983 77.2961 65.7276 77.2961C72.1569 77.2961 77.3498 72.1032 77.3498 65.6739C77.3498 59.2446 72.1569 54.0518 65.7276 54.0518ZM65.7276 72.1032C62.1421 72.1032 59.2983 69.2595 59.2983 65.6739C59.2983 62.0884 62.1421 59.2446 65.7276 59.2446C69.3132 59.2446 72.1569 62.0884 72.1569 65.6739C72.1569 69.2595 69.3132 72.1032 65.7276 72.1032Z" fill="#0048B3"/>
<path d="M38.1573 54.0518C31.728 54.0518 26.5352 59.2446 26.5352 65.6739C26.5352 72.1032 31.728 77.2961 38.1573 77.2961C44.5866 77.2961 49.7795 72.1032 49.7795 65.6739C49.7795 59.2446 44.5866 54.0518 38.1573 54.0518ZM38.1573 72.1032C34.5718 72.1032 31.728 69.2595 31.728 65.6739C31.728 62.0884 34.5718 59.2446 38.1573 59.2446C41.7429 59.2446 44.7102 62.0884 44.7102 65.6739C44.7102 69.2595 41.7429 72.1032 38.1573 72.1032Z" fill="#0048B3"/>
<path d="M93.3018 54.0518C86.8726 54.0518 81.6797 59.2446 81.6797 65.6739C81.6797 72.1032 86.8726 77.2961 93.3018 77.2961C99.7311 77.2961 104.924 72.1032 104.924 65.6739C104.924 59.2446 99.7311 54.0518 93.3018 54.0518ZM93.3018 72.1032C89.7163 72.1032 86.8726 69.2595 86.8726 65.6739C86.8726 62.0884 89.7163 59.2446 93.3018 59.2446C96.8874 59.2446 99.7311 62.0884 99.7311 65.6739C99.7311 69.2595 96.8874 72.1032 93.3018 72.1032Z" fill="#0048B3"/>
<path d="M94.7843 36H36.6736C20.3531 36 7 49.3531 7 65.6736C7 81.9941 20.3531 95.3472 36.6736 95.3472H94.7843C111.105 95.3472 124.458 81.9941 124.458 65.6736C124.458 49.3531 111.105 36 94.7843 36ZM94.7843 90.1543H36.6736C23.1968 90.1543 12.1929 79.1503 12.1929 65.6736C12.1929 52.1968 23.1968 41.1929 36.6736 41.1929H94.7843C108.261 41.1929 119.265 52.1968 119.265 65.6736C119.265 79.1503 108.261 90.1543 94.7843 90.1543Z" fill="#0048B3"/>
</svg>
