<svg id="Calque_1" xmlns="http://www.w3.org/2000/svg" viewBox="0 0 105 105"><style>.st0{fill:#a75a29}.st1{fill:#fffffe}</style><path class="st0" d="M0 63.7v33.6c0 4.1 3.3 7.4 7.4 7.4H35v-41H0z"/><path class="st0" d="M72 10.1h24.1v7.6H80.3v9h15.8v7.8H80.3v8.8h24.6V7.7c0-4.1-3.3-7.4-7.4-7.4H68v50.5h-7.9l-17-25.5v25.5h-8.3V17.9h-17c-2.7 0-3.8 1-3.8 4.1v18.9c0 2 1.7 2.9 3.7 2.9h13.1v7H13.9c-3.4 0-8.1-2.1-8.1-9.3V18c0-5.5 5.9-8.1 9.6-8.1h27.1l17.4 24.9V.3H7.4C3.3.3 0 3.6 0 7.7V56h56.3v7.5H42.8v41.2h54.7c4.1 0 7.4-3.3 7.4-7.4V50.6H72V10.1zM88.2 56c4.4 0 7.9 1.7 7.9 7.7v7.1c0 3.6-1.7 8.6-7.8 8.6H68.2v17.2H60L59.9 56h28.3z"/><path class="st1" d="M42.5 9.9H15.4c-3.6 0-9.6 2.6-9.6 8.1v23.5c0 7.1 4.8 9.3 8.1 9.3h16.9v-7H17.7c-1.9 0-3.7-.9-3.7-2.9V22c0-3.1 1.1-4.1 3.8-4.1h17v32.9h8.3V25.3l17 25.5H68V.3h-8.1v34.6l-17.4-25zM80.3 43.3v-8.8h15.8v-7.8H80.3v-8.9h15.8v-7.7H72v40.5h32.9v-7.3zM56.3 63.5V56H0v7.7h35v41h7.8V63.5zM60 96.6h8.2V79.4h20.1c6.1 0 7.8-5 7.8-8.6v-7.1c0-6-3.5-7.7-7.9-7.7H59.9l.1 40.6zm8.4-32.9h17.8c1.6 0 2.4-.2 2.4 1.6v4.4c0 1.2-.4 1.9-2.8 1.9H68.4v-7.9z"/><path class="st0" d="M88.6 69.8v-4.4c0-1.8-.8-1.6-2.4-1.6H68.4v8h17.4c2.4 0 2.8-.8 2.8-2z"/></svg>