<svg width="126" height="111" viewBox="0 0 126 111" fill="none" xmlns="http://www.w3.org/2000/svg">
<g clip-path="url(#clip0)">
<path d="M0.0510254 29.3223H4.53824C7.76597 29.3223 9.75745 30.9843 9.75745 33.7186C9.75745 35.4856 8.89998 36.8096 7.41044 37.5252L12.0231 44.0522H8.45846L4.55916 38.094H3.02082V44.0568H0.0510254V29.3223ZM3.02082 31.8678V35.5485H4.69859C5.95575 35.5485 6.69006 34.8748 6.69006 33.6837C6.69006 32.5694 5.95575 31.8748 4.69859 31.8748L3.02082 31.8678Z" fill="black"/>
<path d="M13.8684 29.3222H22.4222V31.8678H16.8452V35.2757H21.5834V37.8189H16.8452V41.4927H22.4222V44.0568H13.8684V29.3222ZM16.7615 28.0611L19.1318 25.2219H22.1922L19.4664 28.0611H16.7615Z" fill="black"/>
<path d="M25.8823 29.3223H30.7251C33.9551 29.3223 35.9257 30.9843 35.9257 33.7186C35.9257 36.4529 33.9551 38.094 30.7251 38.094H28.8661V44.0568H25.8823V29.3223ZM28.8591 31.8678V35.5485H30.8506C32.1101 35.5485 32.8653 34.8748 32.8653 33.6837C32.8653 32.5694 32.1101 31.8748 30.8506 31.8748L28.8591 31.8678Z" fill="black"/>
<path d="M47.0379 29.3223H50.0147V38.2828C50.0147 42.1524 47.7513 44.4648 44.0612 44.4648C40.371 44.4648 38.1262 42.1524 38.1262 38.2828V29.3223H41.1053V38.5346C41.1053 40.5113 42.2161 41.6675 44.0821 41.6675C45.9062 41.6675 47.0379 40.502 47.0379 38.5346V29.3223Z" fill="black"/>
<path d="M53.7048 29.3223H57.8876C60.9481 29.3223 62.7931 30.8374 62.7931 33.3177C62.7969 33.8934 62.6568 34.4608 62.3856 34.9682C62.1145 35.4756 61.7209 35.9067 61.2409 36.2222C62.7931 36.9215 63.6529 38.1779 63.6529 39.7188C63.6529 42.4111 61.5778 44.0522 58.2013 44.0522H53.7048V29.3223ZM56.6816 31.8678V35.0846H57.9411C59.0728 35.0846 59.7234 34.5182 59.7234 33.4669C59.7234 32.4785 59.0728 31.8678 57.9411 31.8678H56.6816ZM56.6816 37.6511V41.4927H58.3594C59.7536 41.4927 60.5832 40.7561 60.5832 39.5369C60.5832 38.3178 59.7443 37.6441 58.3594 37.6441L56.6816 37.6511Z" fill="black"/>
<path d="M66.6924 29.3223H69.6715V41.3318H75.2486V44.0568H66.6924V29.3223Z" fill="black"/>
<path d="M77.8606 29.3223H80.8374V44.0568H77.8606V29.3223Z" fill="black"/>
<path d="M100.336 45.0755C100.693 45.0812 101.047 45.0244 101.384 44.9077V47.4322C100.891 47.6285 100.363 47.7213 99.832 47.705C98.2054 47.705 96.6879 47.0313 95.2402 45.7702L93.4997 44.213C92.8427 44.3846 92.1662 44.4692 91.4873 44.4648C86.8537 44.4648 83.6887 40.8913 83.6887 36.6837C83.6887 32.4762 86.8537 28.905 91.4873 28.905C96.1209 28.905 99.2673 32.4809 99.2673 36.6861C99.2778 37.8627 99.0228 39.0264 98.5214 40.0901C98.02 41.1538 97.2851 42.09 96.3719 42.8284L97.2526 43.6699C98.3866 44.6979 99.3928 45.0755 100.336 45.0755ZM96.2046 36.6837C96.2046 33.8655 94.234 31.7 91.4873 31.7C88.7406 31.7 86.7491 33.8655 86.7491 36.6837C86.7491 39.502 88.7197 41.6675 91.4873 41.6675C94.2549 41.6675 96.2046 39.502 96.2046 36.6837Z" fill="black"/>
<path d="M110.777 29.3223H113.754V38.2828C113.754 42.1524 111.49 44.4648 107.8 44.4648C104.11 44.4648 101.868 42.1524 101.868 38.2828V29.3223H104.844V38.5346C104.844 40.5113 105.955 41.6675 107.821 41.6675C109.645 41.6675 110.777 40.502 110.777 38.5346V29.3223Z" fill="black"/>
<path d="M117.444 29.3223H126V31.8678H120.423V35.2758H125.161V37.8189H120.423V41.4927H126V44.0568H117.444V29.3223Z" fill="black"/>
<path d="M0.0510254 50.5513H8.59789V53.0968H3.02082V56.5048H7.76598V59.0479H3.02082V65.2695H0.0510254V50.5513Z" fill="black"/>
<path d="M11.2261 50.5513H15.7133C18.9433 50.5513 20.9348 52.2133 20.9348 54.9476C20.9348 56.7146 20.075 58.0386 18.5855 58.7542L23.1982 65.2812H19.6335L15.7342 59.323H14.2028V65.2695H11.2261V50.5513ZM14.2028 53.0968V56.7775H15.8806C17.1401 56.7775 17.8721 56.1038 17.8721 54.9127C17.8721 53.7984 17.1401 53.1038 15.8806 53.1038L14.2028 53.0968Z" fill="black"/>
<path d="M29.3843 50.5513H33.2836L38.8398 65.2695H35.6748L34.2689 61.4419H28.399L27.0047 65.2695H23.8281L29.3843 50.5513ZM33.3347 58.9011L31.3339 53.3812L29.3215 58.9127L33.3347 58.9011Z" fill="black"/>
<path d="M41.1055 50.5513H44.9211L51.4835 61.09V50.5513H54.4602V65.2695H50.6446L44.0822 54.6959V65.2695H41.1055V50.5513Z" fill="black"/>
<path d="M68.9488 60.8777L71.2958 62.6866C70.7022 63.4942 69.9491 64.1706 69.0836 64.6735C68.218 65.1764 67.2585 65.4951 66.2648 65.6098L64.4406 68.6611H61.7985L63.6436 65.5678C59.8279 64.8965 57.3113 61.6563 57.3113 57.9126C57.3113 53.7168 60.4786 50.1316 65.1122 50.1316C67.7729 50.1316 69.955 51.3298 71.2958 53.1177L68.9488 54.9475C68.5243 54.3203 67.952 53.8079 67.2827 53.4558C66.6135 53.1036 65.8679 52.9226 65.1122 52.9289C62.3446 52.9289 60.374 55.0944 60.374 57.9126C60.374 60.7309 62.3446 62.8964 65.1122 62.8964C65.868 62.9031 66.6137 62.7222 67.283 62.3701C67.9524 62.0179 68.5246 61.5052 68.9488 60.8777Z" fill="black"/>
<path d="M77.4817 50.5513H81.381L86.9372 65.2695H83.7722L82.3663 61.4419H76.4964L75.1021 65.2695H71.9255L77.4817 50.5513ZM81.4437 58.9011L79.4314 53.3812L77.419 58.9127L81.4437 58.9011Z" fill="black"/>
<path d="M89.2029 50.5513H92.1796V65.2695H89.2029V50.5513Z" fill="black"/>
<path d="M97.134 61.2367C98.0147 62.3719 99.1906 63.0456 100.387 63.0456C101.584 63.0456 102.274 62.4139 102.274 61.3416C102.274 58.7122 95.5655 59.3019 95.5655 54.3997C95.5655 52.0687 97.4733 50.1316 100.262 50.1316C102.462 50.1316 104.161 51.12 105.397 52.6118L103.218 54.5699C102.358 53.4533 101.393 52.74 100.283 52.74C99.2556 52.74 98.584 53.4114 98.584 54.2739C98.584 56.9033 105.293 56.2926 105.293 61.267C105.251 64.0013 103.113 65.682 100.429 65.682C97.9543 65.682 96.2789 64.7776 94.9775 63.2228L97.134 61.2367Z" fill="black"/>
<path d="M108.409 50.5513H116.963V53.0968H111.386V56.5048H116.124V59.0479H111.386V62.7287H116.963V65.2695H108.409V50.5513Z" fill="black"/>
<path d="M47.8071 105.925C48.2067 105.925 48.5507 106.228 48.3671 106.995L46.5081 107.427C46.8311 106.564 47.3679 105.925 47.7978 105.925H47.8071ZM48.8202 108.916H48.4554C47.9906 109.466 47.498 109.898 47.003 109.898C46.5081 109.898 46.2385 109.597 46.2385 108.916C46.2396 108.64 46.2684 108.366 46.3245 108.096L49.3059 107.114C49.8868 105.732 49.1874 105.128 48.3764 105.128C46.9659 105.128 45.3555 107.492 45.3555 109.557C45.3555 110.49 45.797 110.993 46.4848 110.993C47.2935 110.993 48.1324 110.205 48.8086 108.909L48.8202 108.916ZM48.2184 104.571L50.3098 102.606V102.373H49.1781L47.8884 104.564L48.2184 104.571ZM41.7838 105.951H42.7738L41.2215 110.259C41.082 110.625 41.2772 110.993 41.6537 110.993C42.546 110.993 43.9891 110.107 44.4934 108.895H44.2145C43.8148 109.317 43.0526 109.879 42.395 109.998L43.838 105.949H45.3136L45.4972 105.333H44.0658L44.6142 103.781H44.0449L43.0224 105.333L41.8071 105.506L41.7838 105.951ZM40.4476 105.746C40.4773 105.682 40.4913 105.612 40.4886 105.542C40.4858 105.472 40.4663 105.403 40.4317 105.342C40.3972 105.281 40.3485 105.229 40.2898 105.191C40.2312 105.152 40.1642 105.128 40.0944 105.121C39.2323 105.121 38.2098 105.897 37.8009 106.986H38.1099C38.3888 106.587 38.8628 106.145 39.3043 106.068L37.6452 110.373C37.6126 110.437 37.5964 110.508 37.598 110.579C37.5995 110.651 37.6188 110.721 37.6541 110.783C37.6894 110.845 37.7395 110.898 37.8 110.935C37.8605 110.973 37.9295 110.996 38.0007 111C38.8187 111 39.7761 110.212 40.1851 109.135H39.9062C39.625 109.534 39.151 109.977 38.7118 110.051L40.4476 105.746ZM40.7497 103.587C40.843 103.588 40.9354 103.57 41.0217 103.534C41.1079 103.498 41.1863 103.446 41.2524 103.38C41.3185 103.314 41.3709 103.235 41.4066 103.149C41.4424 103.063 41.4608 102.97 41.4608 102.876C41.4608 102.687 41.3859 102.506 41.2525 102.372C41.1192 102.238 40.9383 102.163 40.7497 102.163C40.5611 102.163 40.3803 102.238 40.2469 102.372C40.1136 102.506 40.0387 102.687 40.0387 102.876C40.0371 102.97 40.0544 103.064 40.0896 103.151C40.1248 103.238 40.1772 103.317 40.2436 103.383C40.3099 103.45 40.389 103.502 40.4759 103.537C40.5629 103.572 40.656 103.589 40.7497 103.587ZM31.2687 110.194C31.0549 110.681 31.2687 110.993 31.7544 110.993C32.0449 110.993 32.1727 110.916 32.2912 110.604L33.4322 107.573C33.9597 106.925 35.0472 106.235 35.4771 106.235C35.7885 106.235 35.7466 106.494 35.5421 106.883L33.8086 110.259C33.7677 110.334 33.7469 110.419 33.7482 110.504C33.7496 110.59 33.773 110.674 33.8163 110.748C33.8596 110.822 33.9212 110.883 33.9952 110.926C34.0692 110.969 34.153 110.992 34.2385 110.993C35.1006 110.993 36.1231 110.215 36.5321 109.128H36.2509C35.972 109.527 35.498 109.97 35.0565 110.044L36.5623 106.991C36.7372 106.668 36.8373 106.311 36.8551 105.944C36.8667 105.835 36.8543 105.725 36.8187 105.622C36.783 105.518 36.7251 105.424 36.6489 105.346C36.5728 105.267 36.4804 105.207 36.3782 105.168C36.2761 105.13 36.1668 105.115 36.058 105.124C35.3144 105.124 34.5615 105.965 33.6692 107V106.203C33.6692 105.629 33.4856 105.124 32.972 105.124C32.649 105.124 32.3377 105.403 32.0425 105.802V105.911C32.6002 105.879 32.8489 106.72 32.4515 107.606L31.2687 110.194ZM31.2478 106.438C31.4523 105.739 31.3454 105.121 30.8063 105.121C30.1719 105.121 30.0116 105.606 29.3655 106.998V106.2C29.3655 105.627 29.182 105.121 28.6684 105.121C28.0665 105.121 27.5065 106.054 27.0975 106.986H27.3764C27.6669 106.564 27.9364 106.317 28.1525 106.317C28.4105 106.317 28.5499 106.716 28.1525 107.601L26.9906 110.191C26.7768 110.678 26.9906 110.991 27.4763 110.991C27.7668 110.991 27.8946 110.914 28.0131 110.601L29.1541 107.571C29.4771 107.173 29.7676 106.825 30.1347 106.438H31.2478ZM24.6413 105.918C25.0387 105.918 25.3849 106.221 25.2013 106.988L23.3423 107.42C23.6653 106.557 24.2044 105.918 24.6343 105.918H24.6413ZM25.6568 108.909H25.3291C24.8644 109.459 24.3717 109.891 23.8768 109.891C23.3818 109.891 23.1146 109.59 23.1146 108.909C23.1145 108.633 23.1433 108.358 23.2006 108.089L26.1796 107.107C26.7606 105.725 26.0611 105.121 25.2501 105.121C23.8419 105.121 22.2292 107.485 22.2292 109.55C22.2292 110.483 22.6707 110.986 23.3586 110.986C24.1649 110.986 25.0061 110.198 25.6823 108.902L25.6568 108.909ZM18.6576 105.958H19.6475L18.0766 110.259C17.9372 110.625 18.1301 110.993 18.5065 110.993C19.4012 110.993 20.8303 110.107 21.3485 108.895H21.0673C20.67 109.317 19.9054 109.879 19.2501 109.998L20.6816 105.958H22.1572L22.3384 105.343H20.914L21.4624 103.79H20.8954L19.8729 105.343L18.6576 105.515V105.958ZM13.2246 109.326C13.2246 108 14.6978 106.198 15.5274 106.198C15.6976 106.196 15.8672 106.218 16.0317 106.261L15.1719 108.562C14.6769 109.166 13.9124 109.9 13.5452 109.9C13.3408 109.9 13.2129 109.727 13.2129 109.326H13.2246ZM17.742 104.897L17.2912 104.865L16.7846 105.361H16.6777C14.2238 105.361 12.1045 108.126 12.1045 110.133C12.0939 110.252 12.1093 110.371 12.1498 110.484C12.1902 110.596 12.2547 110.698 12.3387 110.782C12.4227 110.867 12.5241 110.932 12.6358 110.972C12.7475 111.013 12.8668 111.029 12.9852 111.019C13.6219 111.019 14.2447 110.112 14.9442 109.14L14.9116 109.485C14.8256 110.478 15.1277 111.019 15.6436 111.019C16.2455 111.019 16.8055 110.086 17.2145 109.154H16.9356C16.6568 109.56 16.3872 109.793 16.1711 109.793C15.955 109.793 15.7854 109.382 16.1711 108.508L17.742 104.897ZM12.5135 106.464C12.718 105.765 12.6088 105.147 12.072 105.147C11.4376 105.147 11.2749 105.632 10.6289 107.023V106.226C10.6289 105.653 10.4476 105.147 9.93177 105.147C9.32991 105.147 8.76988 106.079 8.36089 107.012H8.64207C8.93254 106.59 9.19978 106.343 9.41589 106.343C9.67383 106.343 9.81325 106.741 9.41589 107.627L8.254 110.217C8.03789 110.704 8.254 111.016 8.73734 111.016C8.80061 111.027 8.86541 111.026 8.92795 111.011C8.99048 110.996 9.04947 110.969 9.10145 110.932C9.15342 110.894 9.19733 110.846 9.23058 110.791C9.26383 110.736 9.28575 110.675 9.29505 110.611L10.436 107.58C10.759 107.182 11.0495 106.835 11.4143 106.448L12.5135 106.464ZM4.28266 110.783L4.38955 110.45C2.9581 110.18 2.7629 110.18 3.34617 108.613L3.92712 107.005H5.50961C6.21836 107.005 6.22998 107.296 6.12077 108.075H6.52975L7.47785 105.473H7.06887C6.71333 106.089 6.43448 106.541 5.65833 106.541H4.09908L4.92634 104.263C5.18661 103.541 5.33533 103.389 6.30434 103.389H7.00148C8.0007 103.389 8.11922 103.66 8.11922 104.674H8.51658L8.85121 102.904H2.90465L2.78847 103.238C3.93874 103.471 4.04563 103.585 3.50884 105.075L2.22611 108.613C1.68932 110.093 1.46159 110.212 0.134708 110.45L0.0371094 110.783H4.28266Z" fill="black"/>
<path d="M33.3996 92.4333C33.797 92.4333 34.1432 92.7363 33.9597 93.5009L32.1006 93.9345C32.4236 93.0697 32.9628 92.4333 33.3927 92.4333H33.3996ZM34.4151 95.424H34.0503C33.5855 95.9741 33.0906 96.4054 32.5956 96.4054C32.1006 96.4054 31.8334 96.1024 31.8334 95.424C31.8343 95.1483 31.8631 94.8734 31.9194 94.6035L34.8985 93.6198C35.4794 92.2398 34.78 91.6337 33.969 91.6337C32.5607 91.6337 30.948 93.9974 30.948 96.0627C30.948 96.9951 31.3896 97.4963 32.0774 97.4963C32.8837 97.4963 33.725 96.7084 34.4012 95.4147L34.4151 95.424ZM33.8086 91.0743L35.9 89.1092V88.8761H34.7707L33.4786 91.0673L33.8086 91.0743ZM27.3741 92.4566H28.364L26.7931 96.7644C26.6537 97.1303 26.8466 97.4963 27.223 97.4963C28.1177 97.4963 29.5584 96.6129 30.065 95.3984H29.7838C29.3865 95.8203 28.6219 96.3797 27.9666 96.4986L29.4074 92.4519H30.9062L31.0898 91.8365H29.6583L30.2068 90.2817H29.6351L28.6126 91.8365L27.3973 92.009L27.3741 92.4566ZM26.0402 92.2515C26.0698 92.1874 26.0838 92.1172 26.0809 92.0467C26.078 91.9762 26.0583 91.9074 26.0235 91.846C25.9887 91.7847 25.9398 91.7326 25.8809 91.694C25.8219 91.6554 25.7547 91.6316 25.6847 91.6244C24.8249 91.6244 23.8024 92.403 23.3934 93.4892H23.7025C23.9837 93.0906 24.4554 92.6477 24.8969 92.5731L23.2377 96.8809C23.2051 96.9445 23.1888 97.0152 23.1903 97.0866C23.1918 97.1581 23.2111 97.228 23.2465 97.2901C23.2818 97.3522 23.332 97.4044 23.3926 97.442C23.4532 97.4797 23.5221 97.5016 23.5933 97.5056C24.4112 97.5056 25.3686 96.7178 25.7776 95.6408H25.4965C25.2176 96.0417 24.7435 96.4846 24.302 96.5592L26.0402 92.2515ZM26.3423 90.0929C26.4829 90.0929 26.6204 90.0511 26.7374 89.9727C26.8543 89.8943 26.9454 89.7829 26.9993 89.6526C27.0531 89.5222 27.0672 89.3788 27.0397 89.2404C27.0123 89.1021 26.9446 88.975 26.8451 88.8752C26.7457 88.7755 26.619 88.7075 26.481 88.68C26.3431 88.6525 26.2001 88.6666 26.0702 88.7206C25.9403 88.7746 25.8292 88.866 25.7511 88.9833C25.6729 89.1006 25.6312 89.2385 25.6312 89.3796C25.6309 89.4734 25.6491 89.5662 25.6847 89.6529C25.7204 89.7396 25.7727 89.8184 25.8388 89.8847C25.9049 89.951 25.9834 90.0035 26.0698 90.0392C26.1562 90.075 26.2488 90.0932 26.3423 90.0929ZM20.6374 96.5569L23.6397 88.6663L23.5421 88.5474L21.6599 88.7642V88.9973L22.027 89.277C22.3593 89.5358 22.2594 89.7852 21.9504 90.5848L19.6057 96.7737C19.5646 96.8488 19.5437 96.9333 19.545 97.019C19.5463 97.1047 19.5697 97.1885 19.6131 97.2623C19.6564 97.3361 19.7182 97.3974 19.7922 97.44C19.8663 97.4827 19.9502 97.5053 20.0356 97.5056C20.8954 97.5056 21.8109 96.7294 22.2199 95.6408H21.9387C21.621 96.0858 21.1623 96.4096 20.6374 96.5592V96.5569ZM14.9349 95.825C14.9349 94.4963 16.4081 92.6944 17.2377 92.6944C17.4088 92.6921 17.5794 92.7141 17.7443 92.7596L16.8822 95.058C16.3872 95.6641 15.6227 96.3961 15.2695 96.3961C15.065 96.3961 14.9349 96.2236 14.9349 95.825ZM19.4639 91.396L19.0131 91.3633L18.5065 91.8435H18.3996C15.9457 91.8435 13.8264 94.6128 13.8264 96.6222C13.8161 96.741 13.8319 96.8607 13.8726 96.9727C13.9134 97.0848 13.9781 97.1865 14.0623 97.2707C14.1465 97.3549 14.2481 97.4196 14.3599 97.4602C14.4717 97.5008 14.591 97.5163 14.7095 97.5056C15.3439 97.5056 15.9689 96.5989 16.6684 95.6291L16.6359 95.9741C16.5499 96.9672 16.8497 97.5056 17.3655 97.5056C17.9697 97.5056 18.5274 96.5732 18.9387 95.6408H18.6576C18.3671 96.0627 18.0975 96.3098 17.8837 96.3098C17.67 96.3098 17.4957 95.8996 17.8837 95.0254L19.4639 91.396ZM8.50961 98.5546C8.50961 97.9812 9.06035 97.6222 9.84579 97.3122C10.2231 97.4849 10.6112 97.6328 11.0077 97.7551C11.8256 98.0255 12.137 98.1327 12.137 98.3821C12.137 98.9089 11.2447 99.3145 10.027 99.3145C9.0069 99.3145 8.50961 99.0978 8.50961 98.5593V98.5546ZM10.7381 95.0627C10.3826 95.0627 10.2432 94.7597 10.2432 94.4147C10.2432 93.4543 10.759 92.0393 11.5677 92.0393C11.9209 92.0393 12.0627 92.3424 12.0627 92.6874C12.0627 93.6478 11.5445 95.0627 10.7381 95.0627ZM13.0619 98.0208C13.0619 97.3215 12.4484 97.0884 11.4469 96.7784C10.5871 96.5196 10.199 96.445 10.199 96.163C10.199 95.9299 10.3826 95.6664 10.7474 95.4636C11.3632 95.4177 11.9406 95.1458 12.3692 94.6999C12.7979 94.254 13.0478 93.6653 13.0712 93.0463C13.0733 92.8421 13.033 92.6396 12.9527 92.4519H14.1471L14.3284 91.8365H12.4484C12.219 91.6954 11.9553 91.6204 11.6862 91.6197C11.0492 91.6268 10.439 91.8779 9.98057 92.3217C9.52217 92.7655 9.25031 93.3684 9.22069 94.0067C9.20618 94.3439 9.31368 94.6749 9.52337 94.9388C9.73306 95.2027 10.0308 95.3817 10.3617 95.4427C9.66453 95.755 9.27414 96.121 9.27414 96.5546C9.27012 96.6683 9.2946 96.7813 9.34535 96.8831C9.39609 96.9849 9.47148 97.0723 9.56461 97.1373C7.95191 97.6035 7.31519 98.1514 7.31519 98.9183C7.31519 99.6852 8.29583 100.002 9.45772 100.002C11.426 100.002 13.0735 98.9323 13.0735 98.0371L13.0619 98.0208ZM5.55144 93.4053C6.26252 93.4053 6.27181 93.6967 6.16492 94.4729H6.5739L7.51968 91.8715H7.11302C6.75748 92.4869 6.47631 92.9414 5.70249 92.9414H4.14091L4.92634 90.7712C5.18661 90.0486 5.33533 89.9064 6.30435 89.9064H7.00148C8.00071 89.9064 8.11922 90.1768 8.11922 91.1815H8.51659L8.85121 89.4099H2.90465L2.78847 89.7456C3.93874 89.9787 4.04563 90.0906 3.50884 91.5801L2.22611 95.121C1.68932 96.5989 1.46159 96.7177 0.134708 96.9555L0.0371094 97.2912H6.64827L7.83339 95.4124H7.38026C6.62735 96.1257 5.68157 96.811 4.35934 96.811C2.60489 96.811 2.76755 96.7364 3.3485 95.128L3.97127 93.4123L5.55144 93.4053ZM6.41356 88.8831L8.50497 87.4355V87.2024H7.24083L6.07894 88.8761L6.41356 88.8831Z" fill="black"/>
<path d="M32.7002 78.941C33.0975 78.941 33.4438 79.2417 33.2602 80.0086L31.4012 80.4399C31.7242 79.5774 32.2633 78.941 32.6932 78.941H32.7002ZM33.7157 81.9294H33.3485C32.8837 82.4819 32.3911 82.9131 31.8961 82.9131C31.4012 82.9131 31.1339 82.6101 31.1339 81.9294C31.1341 81.6537 31.1629 81.3787 31.2199 81.1089L34.199 80.1275C34.7799 78.7452 34.0805 78.1415 33.2695 78.1415C31.8613 78.1415 30.2486 80.5051 30.2486 82.5705C30.2486 83.5029 30.6901 84.0064 31.3779 84.0064C32.1843 84.0064 33.0255 83.2185 33.7133 81.9224L33.7157 81.9294ZM33.1208 77.5843L35.2122 75.6193V75.3862H34.0828L32.7908 77.5773L33.1208 77.5843ZM26.9558 78.9736H27.7412L26.1703 83.2791C26.0309 83.6474 26.2238 84.0134 26.6002 84.0134C27.4926 84.0134 28.924 83.1276 29.4422 81.9154H29.161C28.7637 82.335 27.9992 82.8968 27.3438 83.0157L28.7846 78.969H30.2602L30.4414 78.3536H29.01L29.5607 76.7988H28.9891L27.9666 78.3536L26.9558 78.5261V78.9736ZM26.182 79.4585C26.3865 78.7592 26.2772 78.1415 25.7404 78.1415C25.1037 78.1415 24.9434 78.6263 24.2974 80.0203V79.2207C24.2974 78.6496 24.1138 78.1415 23.6002 78.1415C22.9984 78.1415 22.4384 79.0739 22.0294 80.0063H22.3082C22.5987 79.5867 22.8659 79.3373 23.082 79.3373C23.34 79.3373 23.4794 79.7359 23.082 80.6217L21.9201 83.2115C21.704 83.6987 21.9201 84.011 22.4035 84.011C22.526 84.0281 22.6504 83.9972 22.7508 83.9247C22.8512 83.8522 22.9199 83.7437 22.9426 83.6218L24.0836 80.5914C24.4043 80.1928 24.6971 79.8478 25.0619 79.4585H26.182ZM19.5731 78.941C19.9728 78.941 20.3167 79.2417 20.1332 80.0086L18.2741 80.4399C18.5971 79.5774 19.1339 78.941 19.5638 78.941H19.5731ZM20.5863 81.9294H20.2401C19.7753 82.4819 19.2827 82.9131 18.7877 82.9131C18.2927 82.9131 18.0232 82.6101 18.0232 81.9294C18.0243 81.6537 18.0532 81.3788 18.1091 81.1089L21.0906 80.1275C21.6715 78.7452 20.972 78.1415 20.161 78.1415C18.7505 78.1415 17.1401 80.5051 17.1401 82.5705C17.1401 83.5029 17.5816 84.0064 18.2695 84.0064C19.0782 84.0064 19.917 83.2185 20.5933 81.9224L20.5863 81.9294ZM13.2873 83.1322C12.9968 83.1322 12.5762 82.8618 12.5762 82.6241C12.6533 82.3409 12.7503 82.0636 12.8667 81.7942L13.3524 80.5098C13.8682 79.8944 14.6537 79.2347 15.0952 79.2347C15.3648 79.2347 15.56 79.4072 15.56 79.8082C15.56 80.9737 14.4608 83.1322 13.278 83.1322H13.2873ZM16.6684 79.3326C16.6684 78.4585 16.3454 78.1345 15.7389 78.1345C14.986 78.1345 14.2772 78.934 13.5662 79.9037L15.3624 75.167L15.2904 75.0598L13.4058 75.2743V75.5074L13.773 75.7894C14.1053 76.0482 14.0054 76.3186 13.6963 77.0948L11.7606 82.1042C11.6309 82.4001 11.5268 82.7066 11.4492 83.0203C11.4492 83.5402 12.1463 84.025 12.783 84.025C14.247 84.025 16.6893 81.3816 16.6893 79.3513L16.6684 79.3326ZM10.8357 78.7802C10.8653 78.7161 10.8793 78.6459 10.8764 78.5754C10.8735 78.5049 10.8538 78.4361 10.819 78.3747C10.7842 78.3134 10.7353 78.2613 10.6764 78.2227C10.6174 78.1842 10.5502 78.1603 10.4802 78.1531C9.61805 78.1531 8.59559 78.9294 8.18893 80.018H8.46778C8.74664 79.6193 9.22069 79.1764 9.66221 79.0995L8.01465 83.398C7.98472 83.4609 7.97044 83.5301 7.97301 83.5997C7.97559 83.6694 7.99496 83.7374 8.02945 83.7979C8.06394 83.8583 8.11253 83.9096 8.17106 83.9471C8.2296 83.9846 8.29633 84.0074 8.36554 84.0134C9.18351 84.0134 10.1409 83.2255 10.5499 82.1485H10.271C9.99218 82.5448 9.52743 82.9854 9.08126 83.0646L10.8357 78.7802ZM11.1355 76.6193C11.2301 76.6202 11.324 76.6022 11.4116 76.5661C11.4991 76.5301 11.5786 76.4768 11.6453 76.4095C11.712 76.3421 11.7646 76.262 11.8 76.1739C11.8353 76.0859 11.8528 75.9916 11.8512 75.8967C11.8494 75.708 11.7739 75.5277 11.6409 75.3943C11.508 75.2609 11.3282 75.1852 11.1401 75.1834C11.0469 75.1834 10.9545 75.2018 10.8684 75.2377C10.7822 75.2736 10.704 75.3262 10.6381 75.3924C10.5723 75.4587 10.5201 75.5373 10.4847 75.6239C10.4492 75.7104 10.4311 75.8031 10.4314 75.8967C10.4298 75.9905 10.4471 76.0836 10.4821 76.1706C10.5172 76.2576 10.5693 76.3366 10.6355 76.4029C10.7016 76.4692 10.7804 76.5216 10.8671 76.5567C10.9538 76.5919 11.0466 76.6092 11.1401 76.6076L11.1355 76.6193ZM6.80396 75.9083H2.88374L2.77452 76.244C3.93641 76.4771 4.03401 76.589 3.49722 78.0785L2.22611 81.6287C1.68932 83.1066 1.46159 83.2255 0.134708 83.4632L0.0371094 83.7966H6.00458L7.29427 81.4888H6.84346C6.11147 82.2977 5.24935 83.3117 3.92712 83.3117C2.92557 83.3117 2.80706 83.1392 3.34617 81.6287L4.61496 78.0902C5.14245 76.61 5.37948 76.4911 6.70636 76.2556L6.80396 75.9083Z" fill="black"/>
<path d="M22.1549 17.2498C22.3641 17.04 22.5755 16.8162 22.787 16.5901C23.1655 16.1416 23.5755 15.721 24.0139 15.3313C24.1411 15.2158 24.2754 15.1083 24.416 15.0096C24.4508 14.9747 24.4508 14.9001 24.488 14.8628C24.3044 14.9374 24.1929 15.0959 24.0093 15.1588C23.9721 15.1588 23.9373 15.1215 23.9721 15.0842L24.3672 14.7882H24.3416C24.3044 14.7882 24.3044 14.7532 24.3044 14.7159C23.8257 14.6413 23.4562 14.9747 23.1263 15.2684C23.0519 15.3057 22.9775 15.2334 22.9427 15.2334C22.3896 15.4176 21.9853 15.8978 21.4322 16.1192V16.0376C21.2115 16.1122 20.9954 16.2451 20.7699 16.2964C20.4627 16.3458 20.1506 16.3584 19.8404 16.3337C19.3902 16.3854 18.9432 16.4632 18.5019 16.5668H18.4648C18.2218 16.6298 17.9876 16.723 17.7676 16.8442L17.7421 16.8582C17.7262 16.8801 17.7091 16.9011 17.6909 16.9211C17.622 17.0142 17.536 17.0933 17.4376 17.1542C17.2179 17.2926 17.0131 17.4535 16.8265 17.6344C16.8099 17.6472 16.7893 17.6538 16.7684 17.6531C16.5709 17.8442 16.3757 18.0353 16.1735 18.2218C16.1389 18.2387 16.0997 18.2436 16.062 18.2358C16.0689 18.2236 16.0767 18.2119 16.0852 18.2008C16.1154 18.1472 16.1456 18.096 16.1782 18.0447C16.2107 17.9934 16.2502 17.9304 16.2874 17.8722C16.3246 17.8139 16.3896 17.7206 16.4454 17.6391C16.4518 17.6325 16.4554 17.6237 16.4554 17.6146C16.4554 17.6054 16.4518 17.5966 16.4454 17.5901C16.4314 17.5774 16.4131 17.5707 16.3943 17.5715C16.5826 17.3937 16.7899 17.2374 17.0124 17.1053C16.9868 17.1053 16.952 17.1053 16.9706 17.0703C16.9892 17.0353 17.0124 17.0027 17.0333 16.9677L17.0473 16.9351L17.0194 16.9071C16.9577 16.9421 16.8994 16.9827 16.8451 17.0283C16.7568 17.1076 16.6871 17.2614 16.5546 17.2614H16.4988C16.4847 17.26 16.4712 17.2552 16.4593 17.2474C16.4646 17.2361 16.4709 17.2252 16.4779 17.2148L16.4942 17.1845L16.5081 17.1589L16.5337 17.1122L16.5546 17.0773C16.5686 17.0493 16.5848 17.0237 16.6011 16.9957L16.6243 16.9561L16.6638 16.8908C16.6824 16.8582 16.6638 16.8349 16.6359 16.8232C16.7037 16.7336 16.7891 16.659 16.8869 16.6041C17.0263 16.5318 17.1681 16.4456 17.3098 16.371L17.3703 16.3174C17.1632 16.3884 16.9663 16.4863 16.7847 16.6087C16.7624 16.6168 16.7413 16.6278 16.7219 16.6414C16.7049 16.6452 16.6872 16.6442 16.6708 16.6384C16.6544 16.6327 16.6399 16.6224 16.629 16.6087C16.6263 16.5996 16.6263 16.5899 16.629 16.5808C16.6662 16.5062 16.7754 16.4689 16.8613 16.3966C16.8985 16.3966 16.9334 16.3966 16.9334 16.4339C18.1139 15.5015 19.7219 15.7346 21.0953 15.2521L21.4276 15.019C21.6112 14.9467 21.7576 14.7625 21.9806 14.6507C22.2773 14.4445 22.4972 14.1451 22.6057 13.7998C22.6013 13.7724 22.5883 13.7471 22.5686 13.7276C22.1036 14.2285 21.5526 14.6415 20.9419 14.9467C20.1681 15.3523 19.3153 15.2777 18.5112 15.3896C18.5484 15.315 18.6205 15.315 18.6948 15.315C18.6948 15.2054 18.7692 15.1681 18.8435 15.0936H18.9528C18.9899 15.0936 18.9899 15.019 19.0271 15.019C19.0991 15.019 19.2107 14.984 19.1735 14.984C19.0643 14.8348 18.8435 15.0936 18.6576 14.984C18.732 14.9094 18.6948 14.7975 18.7692 14.7625H18.9156C18.9234 14.706 18.9496 14.6536 18.9899 14.6134C19.543 14.28 20.0589 14.0236 20.5724 13.7276C20.4632 13.7276 20.3888 13.8371 20.2796 13.7649C20.3517 13.7649 20.2796 13.653 20.3517 13.653C20.7583 13.5434 21.0883 13.3196 21.495 13.1728C21.3462 13.1728 21.237 13.2847 21.0883 13.1728C21.1627 13.1355 21.1998 13.0632 21.3207 13.0632V12.9513C21.3207 12.914 21.3579 12.914 21.395 12.914C21.3669 12.9101 21.3407 12.897 21.3207 12.8767C21.3579 12.8045 21.4694 12.8394 21.5531 12.7672C21.5182 12.7672 21.4438 12.7672 21.4438 12.7299C21.5706 12.5992 21.7412 12.5203 21.9225 12.5084C21.8854 12.4338 21.7738 12.5084 21.7738 12.4338C21.7738 12.3965 21.811 12.3965 21.8482 12.3965H21.7738C21.7018 12.3592 21.739 12.287 21.739 12.2497C21.9713 11.9909 21.9713 11.6576 22.0689 11.3639C22.0318 11.3639 21.9969 11.3639 21.9969 11.3266C21.6274 11.7322 21.0395 11.879 20.4864 12.0259H20.2866C20.1854 12.0648 20.0771 12.0816 19.9689 12.0751C19.8607 12.0687 19.7551 12.0392 19.6592 11.9886C19.5258 11.8973 19.4013 11.7935 19.2874 11.6786C18.9961 11.4946 18.6841 11.3459 18.3579 11.2357C17.4429 10.9357 16.4826 10.7984 15.5205 10.8301C15.9272 10.597 16.3734 10.597 16.8102 10.4594C17.4353 10.2753 18.0256 10.0538 18.6878 10.0911C18.5662 10.0725 18.4424 10.0725 18.3207 10.0911C17.8048 10.0538 17.2889 10.2007 16.7359 10.3242C16.3687 10.3965 16.0387 10.5457 15.6693 10.6203C15.4485 10.6925 15.3369 10.914 15.079 10.879V10.7671C15.4485 10.3242 15.89 9.88132 16.4733 9.8347C17.1379 9.72281 17.763 9.8347 18.4253 9.90697C18.8958 9.95836 19.3618 10.0448 19.8195 10.1657C20.0054 10.1657 20.0519 10.4618 20.189 10.4991C20.4214 10.5736 20.6305 10.4991 20.8513 10.6459C20.8513 10.5736 20.8141 10.4991 20.8513 10.4245C21 10.2776 21.1836 10.4618 21.33 10.3872C21.6251 10.203 21.072 9.872 20.9256 9.61326C20.9296 9.58498 20.9426 9.55878 20.9628 9.53866C21.2556 9.79741 21.4787 10.0935 21.8459 10.2776C22.0294 10.3522 22.471 10.4618 22.3989 10.2403C22.2153 9.8347 21.8459 9.50136 21.5507 9.13306V8.98387C21.4787 8.98387 21.4787 8.94657 21.4415 8.91161V8.76242C21.2928 8.68783 21.33 8.54097 21.2556 8.43141C21.1464 8.24493 21.2208 7.98618 21.1464 7.76473C21.079 7.56054 21.03 7.35067 21 7.13768C20.914 6.50596 20.7653 5.9535 20.6816 5.36142C20.6073 4.6621 21.086 4.10498 21.4183 3.47793C21.658 3.00344 22.0128 2.59704 22.45 2.29609C22.5947 1.8563 22.8325 1.45313 23.1472 1.11424C23.466 0.785714 23.8544 0.53319 24.2835 0.375299C24.6065 0.232333 24.9369 0.107049 25.2734 0L0 0V19.5482H17.8931C18.5902 19.0424 19.2874 18.8023 20.2727 18.3174C20.7397 18.089 21.7971 17.6041 22.1549 17.2498ZM16.4988 14.597C16.4268 14.597 16.2665 14.6343 16.3153 14.5597C16.3524 14.3756 16.6104 14.3756 16.7568 14.301C16.8311 14.2637 16.9404 14.1914 17.0147 14.2287C17.0891 14.3383 17.1983 14.301 17.2727 14.3756C17.0449 14.597 16.7498 14.4875 16.4988 14.597ZM10.859 13.7835C10.8387 13.7644 10.8256 13.7389 10.8218 13.7112C11.274 13.1229 11.6686 12.4921 12 11.8278C12.4673 11.5512 12.8877 11.2019 13.2455 10.7928C13.826 10.1255 14.5249 9.57224 15.3067 9.16103C15.6204 9.06184 15.9585 9.07419 16.2641 9.196C16.1549 9.34518 15.969 9.30789 15.8226 9.4291C15.8026 9.43156 15.7823 9.42972 15.7631 9.42369C15.7439 9.41766 15.7261 9.40758 15.7111 9.39414C15.7252 9.37942 15.7358 9.36174 15.7422 9.34239C15.7487 9.32304 15.7507 9.30249 15.7483 9.28225C15.3811 9.68785 14.8652 9.87433 14.5701 10.3545C14.3563 10.7228 14.2099 11.189 13.7312 11.3103C13.5825 11.3476 13.7684 11.1984 13.694 11.2357C12.5484 11.9373 11.7421 12.7881 10.859 13.7835ZM13.9148 11.3476C13.8776 11.4198 13.8381 11.4291 13.8033 11.4944C13.7755 11.5607 13.7229 11.6134 13.6569 11.6413C13.6197 11.6413 13.5825 11.6413 13.5825 11.604C13.6004 11.5285 13.6367 11.4588 13.6882 11.401C13.7398 11.3432 13.8049 11.2992 13.8776 11.273C13.9148 11.273 13.9148 11.3103 13.9148 11.3476ZM15.6251 16.8815C15.6031 16.9234 15.5721 16.96 15.5345 16.9887C15.5809 16.9887 15.6135 17.019 15.5833 17.047C15.5047 17.1302 15.4098 17.1961 15.3044 17.2405C15.2851 17.2432 15.2656 17.2432 15.2463 17.2405C15.2022 17.2847 15.1557 17.3267 15.1092 17.3687C15.0627 17.4106 14.8629 17.3687 14.9256 17.3244C14.9884 17.2801 15.1046 17.1519 15.1975 17.068C15.2486 17.019 15.3044 16.9747 15.3509 16.9211C15.3735 16.8899 15.4001 16.8617 15.4299 16.8372C15.4601 16.8255 15.6553 16.8092 15.6251 16.8815ZM14.9651 16.5761C14.828 16.674 14.6909 16.7719 14.5445 16.8558C14.3981 16.9397 14.2215 17.019 14.0589 17.0889C14.0519 17.0794 14.0417 17.0727 14.0301 17.0701C14.0186 17.0675 14.0065 17.0693 13.9961 17.0749C13.8606 17.1514 13.7363 17.2464 13.6266 17.357C13.6085 17.3729 13.5914 17.39 13.5755 17.4083L13.5244 17.4596C13.4988 17.4852 13.4733 17.5109 13.4431 17.5458C13.4306 17.5662 13.4139 17.5836 13.3943 17.5971C13.371 17.6111 13.3083 17.6111 13.3153 17.5691L13.2502 17.6018C13.2301 17.6112 13.2107 17.6221 13.1921 17.6344C13.1837 17.632 13.1749 17.632 13.1665 17.6344C13.1583 17.6312 13.1492 17.6312 13.141 17.6344C13.0945 17.6694 13.0504 17.7067 13.0062 17.7463C12.929 17.8176 12.8582 17.8956 12.7947 17.9794L12.7831 17.9934V18.0097L12.7576 18.0447C12.7493 18.0529 12.7388 18.0586 12.7273 18.061L12.7134 18.0377C12.709 18.0318 12.7051 18.0256 12.7018 18.019C12.7018 18.0004 12.6809 17.9817 12.6716 17.9607C12.6707 17.9546 12.6707 17.9483 12.6716 17.9421C12.7111 17.9001 12.7483 17.8559 12.7878 17.8092L12.8249 17.7626L12.8273 17.716L12.8482 17.688C12.89 17.6344 12.9272 17.5831 12.9644 17.5318L12.9806 17.5085C12.9992 17.4829 13.0155 17.4549 13.0318 17.4293C13.0463 17.4052 13.0595 17.3803 13.0713 17.3547V17.3407L13.1061 17.2544C13.1052 17.2459 13.1052 17.2373 13.1061 17.2288C13.1054 17.2156 13.1054 17.2024 13.1061 17.1892L13.1201 17.1356C13.1219 17.1315 13.1229 17.1272 13.1229 17.1227C13.1229 17.1183 13.1219 17.1139 13.1201 17.1099C13.1623 17.0385 13.2114 16.9714 13.2665 16.9094L13.2502 16.9211C13.1967 16.9537 13.1619 17.0027 13.1131 17.0377C13.0643 17.0726 12.9992 17.019 13.0457 16.984C13.0752 16.9602 13.1031 16.9345 13.1294 16.9071C13.188 16.8409 13.2509 16.7786 13.3176 16.7206C13.3594 16.6903 13.3966 16.6624 13.4291 16.6344C13.4357 16.6302 13.4412 16.6246 13.4454 16.6181C13.4714 16.5853 13.4993 16.5542 13.529 16.5248C13.8799 16.1822 14.4748 16.1985 14.9396 15.9817C15.1232 15.9071 15.3439 16.0167 15.5275 15.9817C15.6431 15.9706 15.7592 15.9959 15.8598 16.0539C15.5693 16.1822 15.2672 16.3873 14.9651 16.5761ZM15.718 14.0119C15.6832 13.9747 15.8296 14.0119 15.8668 13.9374H15.5693C15.5321 13.9374 15.5321 13.9001 15.5321 13.8628C15.3486 13.9001 15.1278 13.9747 14.9442 14.0119C14.6863 14.0842 14.4655 14.2684 14.1704 14.343C13.7661 14.4921 13.4338 14.8232 12.9923 14.9723C12.9551 14.9723 12.9551 14.935 12.9551 14.8977C12.9923 14.7859 13.1387 14.7509 13.213 14.639C13.213 14.6017 13.213 14.5644 13.1758 14.5644C13.471 14.1588 13.873 13.9374 14.2448 13.604V13.4945C14.354 13.3453 14.5376 13.273 14.6119 13.0865C14.6874 12.9321 14.8199 12.8133 14.9814 12.7555C14.9442 12.7182 14.8699 12.7182 14.8699 12.6436C14.7235 12.6436 14.5747 12.7182 14.4284 12.6063C14.4935 12.5438 14.5735 12.4988 14.6607 12.4758C14.6271 12.4692 14.5971 12.4501 14.5771 12.4222C14.5399 12.3476 14.6491 12.266 14.7607 12.238C14.9094 12.2007 15.093 12.2007 15.2045 12.0888C14.9466 12.0539 14.6514 12.1634 14.3935 12.0166C14.5519 11.5419 14.8842 11.1453 15.323 10.907C15.3602 10.907 15.4345 10.907 15.4345 10.9443C15.4377 11.0313 15.4097 11.1165 15.3555 11.1845C15.3014 11.2525 15.2247 11.2988 15.1394 11.3149C15.4417 11.3522 15.7383 11.4266 16.0225 11.5364C15.9853 11.6086 15.9132 11.5737 15.8761 11.5737C16.0596 11.6832 16.2804 11.6086 16.464 11.7578C16.3548 11.8674 16.2316 11.7578 16.134 11.7578C17.275 12.0888 18.4903 12.3476 19.4477 13.0865C18.639 13.4566 17.7849 13.7176 16.9078 13.8628C16.808 13.869 16.7079 13.8563 16.6127 13.8255C16.6127 13.8628 16.6127 13.9374 16.5755 13.9374C16.4483 13.9221 16.3196 13.9482 16.2084 14.0119C16.1343 14.0571 16.0492 14.0806 15.9625 14.0798C15.8759 14.0789 15.7912 14.0538 15.718 14.0073V14.0119Z" fill="#000091"/>
<path d="M53.5934 0H32.6283C32.6982 0.0233741 32.7653 0.0546561 32.8281 0.093242L33.3556 0.375299C33.636 0.506428 33.8766 0.709963 34.0528 0.965055C34.1248 1.07695 34.2363 1.2984 34.162 1.44525C34.0876 1.63174 34.0528 1.92545 33.8669 2.00004C33.6225 2.10001 33.3543 2.12594 33.0954 2.07464C32.9449 2.06789 32.7959 2.04284 32.6515 2.00004C33.2046 2.22149 33.7205 2.48024 34.0876 2.99773C34.1248 3.07233 34.2735 3.10962 34.4199 3.10962C34.4571 3.10962 34.4571 3.18188 34.4571 3.21918C34.3827 3.29378 34.3107 3.33107 34.3456 3.44063H34.4571C34.6407 3.36604 34.6035 2.99773 34.8614 3.10962C34.9517 3.16535 35.0174 3.25357 35.0451 3.35625C35.0727 3.45893 35.0602 3.56833 35.0102 3.66208C34.8716 3.79648 34.7232 3.92037 34.5663 4.03272C34.5491 4.07367 34.5403 4.11766 34.5403 4.16209C34.5403 4.20653 34.5491 4.25051 34.5663 4.29146C34.6596 4.42381 34.723 4.57495 34.7522 4.73436C34.8614 4.99311 34.8986 5.28916 35.0102 5.54557C35.1841 6.08301 35.2712 6.6449 35.2681 7.20994C35.2681 7.50365 35.1194 7.7624 35.2309 8.05844C35.3282 8.33518 35.4643 8.59657 35.6353 8.83468C35.7825 9.02235 35.9176 9.21935 36.0396 9.42444C36.2604 9.79508 36.667 10.1634 36.4834 10.6086C36.3719 10.8674 35.9676 10.8417 35.7096 10.9769C35.4889 11.1611 35.6724 11.4571 35.7817 11.6413C35.9676 11.9746 35.5609 12.1961 35.303 12.3079C35.3773 12.4175 35.5353 12.3802 35.5609 12.4548C35.5981 12.639 35.7817 12.7508 35.6724 12.935C35.5237 13.1565 35.0822 13.2683 35.303 13.5994C35.4517 13.8581 35.3564 14.1448 35.2681 14.4129C35.2122 14.5536 35.1221 14.678 35.006 14.7749C34.8899 14.8718 34.7516 14.9381 34.6035 14.9677C34.377 15.0334 34.1383 15.0454 33.9064 15.0026C33.8354 14.961 33.7559 14.9363 33.674 14.9304C33.0489 14.8558 32.4215 14.6716 31.7964 14.6716C31.6191 14.6993 31.4458 14.7486 31.2805 14.8185C31.1204 14.9371 30.9711 15.0697 30.8343 15.2148L30.7553 15.3034L30.7065 15.3616C30.7065 15.3616 30.6856 15.3849 30.6763 15.3989C30.5692 15.5338 30.4722 15.6764 30.3858 15.8255L30.3696 15.8535L30.3417 15.9048C30.2248 16.1202 30.1313 16.3476 30.0628 16.5831C29.8119 17.4293 29.9211 18.1542 30.0977 18.3314C30.1465 18.3803 31.313 18.7416 32.1263 19.103C32.4268 19.2309 32.7179 19.3797 32.9978 19.5482H53.5841L53.5934 0Z" fill="#E1000F"/>
<path d="M33.8762 7.1306C34.0226 7.1679 34.2433 7.1679 34.2433 7.24249C34.1713 7.53854 33.7274 7.6108 33.5067 7.90684H33.3975C33.2859 7.98144 33.3231 8.16559 33.2116 8.16559C33.1005 8.14084 32.9844 8.15397 32.8816 8.20289C32.9473 8.28466 33.0322 8.34877 33.1288 8.38945C33.2253 8.43014 33.3304 8.44613 33.4346 8.43599C33.4654 8.44738 33.4922 8.46759 33.5116 8.49412C33.531 8.52064 33.5422 8.55231 33.5439 8.58518C33.5724 8.58237 33.5989 8.56909 33.6182 8.54788C33.6554 8.54788 33.6926 8.54788 33.6926 8.58518V8.73204C33.581 8.87889 33.3975 8.80663 33.2487 8.8416C33.5266 8.91629 33.8191 8.91629 34.0969 8.8416C34.3293 8.76933 34.0969 8.3987 34.2433 8.21454C34.1713 8.21454 34.2433 8.10498 34.1713 8.10498C34.2433 8.03039 34.3177 7.9185 34.392 7.87188C34.435 7.87312 34.4775 7.86377 34.516 7.84467C34.5545 7.82557 34.5877 7.7973 34.6128 7.76232C34.6128 7.68773 34.4641 7.65043 34.5013 7.57817C34.722 7.42898 34.9056 7.20753 34.8335 6.98608C34.7964 6.87652 34.5012 6.87652 34.3177 6.80193C34.1096 6.75937 33.8941 6.77223 33.6926 6.83922C33.504 6.87035 33.3188 6.91952 33.1395 6.98608C32.8892 7.07223 32.654 7.1973 32.4424 7.35672C32.7052 7.25725 32.9757 7.17929 33.2511 7.12361C33.4589 7.09933 33.6689 7.10168 33.8762 7.1306Z" fill="#9D9D9C"/>
</g>
<defs>
<clipPath id="clip0">
<rect width="126" height="111" fill="white"/>
</clipPath>
</defs>
</svg>
