<svg viewBox="0 0 606 226" xmlns="http://www.w3.org/2000/svg" xmlns:serif="http://www.serif.com/" fill-rule="evenodd" clip-rule="evenodd" stroke-linecap="round" stroke-linejoin="round" stroke-miterlimit="10"><g fill="#006cb0"><path d="M454.392 114.639h95.198v110.212h-95.198zM76.078 105.88h128.751v118.972H76.078zM316.756 94.63H432.6v130.221H316.756z"/><path d="M285.196 143.715h203.156v81.136H285.196z"/><path d="M266.292 114.639H304.1v110.212h-37.808zM195.105 62.579h61.86v162.272h-61.86z"/></g><path d="M264.523 29.854l-12.718 12.81h-73.309l-11.891-10.223 20.709-16.307 11.308 8.904L228.514 1.5l36.009 28.354z" fill="#fff" stroke="#26353f" stroke-width="3"/><path d="M70.781 147.833v-.357h-.469L58.906 57.425H36.095L24.69 147.476v76.042h46.091v-.047h158.684v-75.505h-.079l-46.047-29.58v29.537l-45.979-29.537v29.537l-45.979-29.537v29.447h-20.6z" fill="#fff"/><clipPath id="a"><path d="M70.781 147.833v-.357h-.469L58.906 57.425H36.095L24.69 147.476v76.042h46.091v-.047h158.684v-75.505h-.079l-46.047-29.58v29.537l-45.979-29.537v29.537l-45.979-29.537v29.447h-20.6z"/></clipPath><g clip-path="url(#a)" fill="#1e90da"><path d="M63.125 101.052H31.881l1.337-10.577h28.57l1.337 10.577zM65.803 122.204H29.208l1.327-10.576h33.94l1.328 10.576zM60.449 79.899H34.552l1.337-10.576h23.223l1.337 10.576z"/></g><path d="M70.781 147.833v-.357h-.469L58.906 57.425H36.095L24.69 147.476v76.042h46.091v-.047h158.684v-75.505h-.079l-46.047-29.58v29.537l-45.979-29.537v29.537l-45.979-29.537v29.447h-20.6z" fill="none" stroke="#26353f" stroke-width="3"/><g fill="#1e90da" stroke="#26353f" stroke-width="3"><path d="M191.961 172.259h24.06v8.34h-24.06zM161.512 172.259h24.06v8.34h-24.06zM191.961 188.939h24.06v8.34h-24.06zM161.512 188.939h24.06v8.34h-24.06zM130.392 172.259h24.06v8.34h-24.06zM99.408 172.259h24.06v8.34h-24.06zM130.392 188.939h24.06v8.34h-24.06zM99.408 188.939h24.06v8.34h-24.06zM68.697 172.306h24.06v8.34h-24.06zM37.791 172.306h24.06v8.34h-24.06zM68.697 188.986h24.06v8.34h-24.06zM37.791 188.986h24.06v8.34h-24.06z"/></g><path d="M491.442 83.829h73.308l11.891-10.224-20.709-16.306-11.307 8.904-29.893-23.539-17.72 13.953-15.602-13.953-29.913 26.752 24.08 14.413h15.865zM351.948 42.024h36.957v7.632h-36.957z" fill="#fff" stroke="#26353f" stroke-width="3"/><path fill="#fff" stroke="#26353f" stroke-width="3" d="M345.976 49.655h48.902v7.632h-48.902zM341.11 57.425h59.207v165.761H341.11z"/><g serif:id="Windows" fill="#006cb0" stroke="#26353f" stroke-width="3"><path d="M360.37 114.744h6.705v10.714h-6.705zM373.779 114.744h6.705v10.714h-6.705zM360.37 136.171h6.705v10.714h-6.705zM373.779 136.171h6.705v10.714h-6.705zM360.37 157.599h6.705v10.714h-6.705zM373.779 157.599h6.705v10.714h-6.705zM360.37 72.272h6.705v10.714h-6.705zM373.779 72.272h6.705v10.714h-6.705zM360.37 93.699h6.705v10.714h-6.705zM373.779 93.699h6.705v10.714h-6.705zM549.648 202.233h6.579v10.335h-6.579z"/></g><path d="M382.543 185.36v37.826h-23.367l23.367-37.826z" fill="#1e90da"/><path fill="none" stroke="#26353f" stroke-width="3" d="M358.513 185.36h12.201v37.827h-12.201z"/><path fill="none" stroke="#26353f" stroke-width="3" d="M370.713 185.36h12.201v37.827h-12.201z"/><g><path fill="#fff" d="M117.756 147.804h59.207v75.654h-59.207z"/><clipPath id="b"><path d="M117.756 147.804h59.207v75.654h-59.207z"/></clipPath><g clip-path="url(#b)"><path d="M176.964 147.804v75.654h-59.208l59.208-75.654z" fill="#1e90da"/></g><path fill="none" stroke="#26353f" stroke-width="3" d="M117.756 147.804h59.207v75.654h-59.207z"/><path fill="#fff" stroke="#26353f" stroke-width="3" d="M136.338 157.672h6.705v10.714h-6.705zM149.748 157.672h6.705v10.714h-6.705zM136.338 179.1h6.705v10.714h-6.705zM149.748 179.1h6.705v10.714h-6.705zM136.338 200.527h6.705v10.714h-6.705zM149.748 200.527h6.705v10.714h-6.705z"/><g serif:id="Duotone_2_"><path fill="#fff" d="M236.171 147.804h59.207v75.654h-59.207z"/><clipPath id="c"><path d="M236.171 147.804h59.207v75.654h-59.207z"/></clipPath><g clip-path="url(#c)"><path d="M236.171 223.458v-75.654h59.207l-59.207 75.654z" fill="#1e90da"/></g><path fill="none" stroke="#26353f" stroke-width="3" d="M236.171 147.804h59.207v75.654h-59.207z"/><path fill="#fff" stroke="#26353f" stroke-width="3.09" d="M257.027 157.672h6.705v10.714h-6.705zM270.437 157.672h6.705v10.714h-6.705zM257.027 179.1h6.705v10.714h-6.705zM270.437 179.1h6.705v10.714h-6.705zM257.027 200.527h6.705v10.714h-6.705zM270.437 200.527h6.705v10.714h-6.705z"/></g><path fill="#fff" stroke="#26353f" stroke-width="3" d="M176.964 96.705h59.207v126.753h-59.207z"/><path d="M218.397 185.631v37.827H195.03l23.367-37.827z" fill="#1e90da"/><path fill="none" stroke="#26353f" stroke-width="6.68" d="M173.775 94.714h65.584v.664h-65.584z"/><path fill="none" stroke="#26353f" stroke-width="6" d="M238.032 145.15h58.948v.664h-58.948zM115.924 145.15h58.948v.664h-58.948z"/><g serif:id="Doors" fill="#fff" stroke="#26353f" stroke-width="3"><path d="M194.366 185.631h12.201v37.827h-12.201zM206.567 185.631h12.201v37.827h-12.201z"/></g><path d="M218.768 121.566v8.134h-8.134v8.134H202.5V129.7h-8.134v-8.134h8.134v-8.133h8.134v8.133h8.134z" fill="#1e90da"/></g><g><g serif:id="Duotone_2_"><path fill="#fff" stroke="#26353f" stroke-width="3" d="M391.763 170.065h59.207v53.09h-59.207z"/><path d="M449.642 171.591v50.164H393.09l56.552-50.164z" fill="#1e90da"/><path fill="#fff" stroke="#26353f" stroke-width="3" d="M404.92 181.26h6.579v10.335h-6.579zM418.077 181.26h6.579v10.335h-6.579zM404.92 201.93h6.579v10.335h-6.579zM418.077 201.93h6.579v10.335h-6.579zM431.234 181.26h6.579v10.335h-6.579zM431.234 201.93h6.579v10.335h-6.579z"/></g><g serif:id="Duotone_2_"><path fill="#fff" stroke="#26353f" stroke-width="3" d="M510.177 170.065h59.207v53.09h-59.207z"/><path d="M510.177 223.155v-53.09h59.207l-59.207 53.09z" fill="#1e90da"/><path fill="#fff" stroke="#26353f" stroke-width="3" d="M523.334 181.26h6.579v10.335h-6.579zM536.491 181.26h6.579v10.335h-6.579zM523.334 201.93h6.579v10.335h-6.579zM536.491 201.93h6.579v10.335h-6.579zM549.648 181.26h6.579v10.335h-6.579zM549.648 201.93h6.579v10.335h-6.579z"/></g><path d="M509.203 158.677h.974v64.276H450.97v-64.276h.973l28.63-18.533 28.63 18.533z" fill="#fff" stroke="#26353f" stroke-width="3"/><path d="M480.195 137.276l-34.039 22.462.379.517 34.038-22.462-.378-.517z" fill="none" stroke="#26353f" stroke-width="4.15"/><circle cx="480.573" cy="172.922" r="8.425" fill="#1e90da"/><path d="M480.38 137.276l34.038 22.462-.378.517-34.039-22.462.379-.517z" fill="none" stroke="#26353f" stroke-width="4.15"/><path fill="none" stroke="#26353f" stroke-width="6" d="M512.038 170.728h58.948v.664h-58.948zM389.93 170.728h58.948v.664H389.93z"/><g serif:id="Doors"><path d="M492.403 196.223v26.776h-23.367l23.367-26.776z" fill="#1e90da"/><path fill="none" stroke="#26353f" stroke-width="3" d="M468.373 196.223h12.201v26.776h-12.201z"/><path fill="none" stroke="#26353f" stroke-width="3" d="M480.573 196.223h12.201v26.776h-12.201z"/></g></g><g><path d="M67.94 153.189l14.672 41.776L67.94 208.89l-14.673-13.925 14.673-41.776z" fill="#fff"/><clipPath id="d"><path d="M67.94 153.189l14.672 41.776L67.94 208.89l-14.673-13.925 14.673-41.776z"/></clipPath><g clip-path="url(#d)"><path fill="#1e90da" d="M67.94 145.85h18.081v66.631H67.94z"/></g><path d="M67.94 153.189l14.672 41.776L67.94 208.89l-14.673-13.925 14.673-41.776z" fill="none" stroke="#26353f" stroke-width="3" stroke-miterlimit="1.5"/><path d="M67.501 180.079v43.379h.439v-43.379h-.439z" fill="none" stroke="#26353f" stroke-width="3"/></g><g serif:id="Tree"><path d="M16.173 153.189l14.672 41.776-14.672 13.925L1.5 194.965l14.673-41.776z" fill="#fff"/><clipPath id="e"><path d="M16.173 153.189l14.672 41.776-14.672 13.925L1.5 194.965l14.673-41.776z"/></clipPath><g clip-path="url(#e)"><path fill="#1e90da" d="M16.173 145.85h18.081v66.631H16.173z"/></g><path d="M16.173 153.189l14.672 41.776-14.672 13.925L1.5 194.965l14.673-41.776z" fill="none" stroke="#26353f" stroke-width="3" stroke-miterlimit="1.5"/><path d="M15.734 180.079v43.379h.439v-43.379h-.439z" fill="none" stroke="#26353f" stroke-width="3"/></g><g serif:id="Tree"><path d="M585.291 160.623l16.099 11.696-3.574 4.918 5.782 1.879-6.149 18.925-5.782-1.879v6.079h-19.898v-6.079l-5.782 1.879-6.149-18.925 5.782-1.879-3.574-4.918 16.099-11.696 3.573 4.918 3.573-4.918z" fill="#fff"/><clipPath id="f"><path d="M585.291 160.623l16.099 11.696-3.574 4.918 5.782 1.879-6.149 18.925-5.782-1.879v6.079h-19.898v-6.079l-5.782 1.879-6.149-18.925 5.782-1.879-3.574-4.918 16.099-11.696 3.573 4.918 3.573-4.918z"/></clipPath><g clip-path="url(#f)"><path fill="#1e90da" d="M581.718 158.027h21.88v45.235h-21.88z"/></g><path d="M585.291 160.623l16.099 11.696-3.574 4.918 5.782 1.879-6.149 18.925-5.782-1.879v6.079h-19.898v-6.079l-5.782 1.879-6.149-18.925 5.782-1.879-3.574-4.918 16.099-11.696 3.573 4.918 3.573-4.918z" fill="none" stroke="#26353f" stroke-width="3" stroke-miterlimit="1.5"/><path d="M581.718 183.066v40.392h.409v-40.392h-.409z" fill="#374355" stroke="#26353f" stroke-width="3"/></g><g serif:id="Tree"><path d="M328.288 160.623l16.098 11.696-3.573 4.918 5.781 1.879-6.149 18.925-5.781-1.879v6.079h-19.899v-6.079l-5.782 1.879-6.149-18.925 5.782-1.879-3.573-4.918 16.098-11.696 3.573 4.918 3.574-4.918z" fill="#fff"/><clipPath id="g"><path d="M328.288 160.623l16.098 11.696-3.573 4.918 5.781 1.879-6.149 18.925-5.781-1.879v6.079h-19.899v-6.079l-5.782 1.879-6.149-18.925 5.782-1.879-3.573-4.918 16.098-11.696 3.573 4.918 3.574-4.918z"/></clipPath><g clip-path="url(#g)"><path fill="#1e90da" d="M324.714 158.027h21.88v45.235h-21.88z"/></g><path d="M328.288 160.623l16.098 11.696-3.573 4.918 5.781 1.879-6.149 18.925-5.781-1.879v6.079h-19.899v-6.079l-5.782 1.879-6.149-18.925 5.782-1.879-3.573-4.918 16.098-11.696 3.573 4.918 3.574-4.918z" fill="none" stroke="#26353f" stroke-width="3" stroke-miterlimit="1.5"/><path d="M324.714 183.066v40.392h.409v-40.392h-.409z" fill="#374355" stroke="#26353f" stroke-width="3"/></g></svg>