<?xml version="1.0" encoding="UTF-8" standalone="no"?><!DOCTYPE svg PUBLIC "-//W3C//DTD SVG 1.1//EN" "http://www.w3.org/Graphics/SVG/1.1/DTD/svg11.dtd"><svg width="100%" height="100%" viewBox="0 0 150 141" version="1.1" xmlns="http://www.w3.org/2000/svg" xmlns:xlink="http://www.w3.org/1999/xlink" xml:space="preserve" xmlns:serif="http://www.serif.com/" style="fill-rule:evenodd;clip-rule:evenodd;stroke-linecap:round;stroke-linejoin:round;stroke-miterlimit:10;"><ellipse cx="74.905" cy="70.19" rx="68.521" ry="70.19" style="fill:#daedf9;"/><rect x="1.462" y="89.931" width="29.886" height="19.018" style="fill:#fff;"/><path d="M31.348,89.931l-29.886,17.868l29.886,0l0,-17.868Z" style="fill:#238dff;fill-rule:nonzero;"/><rect x="1.462" y="89.931" width="29.886" height="19.018" style="fill:none;stroke:#000;stroke-width:2.92px;"/><rect x="59.963" y="89.931" width="29.886" height="19.018" style="fill:#fff;"/><path d="M89.848,89.931l-29.886,17.868l29.886,0l0,-17.868Z" style="fill:#238dff;fill-rule:nonzero;"/><rect x="59.963" y="89.931" width="29.886" height="19.018" style="fill:none;stroke:#000;stroke-width:2.92px;"/><rect x="59.963" y="31.431" width="29.886" height="19.018" style="fill:#fff;"/><path d="M89.848,31.431l-29.886,17.868l29.886,0l0,-17.868Z" style="fill:#238dff;fill-rule:nonzero;"/><rect x="59.963" y="31.431" width="29.886" height="19.018" style="fill:none;stroke:#000;stroke-width:2.92px;"/><rect x="118.462" y="89.931" width="29.886" height="19.018" style="fill:#fff;"/><path d="M148.348,89.931l-29.886,17.868l29.886,0l0,-17.868Z" style="fill:#238dff;fill-rule:nonzero;"/><rect x="118.462" y="89.931" width="29.886" height="19.018" style="fill:none;stroke:#000;stroke-width:2.92px;"/><path d="M16.405,70.32l117,0" style="fill:none;stroke:#000;stroke-width:2.62px;"/><path d="M16.405,70.688l0,18.277m58.5,-38.516l0,39.482m58.5,-19.179l0,19.179" style="fill:none;stroke:#000;stroke-width:2.92px;"/></svg>