<?xml version="1.0" encoding="UTF-8" standalone="no"?><!DOCTYPE svg PUBLIC "-//W3C//DTD SVG 1.1//EN" "http://www.w3.org/Graphics/SVG/1.1/DTD/svg11.dtd"><svg width="100%" height="100%" viewBox="0 0 150 154" version="1.1" xmlns="http://www.w3.org/2000/svg" xmlns:xlink="http://www.w3.org/1999/xlink" xml:space="preserve" xmlns:serif="http://www.serif.com/" style="fill-rule:evenodd;clip-rule:evenodd;stroke-linecap:round;stroke-linejoin:round;stroke-miterlimit:10;"><ellipse cx="74.75" cy="76.571" rx="74.75" ry="76.571" style="fill:#daedf9;"/><path d="M139.149,108.771l0,-81.963l-128.798,0l0,81.963l52.69,0l0,8.781l-11.709,8.782l46.836,0l-11.709,-8.782l0,-8.781l52.69,0Z" style="fill:#fff;fill-rule:nonzero;"/><path d="M139.149,26.808l-128.798,64.399l128.798,0l0,-64.399Z" style="fill:#238dff;fill-rule:nonzero;"/><path d="M10.351,26.808l128.798,0l0,81.962l-128.798,0l0,-81.962Zm0,64.399l128.798,0m-118.529,-27.324l33.332,0m41.197,-0.038l34.147,0m-74.945,0l2.984,-8.032m35.033,18.576l2.781,-10.544m-34.14,8.108l-3.674,-16.14m35.033,18.576l-5.736,-25.203m-8.589,32.343l-9.173,-45.042m-7.861,35.466l7.713,-35.078m9.321,44.654l8.589,-32.343m-0.173,59.585l0,8.781l11.709,8.782l-46.836,0l11.709,-8.782l0,-8.781" style="fill:none;stroke:#000;stroke-width:3.29px;"/></svg>