<?xml version="1.0" encoding="UTF-8" standalone="no"?><!DOCTYPE svg PUBLIC "-//W3C//DTD SVG 1.1//EN" "http://www.w3.org/Graphics/SVG/1.1/DTD/svg11.dtd"><svg width="100%" height="100%" viewBox="0 0 150 149" version="1.1" xmlns="http://www.w3.org/2000/svg" xmlns:xlink="http://www.w3.org/1999/xlink" xml:space="preserve" xmlns:serif="http://www.serif.com/" style="fill-rule:evenodd;clip-rule:evenodd;stroke-linecap:round;stroke-linejoin:round;stroke-miterlimit:10;"><ellipse cx="74.974" cy="74.319" rx="72.551" ry="74.319" style="fill:#daedf9;"/><rect x="1.412" y="27.507" width="147.123" height="93.623" style="fill:#fff;"/><clipPath id="_clip1"><rect x="1.412" y="27.507" width="147.123" height="93.623"/></clipPath><g clip-path="url(#_clip1)"><rect x="1.412" y="27.507" width="49.308" height="93.623" style="fill:#238dff;"/></g><rect x="1.412" y="27.507" width="147.123" height="93.623" style="fill:none;stroke:#000;stroke-width:2.82px;"/><path d="M59.561,41.045l42.081,0" style="fill:none;stroke:#000;stroke-width:2.87px;"/><path d="M12.667,41.045l28.952,0m-28.952,9.379l28.952,0m-28.952,9.379l28.952,0m-28.952,9.378l28.952,0m-28.952,9.379l28.952,0" style="fill:#fff;fill-rule:nonzero;stroke:#fff;stroke-width:2.7px;"/><path d="M59.561,50.424l60.839,0m-60.839,9.379l57.087,0m-57.087,9.378l60.839,0m-60.839,9.379l28.543,0m-28.543,30.012l28.543,0m-28.543,-20.634l60.839,0m-60.839,9.379l51.46,0" style="fill:none;stroke:#000;stroke-width:2.87px;"/></svg>